<svg width="45" height="54" viewBox="0 0 45 54" fill="none" xmlns="http://www.w3.org/2000/svg">
<path fill-rule="evenodd" clip-rule="evenodd" d="M3.85188 0.464859C3.41917 0.463573 2.98995 0.541825 2.58602 0.695671C2.12656 0.837582 1.72159 1.11487 1.42501 1.49061C1.12842 1.86634 0.95428 2.32271 0.925781 2.79898V51.5252C0.95428 52.0015 1.12842 52.4579 1.42501 52.8337C1.72159 53.2094 2.12656 53.4866 2.58602 53.6286C2.99003 53.7822 3.41919 53.8604 3.85188 53.8594C4.49849 53.8643 5.13313 53.6868 5.68182 53.3476L43.8912 28.985C44.2229 28.8078 44.4999 28.545 44.6931 28.2243C44.8862 27.9037 44.9882 27.5372 44.9882 27.1637C44.9882 26.7903 44.8862 26.4238 44.6931 26.1031C44.4999 25.7825 44.2229 25.5197 43.8912 25.3425L5.68182 0.979346C5.13309 0.640306 4.49844 0.462988 3.85188 0.468085V0.464859Z" fill="white"/>
</svg>
