<svg width="55" height="45" viewBox="0 0 55 45" fill="none" xmlns="http://www.w3.org/2000/svg">
<path fill-rule="evenodd" clip-rule="evenodd" d="M0.972672 41.17C0.971386 41.6024 1.04964 42.0312 1.20348 42.4348C1.34539 42.8939 1.62269 43.2986 1.99842 43.5949C2.37415 43.8913 2.83052 44.0653 3.30679 44.0938L52.0331 44.0938C52.5093 44.0653 52.9657 43.8913 53.3415 43.5949C53.7172 43.2986 53.9945 42.8939 54.1364 42.4348C54.29 42.0312 54.3682 41.6023 54.3672 41.17C54.3721 40.5239 54.1946 39.8898 53.8554 39.3415L29.4928 1.16266C29.3156 0.831295 29.0528 0.554432 28.7321 0.361462C28.4115 0.168496 28.045 0.0665973 27.6715 0.0665973C27.2981 0.0665973 26.9316 0.168495 26.6109 0.361462C26.2903 0.554432 26.0275 0.831295 25.8503 1.16266L1.48716 39.3415C1.14812 39.8898 0.9708 40.524 0.975898 41.17L0.972672 41.17Z" fill="#E0B650"/>
</svg>
