<svg width="57" height="33" viewBox="0 0 57 33" fill="none" xmlns="http://www.w3.org/2000/svg">
<path fill-rule="evenodd" clip-rule="evenodd" d="M18.9857 1.19238C19.2779 0.957118 19.6308 0.809556 20.0034 0.76682C20.376 0.724084 20.7531 0.787918 21.0909 0.950924C21.4283 1.11541 21.7127 1.37134 21.9119 1.68958C22.1111 2.00782 22.217 2.37558 22.2176 2.75107L22.2137 7.73299C34.9735 8.03178 44.521 11.2857 50.6261 17.4167C55.5226 22.3393 56.8286 27.9996 56.8286 30.5681C56.8322 31.0179 56.6831 31.4555 56.4058 31.8095C56.1284 32.1634 55.7393 32.4127 55.3019 32.5167C54.8646 32.6206 54.4049 32.5729 53.9982 32.3815C53.5914 32.1901 53.2616 31.8663 53.0627 31.463C52.5072 30.3393 51.7739 29.3128 50.8912 28.4232C44.252 21.7503 30.3967 24.0521 23.738 25.1583C23.1649 25.2539 22.6581 25.3378 22.2098 25.4076L22.2059 30.5802C22.2074 30.9558 22.1027 31.3242 21.9037 31.6427C21.7048 31.9612 21.4198 32.2168 21.0817 32.38C20.7436 32.5433 20.3662 32.6074 19.9933 32.565C19.6203 32.5226 19.2669 32.3754 18.974 32.1405L1.6685 18.2316C1.61068 18.1861 1.55597 18.1369 1.50474 18.0841C1.30738 17.8848 1.15399 17.6464 1.05445 17.3841C0.954917 17.1218 0.911436 16.8415 0.926866 16.5614C0.942295 16.2813 1.01628 16.0075 1.14402 15.7578C1.27175 15.508 1.45044 15.2878 1.6685 15.1115L18.9857 1.19238Z" fill="url(#paint0_linear_525_38979)"/>
<defs>
<linearGradient id="paint0_linear_525_38979" x1="28.8763" y1="0.753906" x2="28.8763" y2="32.5777" gradientUnits="userSpaceOnUse">
<stop stop-color="#B76D29"/>
<stop offset="1" stop-color="#85390F"/>
</linearGradient>
</defs>
</svg>
