<svg width="196" height="112" viewBox="0 0 196 112" fill="none" xmlns="http://www.w3.org/2000/svg">
<path d="M98.341 111.733C148.808 111.733 189.72 106.185 189.72 99.341C189.72 92.4972 148.808 86.9492 98.341 86.9492C47.8737 86.9492 6.96191 92.4972 6.96191 99.341C6.96191 106.185 47.8737 111.733 98.341 111.733Z" fill="#1D0A06"/>
<path d="M139.649 64.0241C139.649 70.6678 133.953 76.1035 126.9 76.1035H14.6957C7.64339 76.1035 1.94727 70.6678 1.94727 64.0241V40.6419C1.94727 33.9982 7.64339 28.5625 14.6957 28.5625H126.9C133.953 28.5625 139.649 33.9982 139.649 40.6419V64.0241Z" fill="#862529"/>
<path d="M131.15 48.8392C131.15 55.5692 125.454 61.0049 118.401 61.0049H83.5014C76.449 61.0049 70.7529 55.5692 70.7529 48.8392V13.1188C70.7529 6.38885 76.449 0.953125 83.5014 0.953125H118.401C125.454 0.953125 131.15 6.38885 131.15 13.1188V48.8392Z" fill="#497ECA"/>
<path d="M128.618 5.26938L147.334 26.322L153.573 30.6361L183.59 34.4324L187.026 40.3859C187.026 40.3859 191.004 43.6645 191.004 46.8569C191.004 50.1356 191.004 54.9674 191.004 54.9674L192.722 59.2815V70.6706L187.659 75.5023H12.7067H4.75022L0.229492 72.2237V65.1486L4.75022 62.4739H123.465V1.38672L128.618 5.26938Z" fill="#862529"/>
<path d="M59.7224 74.2044C59.0895 64.7135 50.7713 57.207 40.6449 57.207C30.5184 57.207 22.2003 64.7135 21.5674 74.2044H59.7224Z" fill="#181817"/>
<path d="M165.598 74.2044C164.965 64.7135 156.647 57.207 146.521 57.207C136.394 57.207 128.076 64.7135 127.443 74.2044H165.598Z" fill="#181817"/>
<path d="M35.4907 48.0593C35.4907 48.0593 52.9407 48.4907 60.1738 57.3777C67.407 66.2647 68.2207 65.4881 70.8428 65.4881C73.3744 65.4881 119.305 65.4881 119.305 65.4881C119.305 65.4881 129.522 51.2517 135.489 51.2517C141.457 51.2517 148.871 53.0636 146.972 51.2517C145.073 49.4398 126.99 47.6279 123.193 47.973C119.395 48.4044 61.1684 47.973 61.1684 47.973C61.1684 47.973 27.9862 36.2388 14.424 45.5572H5.11133V59.3622H17.2269C17.2269 59.3622 22.7422 48.0593 35.4907 48.0593Z" fill="#862529"/>
<path d="M29.9762 37.8814C29.9762 37.8814 51.2236 43.576 56.7389 43.576C62.2542 43.576 117.95 43.576 117.95 43.576C117.95 43.576 145.797 42.5406 151.493 48.0626C157.19 53.4983 165.236 56.173 169.938 56.173C174.64 56.173 187.75 56.173 187.75 56.173V46.8547L180.064 39.5207H155.653L145.616 28.1316L123.103 4.23171H83.9537C83.9537 4.23171 77.1726 3.45517 77.1726 9.49486C77.1726 15.6208 77.1726 28.9944 77.1726 28.9944V31.4103H16.7756C16.7756 31.4103 5.74504 31.4103 5.74504 36.6735L5.29297 39.9522H13.792C13.792 39.9522 22.743 37.8814 29.9762 37.8814Z" fill="#862529"/>
<path d="M2.30859 37.1043H71.2046V28.5625H17.227C17.227 28.5625 2.30859 28.5625 2.30859 37.1043Z" fill="#181817"/>
<path d="M91.6389 35.0356C91.6389 36.1572 90.6444 37.1063 89.469 37.1063H80.1563C78.9809 37.1063 77.9863 36.1572 77.9863 35.0356C77.9863 33.9139 78.9809 32.9648 80.1563 32.9648H89.469C90.6444 33.0511 91.6389 33.9139 91.6389 35.0356Z" fill="#1B3C5E"/>
<path d="M153.663 32.6169L158.364 37.1036H180.154L183.59 34.5151L153.572 30.7188L153.663 32.6169Z" fill="#6D97D5"/>
<path d="M28.7097 45.217C28.7097 47.8917 26.4493 50.0487 23.6464 50.0487H20.2107C17.4078 50.0487 15.1475 47.8917 15.1475 45.217C15.1475 42.5423 17.4078 40.3852 20.2107 40.3852H23.6464C26.4493 40.2989 28.7097 42.5423 28.7097 45.217Z" stroke="#1B3C5E" stroke-width="0.880824" stroke-miterlimit="10"/>
<path d="M77.9863 29.7744V11.224L79.1617 5.01172H120.12L140.734 26.2369L138.745 29.7744H77.9863Z" fill="#80C2DC"/>
<path d="M119.758 5.87371L139.649 26.4087L138.202 28.9971H78.8902V11.3094L79.8847 5.87371H119.758ZM120.571 4.23438H78.5285L77.2627 11.1369V30.6364H139.287L141.819 26.1498L120.571 4.23438Z" fill="#221F20"/>
<path d="M77.9863 29.7744V11.224L79.1617 5.01172H120.12L140.734 26.2369L138.745 29.7744H77.9863Z" fill="#80C2DC"/>
<path d="M119.758 5.87371L139.649 26.4087L138.202 28.9971H78.8902V11.3094L79.8847 5.87371H119.758ZM120.571 4.23438H78.5285L77.2627 11.1369V30.6364H139.287L141.819 26.1498L120.571 4.23438Z" fill="#221F20"/>
<path d="M119.758 5.87371L139.649 26.4087L138.202 28.9971H78.8902V11.3094L79.8847 5.87371H119.758ZM120.571 4.23438H78.5285L77.2627 11.1369V30.6364H139.287L141.819 26.1498L120.571 4.23438Z" fill="#221F20"/>
<path d="M139.197 26.9246C139.197 28.9091 137.479 30.5484 135.4 30.5484H131.602C129.523 30.5484 127.805 28.9091 127.805 26.9246C127.805 24.9401 129.523 23.3008 131.602 23.3008H135.4C137.479 23.3008 139.197 24.9401 139.197 26.9246Z" fill="#1B3C5E"/>
<path d="M65.5093 37.6215V11.1332V3.109L73.3754 0.261719H122.199L148.691 23.8165L180.969 31.8407L183.681 36.241L172.56 45.6457L167.135 56.6034C167.135 56.6034 153.573 41.0728 128.257 54.2738L115.599 66.9572H66.7751C66.7751 66.9572 51.1334 40.4688 24.5515 55.4817L20.302 60.0547H8.81934V38.7432L10.6276 37.0176L65.5093 37.6215Z" fill="#862529"/>
<path d="M167.858 69.2849H165.236L159.178 56.6016H134.766L127.533 67.8181H58.8179L48.8723 56.8604H29.8852L22.652 67.5593H9.08984" stroke="#D3D5D4" stroke-width="6.55724" stroke-miterlimit="10"/>
<path d="M167.858 66.699H166.14L160.082 54.0156H134.766L127.533 65.2322H58.8179L48.8723 54.2745H29.8852L22.652 64.9733H9.08984" stroke="#545454" stroke-width="3.74699" stroke-miterlimit="10"/>
<path d="M0.229492 63.0722H18.9453L24.0085 70.4061H99.6856H131.15H163.428H167.858V63.935C167.858 63.935 169.576 58.6719 172.921 58.6719H191.637L195.073 61.5192V68.8531L190.824 76.0144H148.6H12.9779H4.93105C4.93105 76.0144 2.1282 74.2025 0.229492 72.3906V67.3V63.0722V63.0722Z" fill="#181817"/>
<path d="M163.428 76.5359C163.428 85.2503 156.014 92.4117 146.792 92.4117C137.66 92.4117 130.155 85.3366 130.155 76.5359C130.155 67.8215 137.569 60.6602 146.792 60.6602C156.014 60.7464 163.428 67.8215 163.428 76.5359Z" fill="#545454"/>
<path d="M158.907 76.4484C158.907 82.8332 153.482 88.0101 146.791 88.0101C140.101 88.0101 134.676 82.8332 134.676 76.4484C134.676 70.0636 140.101 64.8867 146.791 64.8867C153.482 64.8867 158.907 70.0636 158.907 76.4484Z" fill="#E0E1E2"/>
<path d="M148.78 66.3516C150.769 66.3516 151.583 67.732 150.589 69.3714L148.599 72.6501C147.605 74.2894 145.977 74.2894 144.983 72.6501L142.994 69.3714C141.999 67.732 142.813 66.3516 144.802 66.3516H148.78Z" fill="#272626"/>
<path d="M144.983 74.1162L141.547 69.1119C141.547 69.1119 140.824 68.0765 140.01 68.5942C140.01 68.5942 138.744 69.457 138.473 70.2335C138.292 71.01 138.925 71.1826 138.925 71.1826L142.903 74.6339L143.355 74.979C143.446 74.979 144.621 75.6692 144.983 74.1162Z" fill="#272626"/>
<path d="M148.6 74.292L152.035 69.2876C152.035 69.2876 152.759 68.2523 153.572 68.77C153.572 68.77 154.838 69.6328 155.109 70.4093C155.29 71.1858 154.657 71.3584 154.657 71.3584L150.679 74.8096L150.227 75.1548C150.227 75.0685 148.961 75.7587 148.6 74.292Z" fill="#272626"/>
<path d="M157.551 79.0364C157.551 80.9346 156.104 81.7112 154.386 80.7621L150.951 78.8639C149.233 77.9148 149.233 76.3617 150.951 75.4126L154.386 73.5144C156.104 72.5653 157.551 73.3419 157.551 75.2401V79.0364Z" fill="#272626"/>
<path d="M144.893 87.1491C142.904 87.1491 142.09 85.7686 143.085 84.1293L145.074 80.8506C146.068 79.2113 147.696 79.2113 148.69 80.8506L150.679 84.1293C151.674 85.7686 150.86 87.1491 148.871 87.1491H144.893Z" fill="#272626"/>
<path d="M148.419 79.3829L151.855 84.3872C151.855 84.3872 152.578 85.4225 153.392 84.9049C153.392 84.9049 154.658 84.0421 154.929 83.2655C155.11 82.489 154.477 82.3164 154.477 82.3164L150.498 78.8652L150.046 78.52C149.956 78.52 148.69 77.8298 148.419 79.3829Z" fill="#272626"/>
<path d="M135.761 74.8104C135.761 72.9122 137.207 72.1357 138.925 73.0848L142.361 74.9829C144.079 75.932 144.079 77.4851 142.361 78.4342L138.925 80.3324C137.207 81.2815 135.761 80.5049 135.761 78.6067V74.8104Z" fill="#272626"/>
<path d="M144.351 78.4336L139.106 81.7123C139.106 81.7123 138.022 82.4025 138.564 83.1791C138.564 83.1791 139.468 84.387 140.282 84.6459C141.096 84.8184 141.276 84.2144 141.276 84.2144L144.893 80.4181L145.255 79.9867C145.164 79.9867 145.888 78.7787 144.351 78.4336Z" fill="#272626"/>
<path d="M148.6 76.7924C148.6 77.7415 147.786 78.6043 146.701 78.6043C145.707 78.6043 144.803 77.8278 144.803 76.7924C144.803 75.8433 145.616 74.9805 146.701 74.9805C147.786 74.9805 148.6 75.757 148.6 76.7924Z" fill="#E0E1E2" stroke="#545454" stroke-width="0.59268" stroke-miterlimit="10"/>
<path d="M145.978 74.0298C145.978 74.3749 145.706 74.6337 145.345 74.6337C144.983 74.6337 144.712 74.3749 144.712 74.0298C144.712 73.6846 144.983 73.4258 145.345 73.4258C145.706 73.4258 145.978 73.6846 145.978 74.0298Z" fill="#97999B"/>
<path d="M148.691 74.0298C148.691 74.3749 148.419 74.6337 148.058 74.6337C147.696 74.6337 147.425 74.3749 147.425 74.0298C147.425 73.6846 147.696 73.4258 148.058 73.4258C148.419 73.4258 148.691 73.6846 148.691 74.0298Z" fill="#97999B"/>
<path d="M150.137 75.7602C150.137 76.1054 149.866 76.3642 149.504 76.3642C149.142 76.3642 148.871 76.1054 148.871 75.7602C148.871 75.4151 149.142 75.1562 149.504 75.1562C149.866 75.2425 150.137 75.5014 150.137 75.7602Z" fill="#97999B"/>
<path d="M150.046 77.9126C150.046 78.2577 149.775 78.5165 149.413 78.5165C149.052 78.5165 148.78 78.2577 148.78 77.9126C148.78 77.5674 149.052 77.3086 149.413 77.3086C149.775 77.3086 150.046 77.5674 150.046 77.9126Z" fill="#97999B"/>
<path d="M148.509 79.4673C148.509 79.8124 148.238 80.0712 147.876 80.0712C147.514 80.0712 147.243 79.8124 147.243 79.4673C147.243 79.1221 147.514 78.8633 147.876 78.8633C148.238 78.8633 148.509 79.1221 148.509 79.4673Z" fill="#97999B"/>
<path d="M146.339 79.4673C146.339 79.8124 146.068 80.0712 145.706 80.0712C145.345 80.0712 145.073 79.8124 145.073 79.4673C145.073 79.1221 145.345 78.8633 145.706 78.8633C146.068 78.8633 146.339 79.1221 146.339 79.4673Z" fill="#97999B"/>
<path d="M144.621 78.0024C144.621 78.3475 144.35 78.6064 143.988 78.6064C143.627 78.6064 143.355 78.3475 143.355 78.0024C143.355 77.6573 143.627 77.3984 143.988 77.3984C144.35 77.3984 144.621 77.6573 144.621 78.0024Z" fill="#97999B"/>
<path d="M144.441 75.5844C144.441 75.9296 144.169 76.1884 143.808 76.1884C143.446 76.1884 143.175 75.9296 143.175 75.5844C143.175 75.2393 143.446 74.9805 143.808 74.9805C144.169 74.9805 144.441 75.3256 144.441 75.5844Z" fill="#97999B"/>
<path d="M47.3771 91.201C55.8659 87.8455 59.8969 78.5584 56.3807 70.4577C52.8645 62.357 43.1325 58.5103 34.6437 61.8658C26.1549 65.2212 22.1239 74.5083 25.6401 82.609C29.1564 90.7097 38.8884 94.5565 47.3771 91.201Z" fill="#545454"/>
<path d="M53.1227 76.4484C53.1227 82.8332 47.6978 88.0101 41.0072 88.0101C34.3165 88.0101 28.8916 82.8332 28.8916 76.4484C28.8916 70.0636 34.3165 64.8867 41.0072 64.8867C47.6978 64.8867 53.1227 70.0636 53.1227 76.4484Z" fill="#E0E1E2"/>
<path d="M42.9971 66.3516C44.9863 66.3516 45.8 67.732 44.8054 69.3714L42.8163 72.6501C41.8217 74.2894 40.1943 74.2894 39.1997 72.6501L37.2106 69.3714C36.216 67.732 37.0298 66.3516 39.0189 66.3516H42.9971Z" fill="#272626"/>
<path d="M39.1097 74.1162L35.674 69.1119C35.674 69.1119 34.9507 68.0765 34.1369 68.5942C34.1369 68.5942 32.8711 69.457 32.5999 70.2335C32.419 71.01 33.0519 71.1826 33.0519 71.1826L37.0302 74.6339L37.4823 74.979C37.5727 74.979 38.8385 75.6692 39.1097 74.1162Z" fill="#272626"/>
<path d="M42.8164 74.2919L46.2522 69.2876C46.2522 69.2876 46.9755 68.2523 47.7892 68.77C47.7892 68.77 49.055 69.6328 49.3263 70.4093C49.5071 71.1858 48.8742 71.3584 48.8742 71.3584L44.896 74.8096L44.4439 75.1548C44.3535 75.0685 43.0877 75.7587 42.8164 74.2919Z" fill="#272626"/>
<path d="M51.6768 79.0364C51.6768 80.9346 50.2301 81.7112 48.5123 80.7621L45.0765 78.8639C43.3586 77.9148 43.3586 76.3617 45.0765 75.4126L48.5123 73.5144C50.2301 72.5653 51.6768 73.3419 51.6768 75.2401V79.0364Z" fill="#272626"/>
<path d="M39.1097 87.1491C37.1206 87.1491 36.3069 85.7686 37.3014 84.1293L39.2905 80.8506C40.2851 79.2113 41.9126 79.2113 42.9071 80.8506L44.8962 84.1293C45.8908 85.7686 45.0771 87.1491 43.088 87.1491H39.1097Z" fill="#272626"/>
<path d="M42.5449 79.3829L45.9807 84.3872C45.9807 84.3872 46.704 85.4225 47.5177 84.9049C47.5177 84.9049 48.7835 84.042 49.0548 83.2655C49.2356 82.489 48.6027 82.3164 48.6027 82.3164L44.6244 78.8652L44.1724 78.52C44.082 78.52 42.9066 77.8298 42.5449 79.3829Z" fill="#272626"/>
<path d="M29.8857 74.8104C29.8857 72.9122 31.3324 72.1357 33.0503 73.0848L36.486 74.9829C38.2039 75.932 38.2039 77.4851 36.486 78.4342L33.0503 80.3324C31.3324 81.2815 29.8857 80.5049 29.8857 78.6068V74.8104Z" fill="#272626"/>
<path d="M38.4755 78.4336L33.2315 81.7123C33.2315 81.7123 32.1465 82.4025 32.689 83.1791C32.689 83.1791 33.5931 84.387 34.4069 84.6459C35.2206 84.8184 35.4014 84.2144 35.4014 84.2144L39.018 80.4181L39.3797 79.9867C39.2893 79.9867 40.0126 78.7787 38.4755 78.4336Z" fill="#272626"/>
<path d="M42.8159 76.7924C42.8159 77.7415 42.0022 78.6043 40.9173 78.6043C39.9227 78.6043 39.0186 77.8278 39.0186 76.7924C39.0186 75.8433 39.8323 74.9805 40.9173 74.9805C41.9118 74.9805 42.8159 75.757 42.8159 76.7924Z" fill="#E0E1E2" stroke="#545454" stroke-width="0.59268" stroke-miterlimit="10"/>
<path d="M40.1935 74.0298C40.1935 74.3749 39.9223 74.6337 39.5606 74.6337C39.199 74.6337 38.9277 74.3749 38.9277 74.0298C38.9277 73.6846 39.199 73.4258 39.5606 73.4258C39.9223 73.4258 40.1935 73.6846 40.1935 74.0298Z" fill="#97999B"/>
<path d="M42.9064 74.0298C42.9064 74.3749 42.6352 74.6337 42.2735 74.6337C41.9119 74.6337 41.6406 74.3749 41.6406 74.0298C41.6406 73.6846 41.9119 73.4258 42.2735 73.4258C42.6352 73.4258 42.9064 73.6846 42.9064 74.0298Z" fill="#97999B"/>
<path d="M44.3527 75.7602C44.3527 76.1054 44.0815 76.3642 43.7198 76.3642C43.3581 76.3642 43.0869 76.1054 43.0869 75.7602C43.0869 75.4151 43.3581 75.1562 43.7198 75.1562C44.0815 75.2425 44.3527 75.5014 44.3527 75.7602Z" fill="#97999B"/>
<path d="M44.2619 77.9126C44.2619 78.2577 43.9907 78.5165 43.629 78.5165C43.2673 78.5165 42.9961 78.2577 42.9961 77.9126C42.9961 77.5674 43.2673 77.3086 43.629 77.3086C43.9907 77.3086 44.2619 77.5674 44.2619 77.9126Z" fill="#97999B"/>
<path d="M42.7248 79.4673C42.7248 79.8124 42.4536 80.0712 42.0919 80.0712C41.7302 80.0712 41.459 79.8124 41.459 79.4673C41.459 79.1221 41.7302 78.8633 42.0919 78.8633C42.4536 78.8633 42.7248 79.1221 42.7248 79.4673Z" fill="#97999B"/>
<path d="M40.465 79.4673C40.465 79.8124 40.1938 80.0712 39.8321 80.0712C39.4705 80.0712 39.1992 79.8124 39.1992 79.4673C39.1992 79.1221 39.4705 78.8633 39.8321 78.8633C40.1938 78.8633 40.465 79.1221 40.465 79.4673Z" fill="#97999B"/>
<path d="M38.7472 78.0024C38.7472 78.3475 38.476 78.6064 38.1144 78.6064C37.7527 78.6064 37.4814 78.3475 37.4814 78.0024C37.4814 77.6573 37.7527 77.3984 38.1144 77.3984C38.476 77.3984 38.7472 77.6573 38.7472 78.0024Z" fill="#97999B"/>
<path d="M38.5666 75.5845C38.5666 75.9296 38.2953 76.1884 37.9337 76.1884C37.572 76.1884 37.3008 75.9296 37.3008 75.5845C37.3008 75.2393 37.572 74.9805 37.9337 74.9805C38.2953 74.9805 38.5666 75.3256 38.5666 75.5845Z" fill="#97999B"/>
<path d="M180.879 31.8397C180.879 31.8397 192 34.4281 192 39.001V59.3634L190.191 57.6378V46.7664L181.693 42.4523C181.783 42.5386 164.062 29.8552 180.879 31.8397Z" fill="#862529"/>
<path d="M9.72342 40.3823C9.72342 40.3823 2.94232 42.5394 7.01098 44.6964H56.739H184.676C184.676 44.6964 191.547 42.2805 187.027 40.4686C182.415 38.6567 147.606 29.1658 147.606 29.1658L120.572 4.23047H75.7261C75.7261 4.23047 69.8492 5.007 69.8492 7.16403C69.8492 9.32106 69.8492 37.1036 69.8492 37.1036C69.8492 37.1036 69.8492 39.9509 68.0409 39.9509C66.2326 39.9509 9.72342 40.3823 9.72342 40.3823Z" fill="#C69198"/>
<path d="M27.3545 49.8711H131.15C131.15 49.8711 125.002 54.1852 122.29 55.4794C119.577 56.7736 68.4932 55.4794 68.4932 55.4794C68.4932 55.4794 55.8351 49.8711 27.3545 49.8711Z" fill="#C69198"/>
<path d="M191.909 46.5974C191.909 48.4093 190.372 49.8761 188.473 49.8761C186.574 49.8761 185.037 48.4093 185.037 46.5974V40.1263C185.037 38.3144 186.574 36.8477 188.473 36.8477C190.372 36.8477 191.909 38.3144 191.909 40.1263V46.5974Z" fill="white"/>
<path d="M192.361 50.9076C192.361 52.7195 190.824 54.1863 188.925 54.1863H188.021C186.122 54.1863 184.585 52.7195 184.585 50.9076C184.585 49.0957 186.122 47.6289 188.021 47.6289H188.925C190.824 47.7152 192.361 49.0957 192.361 50.9076Z" fill="#F39331"/>
<path d="M72.1096 34.7772C72.1096 34.7772 70.3013 39.5227 75.7262 39.5227C81.1511 39.5227 176.991 39.5227 176.991 39.5227L144.441 33.0516L74.8221 30.8945L72.1096 34.7772Z" fill="#862529"/>
<path d="M19.2164 50.043H10.7174C10.7174 50.043 7.37207 51.1646 7.37207 53.2354C7.37207 55.3061 7.37207 59.3614 7.37207 59.3614H14.8765C14.9669 59.3614 24.2796 52.0274 19.2164 50.043Z" fill="#C69198"/>
<path d="M63.972 4.57422L56.0607 18.5949L48.1494 32.6156H63.972V4.57422Z" fill="#181817" stroke="#181817" stroke-width="3.74699" stroke-miterlimit="10" stroke-linecap="round" stroke-linejoin="round"/>
<path d="M68.0411 17.9492C68.0411 17.9492 68.0411 30.8914 80.6991 31.3228L93.3572 36.4997C93.3572 36.4997 93.8093 39.0881 70.3015 41.6766H3.84668L6.55912 38.2253H60.3558L65.5095 37.6214L68.0411 36.9311V17.9492Z" fill="#862529"/>
<path d="M77.1733 27.2653C77.1733 27.2653 75.0938 30.1125 75.0938 32.5284C75.0938 34.9443 75.0938 58.4991 75.0938 58.4991C75.0938 58.4991 75.9075 66.6095 77.6253 66.6095C79.3432 66.6095 119.126 66.6095 119.126 66.6095C119.126 66.6095 123.737 47.5414 143.809 47.5414L145.708 45.7294V30.8891L140.916 24.418" stroke="#51151A" stroke-width="0.874267" stroke-miterlimit="10"/>
<path d="M74.2793 29.1678V6.64844H121.476L142.09 25.1126L134.315 29.1678H74.2793Z" fill="#80C2DC"/>
<path d="M121.204 7.42416L140.733 24.853L134.133 28.3042H75.2731V7.42416H121.204ZM121.837 5.87109H73.4648V30.0299H134.495L143.536 25.2844L121.837 5.87109Z" fill="#221F20"/>
<path d="M121.113 7.59672L140.462 24.9393L134.043 28.3042H75.2731V7.59672H121.113ZM121.837 5.87109H73.4648V30.0299H134.495L143.536 25.2844L121.837 5.87109Z" fill="#181817"/>
<path d="M144.441 26.5775C144.441 29.1659 142.181 31.323 139.468 31.323H134.947C132.235 31.323 129.975 29.1659 129.975 26.5775C129.975 23.9891 132.235 21.832 134.947 21.832H139.468C142.181 21.832 144.441 23.9028 144.441 26.5775Z" fill="#862529"/>
<path d="M191.908 45.7295C191.908 46.7648 191.004 47.7139 189.829 47.7139C188.744 47.7139 187.749 46.8511 187.749 45.7295V40.1212C187.749 39.0858 188.653 38.1367 189.829 38.1367C190.914 38.1367 191.908 38.9995 191.908 40.1212V45.7295Z" fill="#FEF97D"/>
<path d="M7.01067 39.0898H0.681641V60.6602H7.01067V39.0898Z" fill="#51151A"/>
<path d="M3.48474 40.6406H0.953125V58.5009H3.48474V40.6406Z" fill="#CD3B27"/>
<path d="M25.0934 47.1115C25.0934 50.1313 22.5618 52.5472 19.3973 52.5472C16.2328 52.5472 13.7012 50.1313 13.7012 47.1115C13.7012 44.0917 16.2328 41.6758 19.3973 41.6758C22.5618 41.6758 25.0934 44.0917 25.0934 47.1115Z" stroke="#51151A" stroke-width="0.874267" stroke-miterlimit="10"/>
<path d="M92.0006 34.7725C92.0006 35.7216 91.1868 36.4981 90.1923 36.4981H81.9645C80.97 36.4981 80.1562 35.7216 80.1562 34.7725C80.1562 33.8234 80.97 33.0469 81.9645 33.0469H90.1923C91.1868 33.0469 92.0006 33.8234 92.0006 34.7725Z" fill="#51151A"/>
</svg>
