<svg width="196" height="112" viewBox="0 0 196 112" fill="none" xmlns="http://www.w3.org/2000/svg">
<path d="M92.3698 111.734C137.02 111.734 173.216 106.262 173.216 99.5118C173.216 92.7614 137.02 87.2891 92.3698 87.2891C47.7196 87.2891 11.5234 92.7614 11.5234 99.5118C11.5234 106.262 47.7196 111.734 92.3698 111.734Z" fill="#1D0A06"/>
<path d="M136.5 65.1311C136.5 72.0245 130.933 77.5923 124.041 77.5923H14.3803C7.48786 77.5923 1.9209 72.0245 1.9209 65.1311V41.0041C1.9209 34.1107 7.48786 28.543 14.3803 28.543H124.041C130.933 28.543 136.5 34.1107 136.5 41.0041V65.1311Z" fill="#497ECA"/>
<path d="M128.193 49.311C128.193 56.2044 122.627 61.7722 115.734 61.7722H81.6254C74.8213 61.7722 69.166 56.2044 69.166 49.311V12.7229C69.166 5.82948 74.733 0.261719 81.6254 0.261719H115.734C122.627 0.261719 128.193 5.82948 128.193 12.7229V49.311V49.311Z" fill="#497ECA"/>
<path d="M125.72 4.67912L144.011 26.3315L150.108 30.7504L183.863 34.639L187.221 40.737C187.221 40.737 191.109 44.0953 191.109 47.3653C191.109 50.7236 191.109 55.6727 191.109 55.6727L192.788 60.0916V71.7573L187.84 76.7065H12.4365H4.66041L0.242188 73.3481V66.1012L4.66041 63.4499H120.683V0.878906L125.72 4.67912Z" fill="#497ECA"/>
<path d="M39.388 53.1992C27.2821 53.1992 17.4736 63.0091 17.4736 75.1167C17.4736 75.5586 17.4736 76.0889 17.562 76.5308H21.3617C21.3617 76.1773 21.3617 75.7354 21.3617 75.3819C21.2733 67.0744 29.4028 57.2646 39.388 57.2646C49.3732 57.2646 57.5027 65.3953 57.5027 75.3819C57.5027 75.7354 57.5027 76.1773 57.5027 76.5308H61.214C61.214 76.0889 61.3024 75.5586 61.3024 75.1167C61.3024 63.0091 51.4939 53.1992 39.388 53.1992Z" fill="#6D97D5"/>
<path d="M142.774 53.1992C130.668 53.1992 120.859 63.0091 120.859 75.1167C120.859 75.5586 120.859 76.0889 120.948 76.5308H124.747C124.747 76.1773 124.747 75.7354 124.747 75.3819C124.747 67.1628 132.877 57.2646 142.862 57.2646C152.847 57.2646 160.977 65.3953 160.977 75.3819C160.977 75.7354 160.977 76.1773 160.977 76.5308H164.777C164.777 76.0889 164.865 75.5586 164.865 75.1167C164.688 63.0091 154.88 53.1992 142.774 53.1992Z" fill="#6D97D5"/>
<path d="M58.3855 75.2931C57.7669 65.5716 49.6374 57.8828 39.7406 57.8828C29.8438 57.8828 21.7143 65.5716 21.0957 75.2931H58.3855Z" fill="#181817"/>
<path d="M161.86 75.2931C161.242 65.5716 153.112 57.8828 143.215 57.8828C133.318 57.8828 125.189 65.5716 124.57 75.2931H161.86Z" fill="#181817"/>
<path d="M0.242188 63.8939H18.5336L23.482 71.406H97.4431H128.194H159.74H168.488V64.7777C168.488 64.7777 170.167 59.3867 173.436 59.3867H191.728L195.086 62.3032V69.6385L190.933 77.1505H145.248H12.7016H4.83714C4.83714 77.1505 2.09784 75.2946 0.242188 73.4387V68.2244V63.8939Z" fill="#181817"/>
<path d="M143.481 93.9408C152.46 93.9408 159.74 86.6603 159.74 77.6794C159.74 68.6984 152.46 61.418 143.481 61.418C134.501 61.418 127.222 68.6984 127.222 77.6794C127.222 86.6603 134.501 93.9408 143.481 93.9408Z" fill="#545454"/>
<path d="M155.322 77.5886C155.322 84.1285 150.02 89.4312 143.481 89.4312C136.942 89.4312 131.641 84.1285 131.641 77.5886C131.641 71.0487 136.942 65.7461 143.481 65.7461C150.02 65.7461 155.322 71.0487 155.322 77.5886Z" fill="#E0E1E2"/>
<path d="M145.426 67.25C147.37 67.25 148.165 68.664 147.193 70.3432L145.249 73.7015C144.277 75.3807 142.686 75.3807 141.714 73.7015L139.77 70.3432C138.798 68.664 139.594 67.25 141.538 67.25H145.426Z" fill="#272626"/>
<path d="M141.714 75.2929L138.356 70.167C138.356 70.167 137.65 69.1065 136.854 69.6368C136.854 69.6368 135.617 70.5205 135.352 71.3159C135.175 72.1113 135.794 72.2881 135.794 72.2881L139.682 75.8232L140.124 76.1767C140.212 76.0883 141.361 76.7953 141.714 75.2929Z" fill="#272626"/>
<path d="M145.249 75.3827L148.607 70.2569C148.607 70.2569 149.314 69.1963 150.109 69.7266C150.109 69.7266 151.346 70.6104 151.611 71.4058C151.788 72.2012 151.169 72.3779 151.169 72.3779L147.281 75.913L146.84 76.2665C146.84 76.1781 145.602 76.8851 145.249 75.3827Z" fill="#272626"/>
<path d="M153.997 80.239C153.997 82.1833 152.583 82.9787 150.904 82.0066L147.546 80.0623C145.867 79.0901 145.867 77.4993 147.546 76.5272L150.904 74.5829C152.583 73.6107 153.997 74.4061 153.997 76.3504V80.239Z" fill="#272626"/>
<path d="M141.626 88.5507C139.682 88.5507 138.887 87.1367 139.859 85.4575L141.803 82.0992C142.775 80.4201 144.366 80.4201 145.338 82.0992L147.282 85.4575C148.254 87.1367 147.459 88.5507 145.515 88.5507H141.626Z" fill="#272626"/>
<path d="M145.073 80.595L148.431 85.7209C148.431 85.7209 149.138 86.7814 149.933 86.2512C149.933 86.2512 151.17 85.3674 151.436 84.572C151.612 83.7766 150.994 83.5999 150.994 83.5999L147.106 80.0648L146.664 79.7113C146.575 79.7113 145.338 79.0042 145.073 80.595Z" fill="#272626"/>
<path d="M132.701 75.909C132.701 73.9647 134.115 73.1693 135.794 74.1415L139.152 76.0858C140.831 77.0579 140.831 78.6487 139.152 79.6209L135.794 81.5651C134.115 82.5373 132.701 81.7419 132.701 79.7976V75.909Z" fill="#272626"/>
<path d="M141.095 79.6211L135.97 82.9794C135.97 82.9794 134.909 83.6864 135.439 84.4818C135.439 84.4818 136.323 85.7191 137.118 85.9843C137.914 86.161 138.09 85.5424 138.09 85.5424L141.625 81.6538L141.978 81.2119C141.89 81.2119 142.597 79.9746 141.095 79.6211Z" fill="#272626"/>
<path d="M145.249 77.9419C145.249 78.914 144.454 79.7978 143.394 79.7978C142.422 79.7978 141.538 79.0024 141.538 77.9419C141.538 76.9697 142.333 76.0859 143.394 76.0859C144.454 76.0859 145.249 76.8813 145.249 77.9419Z" fill="#E0E1E2" stroke="#545454" stroke-width="0.59268" stroke-miterlimit="10"/>
<path d="M142.686 75.1147C142.686 75.4682 142.421 75.7334 142.068 75.7334C141.714 75.7334 141.449 75.4682 141.449 75.1147C141.449 74.7612 141.714 74.4961 142.068 74.4961C142.421 74.4961 142.686 74.7612 142.686 75.1147Z" fill="#97999B"/>
<path d="M145.425 75.1147C145.425 75.4682 145.16 75.7334 144.806 75.7334C144.453 75.7334 144.188 75.4682 144.188 75.1147C144.188 74.7612 144.453 74.4961 144.806 74.4961C145.071 74.4961 145.425 74.7612 145.425 75.1147Z" fill="#97999B"/>
<path d="M146.751 76.8804C146.751 77.2339 146.486 77.499 146.132 77.499C145.779 77.499 145.514 77.2339 145.514 76.8804C145.514 76.5268 145.779 76.2617 146.132 76.2617C146.486 76.3501 146.751 76.6152 146.751 76.8804Z" fill="#97999B"/>
<path d="M146.663 79.0913C146.663 79.4448 146.398 79.7099 146.044 79.7099C145.691 79.7099 145.426 79.4448 145.426 79.0913C145.426 78.7378 145.691 78.4727 146.044 78.4727C146.398 78.4727 146.663 78.7378 146.663 79.0913Z" fill="#97999B"/>
<path d="M145.161 80.685C145.161 81.0386 144.896 81.3037 144.542 81.3037C144.189 81.3037 143.924 81.0386 143.924 80.685C143.924 80.3315 144.189 80.0664 144.542 80.0664C144.896 80.0664 145.161 80.3315 145.161 80.685Z" fill="#97999B"/>
<path d="M143.039 80.685C143.039 81.0386 142.774 81.3037 142.42 81.3037C142.067 81.3037 141.802 81.0386 141.802 80.685C141.802 80.3315 142.067 80.0664 142.42 80.0664C142.774 80.0664 143.039 80.3315 143.039 80.685Z" fill="#97999B"/>
<path d="M141.36 79.1811C141.36 79.5347 141.095 79.7998 140.742 79.7998C140.388 79.7998 140.123 79.5347 140.123 79.1811C140.123 78.8276 140.388 78.5625 140.742 78.5625C141.095 78.5625 141.36 78.8276 141.36 79.1811Z" fill="#97999B"/>
<path d="M141.184 76.7046C141.184 77.0581 140.919 77.3232 140.566 77.3232C140.212 77.3232 139.947 77.0581 139.947 76.7046C139.947 76.3511 140.212 76.0859 140.566 76.0859C140.919 76.0859 141.184 76.4394 141.184 76.7046Z" fill="#97999B"/>
<path d="M40.095 93.9408C49.0746 93.9408 56.354 86.6603 56.354 77.6794C56.354 68.6984 49.0746 61.418 40.095 61.418C31.1154 61.418 23.8359 68.6984 23.8359 77.6794C23.8359 86.6603 31.1154 93.9408 40.095 93.9408Z" fill="#545454"/>
<path d="M51.9356 77.5886C51.9356 84.1285 46.6337 89.4312 40.0947 89.4312C33.5558 89.4312 28.2539 84.1285 28.2539 77.5886C28.2539 71.0487 33.5558 65.7461 40.0947 65.7461C46.6337 65.7461 51.9356 71.0487 51.9356 77.5886Z" fill="#E0E1E2"/>
<path d="M42.0399 67.25C43.9839 67.25 44.7792 68.664 43.8072 70.3432L41.8632 73.7015C40.8912 75.3807 39.3006 75.3807 38.3286 73.7015L36.3846 70.3432C35.4126 68.664 36.2078 67.25 38.1519 67.25H42.0399Z" fill="#272626"/>
<path d="M38.2397 75.2929L34.8819 70.167C34.8819 70.167 34.1749 69.1065 33.3797 69.6368C33.3797 69.6368 32.1426 70.5205 31.8775 71.3159C31.7007 72.1113 32.3193 72.2881 32.3193 72.2881L36.2073 75.8232L36.6491 76.1767C36.7375 76.0883 37.9746 76.7953 38.2397 75.2929Z" fill="#272626"/>
<path d="M41.8623 75.3827L45.2202 70.2569C45.2202 70.2569 45.9271 69.1963 46.7223 69.7266C46.7223 69.7266 47.9595 70.6104 48.2245 71.4058C48.4013 72.2012 47.7827 72.3779 47.7827 72.3779L43.8947 75.913L43.4529 76.2665C43.3645 76.1781 42.1274 76.8851 41.8623 75.3827Z" fill="#272626"/>
<path d="M50.5213 80.239C50.5213 82.1833 49.1075 82.9787 47.4286 82.0066L44.0707 80.0623C42.3918 79.0901 42.3918 77.4993 44.0707 76.5272L47.4286 74.5829C49.1075 73.6107 50.5213 74.4061 50.5213 76.3504V80.239Z" fill="#272626"/>
<path d="M38.2388 88.5507C36.2948 88.5507 35.4995 87.1367 36.4715 85.4575L38.4155 82.0992C39.3875 80.4201 40.9781 80.4201 41.9501 82.0992L43.8941 85.4575C44.8661 87.1367 44.0708 88.5507 42.1268 88.5507H38.2388Z" fill="#272626"/>
<path d="M41.5967 80.595L44.9545 85.7209C44.9545 85.7209 45.6614 86.7814 46.4567 86.2512C46.4567 86.2512 47.6938 85.3674 47.9589 84.572C48.1356 83.7766 47.5171 83.5999 47.5171 83.5999L43.6291 80.0648L43.1872 79.7113C43.0989 79.7113 41.9501 79.0042 41.5967 80.595Z" fill="#272626"/>
<path d="M29.2266 75.909C29.2266 73.9647 30.6404 73.1693 32.3193 74.1415L35.6772 76.0858C37.3561 77.0579 37.3561 78.6487 35.6772 79.6209L32.3193 81.5651C30.6404 82.5373 29.2266 81.7419 29.2266 79.7976V75.909Z" fill="#272626"/>
<path d="M37.6212 79.6211L32.496 82.9794C32.496 82.9794 31.4356 83.6864 31.9658 84.4818C31.9658 84.4818 32.8495 85.7191 33.6448 85.9843C34.44 86.161 34.6168 85.5424 34.6168 85.5424L38.1513 81.6538L38.5048 81.2119C38.4164 81.2119 39.1233 79.9746 37.6212 79.6211Z" fill="#272626"/>
<path d="M41.8627 77.9419C41.8627 78.914 41.0674 79.7978 40.007 79.7978C39.035 79.7978 38.1514 79.0024 38.1514 77.9419C38.1514 76.9697 38.9466 76.0859 40.007 76.0859C40.979 76.0859 41.8627 76.8813 41.8627 77.9419Z" fill="#E0E1E2" stroke="#545454" stroke-width="0.59268" stroke-miterlimit="10"/>
<path d="M39.2996 75.1147C39.2996 75.4682 39.0345 75.7334 38.6811 75.7334C38.3276 75.7334 38.0625 75.4682 38.0625 75.1147C38.0625 74.7612 38.3276 74.4961 38.6811 74.4961C39.0345 74.4961 39.2996 74.7612 39.2996 75.1147Z" fill="#97999B"/>
<path d="M41.951 75.1147C41.951 75.4682 41.6859 75.7334 41.3324 75.7334C40.979 75.7334 40.7139 75.4682 40.7139 75.1147C40.7139 74.7612 40.979 74.4961 41.3324 74.4961C41.6859 74.4961 41.951 74.7612 41.951 75.1147Z" fill="#97999B"/>
<path d="M43.364 76.8804C43.364 77.2339 43.099 77.499 42.7455 77.499C42.392 77.499 42.127 77.2339 42.127 76.8804C42.127 76.5268 42.392 76.2617 42.7455 76.2617C43.099 76.3501 43.364 76.6152 43.364 76.8804Z" fill="#97999B"/>
<path d="M43.2762 79.0913C43.2762 79.4448 43.0111 79.7099 42.6576 79.7099C42.3042 79.7099 42.0391 79.4448 42.0391 79.0913C42.0391 78.7378 42.3042 78.4727 42.6576 78.4727C43.0111 78.4727 43.2762 78.7378 43.2762 79.0913Z" fill="#97999B"/>
<path d="M41.7742 80.685C41.7742 81.0386 41.5091 81.3037 41.1557 81.3037C40.8022 81.3037 40.5371 81.0386 40.5371 80.685C40.5371 80.3315 40.8022 80.0664 41.1557 80.0664C41.5091 80.0664 41.7742 80.3315 41.7742 80.685Z" fill="#97999B"/>
<path d="M39.5652 80.685C39.5652 81.0386 39.3001 81.3037 38.9467 81.3037C38.5932 81.3037 38.3281 81.0386 38.3281 80.685C38.3281 80.3315 38.5932 80.0664 38.9467 80.0664C39.3001 80.0664 39.5652 80.3315 39.5652 80.685Z" fill="#97999B"/>
<path d="M37.8865 79.1811C37.8865 79.5347 37.6214 79.7998 37.268 79.7998C36.9145 79.7998 36.6494 79.5347 36.6494 79.1811C36.6494 78.8276 36.9145 78.5625 37.268 78.5625C37.6214 78.5625 37.8865 78.8276 37.8865 79.1811Z" fill="#97999B"/>
<path d="M37.7088 76.7046C37.7088 77.0581 37.4437 77.3232 37.0902 77.3232C36.7368 77.3232 36.4717 77.0581 36.4717 76.7046C36.4717 76.3511 36.7368 76.0859 37.0902 76.0859C37.4437 76.0859 37.7088 76.4394 37.7088 76.7046Z" fill="#97999B"/>
<path d="M34.7041 48.516C34.7041 48.516 51.7584 48.9579 58.8276 58.0608C65.8967 67.1636 66.692 66.3682 69.2546 66.3682C71.7288 66.3682 116.618 66.3682 116.618 66.3682C116.618 66.3682 126.603 51.786 132.435 51.786C138.267 51.786 145.513 53.6419 143.657 51.786C141.802 49.9301 124.129 48.0742 120.418 48.4277C116.706 48.8696 59.7996 48.4277 59.7996 48.4277C59.7996 48.4277 27.3698 36.4084 14.1152 45.9531H4.83691V60.0934H16.8545C16.8545 60.0934 22.2447 48.516 34.7041 48.516Z" fill="#305E94"/>
<path d="M29.3139 38.0902C29.3139 38.0902 50.0796 43.9231 55.4698 43.9231C60.86 43.9231 115.293 43.9231 115.293 43.9231C115.293 43.9231 142.509 42.8626 148.076 48.5187C153.643 54.0864 165.925 56.8261 170.52 56.8261C175.115 56.8261 187.928 56.8261 187.928 56.8261V47.2814L180.417 39.7694H152.14L142.332 28.1036L120.329 3.62312H82.0675C82.0675 3.62312 75.4402 2.82773 75.4402 9.01413C75.4402 15.2889 75.4402 28.9874 75.4402 28.9874V31.4619H16.4127C16.4127 31.4619 5.63225 31.4619 5.63225 36.8529L5.19043 40.2112H13.4967C13.4967 40.2112 22.2448 38.0902 29.3139 38.0902Z" fill="#305E94"/>
<path d="M2.27441 37.2923H69.6081V28.543H16.8545C16.8545 28.543 2.27441 28.543 2.27441 37.2923Z" fill="#D3D5D4"/>
<path d="M89.5794 35.1679C89.5794 36.3168 88.6074 37.289 87.4586 37.289H78.3571C77.2083 37.289 76.2363 36.3168 76.2363 35.1679C76.2363 34.019 77.2083 33.0469 78.3571 33.0469H87.4586C88.6074 33.1353 89.5794 34.019 89.5794 35.1679Z" fill="#1B3C5E"/>
<path d="M150.197 32.6982L154.792 37.2938H180.506L183.864 34.6425L150.108 30.7539L150.197 32.6982Z" fill="#6D97D5"/>
<path d="M28.0769 45.6C28.0769 48.3397 25.8678 50.5491 23.1285 50.5491H19.7707C17.0314 50.5491 14.8223 48.3397 14.8223 45.6C14.8223 42.8603 17.0314 40.6509 19.7707 40.6509H23.1285C25.8678 40.5625 28.0769 42.8603 28.0769 45.6Z" stroke="#1B3C5E" stroke-width="0.880824" stroke-miterlimit="10"/>
<path d="M75.4406 28.9829C75.4406 28.9829 73.4082 31.8993 73.4082 34.3739C73.4082 36.8484 73.4082 60.9754 73.4082 60.9754C73.4082 60.9754 74.2035 69.2828 75.8824 69.2828C77.5613 69.2828 116.442 69.2828 116.442 69.2828C116.442 69.2828 120.948 49.7515 140.565 49.7515L142.421 47.8956V32.6947L137.738 26.0664" stroke="#1B3C5E" stroke-width="0.874267" stroke-miterlimit="10"/>
<path d="M76.2354 29.7783V10.7772L77.3841 4.41406H117.413L137.56 26.1548L135.616 29.7783H76.2354Z" fill="#80C2DC"/>
<path d="M117.06 5.30026L136.5 26.334L135.086 28.9853H77.1194V10.7796L78.0914 5.21188H117.06V5.30026ZM117.855 3.62109H76.6775L75.4404 10.6913V30.6645H136.058L138.533 26.0689L117.855 3.62109Z" fill="#221F20"/>
<path d="M76.2354 29.7783V10.7772L77.3841 4.41406H117.413L137.56 26.1548L135.616 29.7783H76.2354Z" fill="#80C2DC"/>
<path d="M117.06 5.30026L136.5 26.334L135.086 28.9853H77.1194V10.7796L78.0914 5.21188H117.06V5.30026ZM117.855 3.62109H76.6775L75.4404 10.6913V30.6645H136.058L138.533 26.0689L117.855 3.62109Z" fill="#221F20"/>
<path d="M117.06 5.30026L136.5 26.334L135.086 28.9853H77.1194V10.7796L78.0914 5.21188H117.06V5.30026ZM117.855 3.62109H76.6775L75.4404 10.6913V30.6645H136.058L138.533 26.0689L117.855 3.62109Z" fill="#221F20"/>
<path d="M136.059 26.8603C136.059 28.8929 134.38 30.5721 132.347 30.5721H128.636C126.604 30.5721 124.925 28.8929 124.925 26.8603C124.925 24.8276 126.604 23.1484 128.636 23.1484H132.347C134.38 23.1484 136.059 24.8276 136.059 26.8603Z" fill="#1B3C5E"/>
<path d="M188.017 47.2766L183.422 45.951L178.297 40.8251L183.864 36.4062L188.812 44.3602L188.017 47.2766Z" fill="white"/>
<path d="M188.016 50.5508H178.473L181.389 55.1464H188.016V50.5508Z" fill="#F39331"/>
<path d="M7.31149 56.5568C7.31149 58.2359 5.89766 59.65 4.21873 59.65C2.53981 59.65 1.12598 58.2359 1.12598 56.5568V41.1791C1.12598 39.5 2.53981 38.0859 4.21873 38.0859C5.89766 38.0859 7.31149 39.5 7.31149 41.1791V56.5568Z" fill="#51151A"/>
<path d="M5.19086 54.7024C5.19086 55.5861 4.48394 56.3815 3.51193 56.3815C2.62829 56.3815 1.83301 55.6745 1.83301 54.7024V42.6831C1.83301 41.7993 2.53992 41.0039 3.51193 41.0039C4.39558 41.0039 5.19086 41.7109 5.19086 42.6831V54.7024Z" fill="#CD3B27"/>
</svg>
