<svg width="192" height="113" viewBox="0 0 192 113" fill="none" xmlns="http://www.w3.org/2000/svg">
<path d="M90.1814 112.261C134.674 112.261 170.742 106.599 170.742 99.6148C170.742 92.6305 134.674 86.9688 90.1814 86.9688C45.6892 86.9688 9.62109 92.6305 9.62109 99.6148C9.62109 106.599 45.6892 112.261 90.1814 112.261Z" fill="#1D0A06"/>
<path d="M46.9216 0.34067C46.9216 0.34067 35.2107 -0.804004 26.4055 5.62378L7.03411 23.2341C7.03411 23.2341 3.33594 27.9889 3.33594 37.9388V66.8198L12.3172 69.3733L31.0723 38.5552L59.2489 5.09546L46.9216 0.34067Z" fill="#F5CA31"/>
<path d="M122.118 5.53265L140.344 27.0173L146.42 31.4199L180.056 35.2942L183.402 41.3697C183.402 41.3697 187.276 44.7157 187.276 47.9736C187.276 51.3196 187.276 56.2505 187.276 56.2505L188.949 60.6531V72.2759L184.018 77.2068H9.23507H6.85767L2.45508 73.8609V66.6406L6.85767 63.911H117.187V1.57031L122.118 5.53265Z" fill="#497ECA"/>
<path d="M124.671 50.0016C124.671 56.8696 119.124 62.4169 112.256 62.4169H78.2678C71.3998 62.4169 65.8525 56.8696 65.8525 50.0016V13.5481C65.8525 6.68008 71.3998 1.13281 78.2678 1.13281H112.256C119.124 1.13281 124.671 6.68008 124.671 13.5481V50.0016Z" fill="#497ECA"/>
<path d="M132.948 65.6722C132.948 72.5402 127.401 78.0875 120.533 78.0875H11.1722C4.30419 78.0875 4.04004 72.5402 4.04004 65.6722V41.6341C4.04004 34.766 4.30419 29.2188 11.1722 29.2188H120.445C127.313 29.2188 132.86 34.766 132.86 41.6341V65.6722H132.948Z" fill="#F5CA31"/>
<path d="M41.5501 0.78125H119.036C119.036 0.78125 125.464 3.33475 130.218 6.85682C134.885 10.3789 154.256 25.6119 154.256 25.6119L178.911 33.2724C178.911 33.2724 189.477 42.0776 189.477 44.455C189.477 46.8324 189.477 62.8578 189.477 62.8578L181.288 70.2541L177.15 73.1599H7.56211L4.04004 65.6755V37.9391L41.5501 0.78125Z" fill="#F5CA31"/>
<path d="M36.0908 54.6719C24.0277 54.6719 14.2539 64.4456 14.2539 76.5087C14.2539 76.949 14.2539 77.4773 14.342 77.9176H18.1282C18.1282 77.5653 18.1282 77.1251 18.1282 76.7729C18.1282 68.5841 26.229 58.7223 36.1788 58.7223C46.1287 58.7223 54.2294 66.823 54.2294 76.7729C54.2294 77.1251 54.2294 77.5653 54.2294 77.9176H58.0157C58.0157 77.4773 58.1037 76.949 58.1037 76.5087C57.9276 64.4456 48.1539 54.6719 36.0908 54.6719Z" fill="#181817"/>
<path d="M139.2 54.6719C127.137 54.6719 117.363 64.4456 117.363 76.5087C117.363 76.949 117.363 77.4773 117.451 77.9176H121.238C121.238 77.5653 121.238 77.1251 121.238 76.7729C121.238 68.5841 129.338 58.7223 139.288 58.7223C149.238 58.7223 157.339 66.823 157.339 76.7729C157.339 77.1251 157.339 77.5653 157.339 77.9176H161.125C161.125 77.4773 161.213 76.949 161.213 76.5087C161.037 64.4456 151.263 54.6719 139.2 54.6719Z" fill="#181817"/>
<path d="M55.11 75.8892C54.4937 66.2035 46.3929 58.543 36.5311 58.543C26.6693 58.543 18.5685 66.2035 17.9521 75.8892H55.11Z" fill="#181817"/>
<path d="M158.219 75.8892C157.603 66.2035 149.502 58.543 139.64 58.543C129.779 58.543 121.678 66.2035 121.062 75.8892H158.219Z" fill="#181817"/>
<path d="M2.36719 64.4399H18.9209L20.2417 71.9243H93.9411H124.583H156.018H164.735V65.3204C164.735 65.3204 166.408 59.9492 169.666 59.9492H187.98L191.326 62.8549V70.3393L187.188 77.8237H141.665H9.58744H6.94588C6.94588 77.8237 4.21628 75.9747 2.36719 74.1256V68.9305V64.4399Z" fill="#181817"/>
<path d="M31.5118 49.122C31.5118 49.122 48.5058 49.5622 55.5499 58.6316C62.5941 67.7009 63.3865 66.9084 65.94 66.9084C68.4055 66.9084 113.136 66.9084 113.136 66.9084C113.136 66.9084 123.086 52.3799 128.897 52.3799C134.709 52.3799 141.929 54.229 140.08 52.3799C138.231 50.5308 120.62 48.6817 116.922 49.0339C113.224 49.4742 56.5185 49.0339 56.5185 49.0339C56.5185 49.0339 24.2035 37.0589 10.9957 46.5685H6.94531V60.6568H13.6373C13.7253 60.7448 19.0965 49.122 31.5118 49.122Z" fill="#F8E692"/>
<path d="M26.1418 38.8187C26.1418 38.8187 46.8339 44.6301 52.2051 44.6301C57.5763 44.6301 111.816 44.6301 111.816 44.6301C111.816 44.6301 138.936 43.5735 144.483 49.2088C150.031 54.7561 162.27 57.4857 166.849 57.4857C171.427 57.4857 184.195 57.4857 184.195 57.4857V47.9761L176.71 40.4917H148.534L138.672 28.8688L116.747 4.47847H78.7087C78.7087 4.47847 72.1048 3.68601 72.1048 9.84963C72.1048 16.1013 72.1048 29.7493 72.1048 29.7493V32.2148H13.2862C13.2862 32.2148 7.82698 32.2148 7.82698 37.586L7.38672 40.9319H10.3805C10.3805 40.8439 19.0976 38.8187 26.1418 38.8187Z" fill="#F8E692"/>
<path d="M4.48047 37.9359H66.2929V29.2188H13.7259C13.7259 29.3068 4.48047 29.3068 4.48047 37.9359Z" fill="#D3D5D4"/>
<path d="M146.596 33.4489L151.087 37.9395H176.798L180.144 35.386L146.42 31.5117L146.596 33.4489Z" fill="#F2A931"/>
<path d="M24.8211 46.2161C24.8211 48.9457 22.6198 51.147 19.8902 51.147H16.5442C13.8146 51.147 11.6133 48.9457 11.6133 46.2161C11.6133 43.4864 13.8146 41.2852 16.5442 41.2852H19.8902C22.6198 41.2852 24.8211 43.4864 24.8211 46.2161Z" stroke="#1B3C5E" stroke-width="0.880824" stroke-miterlimit="10"/>
<path d="M113.577 6.0654L132.948 27.0217L131.539 29.6633H73.6894V11.6127L74.658 6.0654H113.577ZM114.281 4.48047H73.3372L72.1045 11.5246V31.3363H132.508L134.974 26.7576L114.281 4.48047Z" fill="#221F20"/>
<path d="M132.509 27.6396C132.509 29.6648 130.836 31.3378 128.81 31.3378H125.112C123.087 31.3378 121.414 29.6648 121.414 27.6396C121.414 25.6144 123.087 23.9414 125.112 23.9414H128.81C130.836 23.9414 132.509 25.5263 132.509 27.6396Z" fill="#1B3C5E"/>
<path d="M6.77007 57.2231C6.77007 58.8961 5.36124 60.305 3.68826 60.305C2.01527 60.305 0.606445 58.8961 0.606445 57.2231V41.9021C0.606445 40.2291 2.01527 38.8203 3.68826 38.8203C5.36124 38.8203 6.77007 40.2291 6.77007 41.9021V57.2231Z" fill="#51151A"/>
<path d="M3.24805 38.556V36.6188C3.24805 36.6188 36.6197 1.39811 41.5506 0.781751C46.4815 0.165389 116.483 0.781751 116.483 0.781751L130.131 18.3921L132.596 37.3233L3.24805 38.556Z" fill="#F5CA31"/>
<path d="M95.5263 35.9136C95.5263 37.0582 94.5577 38.0268 93.413 38.0268H84.3437C83.199 38.0268 82.2305 37.0582 82.2305 35.9136C82.2305 34.7689 83.199 33.8884 84.3437 33.8884H93.413C94.5577 33.8003 95.5263 34.7689 95.5263 35.9136Z" fill="#1B3C5E"/>
<path d="M52.9091 35.9136C52.9091 37.0582 51.9405 38.0268 50.7959 38.0268H41.7265C40.5819 38.0268 39.6133 37.0582 39.6133 35.9136C39.6133 34.7689 40.5819 33.8884 41.7265 33.8884H50.7959C52.0286 33.8003 52.9091 34.7689 52.9091 35.9136Z" fill="#1B3C5E"/>
<path d="M34.4176 31.8636C30.015 29.6623 23.9395 25.6119 23.9395 23.5867C23.9395 21.6496 33.6252 12.6683 43.0467 5.00781H108.469C109.35 5.18392 118.771 6.8569 123.79 11.7878L135.413 26.8447L132.155 31.8636H34.4176V31.8636Z" fill="#80C2DC"/>
<path d="M108.382 5.79978C109.526 5.97588 118.42 7.64886 123.086 12.3156L134.357 26.8442L131.627 30.9826H34.6823C29.5752 28.4291 24.9085 24.907 24.8204 23.5862C25.3488 21.473 34.7703 12.8439 43.3994 5.79978H108.382ZM108.47 4.21484H42.783C42.783 4.21484 23.1475 20.0642 23.1475 23.5862C23.1475 27.1083 34.33 32.6556 34.33 32.6556H132.684L136.47 26.7561L124.407 11.1709C118.948 5.79978 108.47 4.21484 108.47 4.21484Z" fill="#221F20"/>
<path d="M108.382 5.79978C109.526 5.97588 118.42 7.64886 123.086 12.3156L134.357 26.8442L131.627 30.9826H34.6823C29.5752 28.4291 24.9085 24.907 24.8204 23.5862C25.3488 21.473 34.7703 12.8439 43.3994 5.79978H108.382ZM108.47 4.21484H42.783C42.783 4.21484 23.1475 20.0642 23.1475 23.5862C23.1475 27.1083 34.33 32.6556 34.33 32.6556H132.684L136.47 26.7561L124.407 11.1709C118.948 5.79978 108.47 4.21484 108.47 4.21484Z" fill="#221F20"/>
<path d="M45.4245 5.09536L36.003 32.3914L25.7009 26.2278C25.7009 26.2278 23.9399 23.5862 26.3173 20.6805L42.783 4.21484L45.4245 5.09536Z" fill="#221F20"/>
<path d="M73.3373 4.48047L79.1487 31.5124L72.0165 31.3363L68.3184 4.74463L73.3373 4.48047Z" fill="#221F20"/>
<path d="M125.023 31.3337L131.715 22.9688L134.973 26.755L132.508 31.3337H125.023Z" fill="#221F20"/>
<path d="M123.527 2.98047L122.206 5.53397L146.42 26.4903L154.345 25.6098C154.345 25.6098 128.81 3.59683 123.527 2.98047Z" fill="#80C2DC"/>
<path d="M75.0977 30.2773C75.0977 30.2773 79.7644 37.3214 80.6449 41.1076C81.5254 44.8939 83.5506 62.5042 83.5506 62.5042C83.5506 62.5042 84.6953 69.2842 87.9532 69.5484C91.2111 69.8125 113.488 69.5484 113.488 69.5484C113.488 69.5484 123.174 50.177 140.52 51.0575C140.52 51.0575 142.017 50.177 142.281 49.2965C142.545 48.4159 142.281 38.1139 142.281 38.1139L134.092 26.0508" stroke="#221F20" stroke-width="0.880824" stroke-miterlimit="10"/>
<path d="M32.8332 30.2773C32.8332 30.2773 31.6885 33.5353 31.9527 34.4158C32.2168 35.2963 31.9527 49.1204 31.9527 49.1204C31.9527 49.1204 52.2046 47.8877 59.5129 66.6428C59.5129 66.6428 60.3934 69.2843 63.035 69.2843C65.6765 69.2843 86.809 69.2843 86.809 69.2843" stroke="#221F20" stroke-width="0.880824" stroke-miterlimit="10"/>
<path d="M136.117 28.6959C136.117 31.2494 134.092 33.2746 131.538 33.2746H124.23C121.677 33.2746 119.651 31.2494 119.651 28.6959C119.651 26.1424 121.677 24.1172 124.23 24.1172H131.538C134.092 24.1172 136.117 26.1424 136.117 28.6959Z" fill="#F5CA31"/>
<path d="M12.2289 31.5966C12.2289 33.6218 10.5559 35.2948 8.53069 35.2948H8.26654C6.24134 35.2948 4.56836 33.6218 4.56836 31.5966C4.56836 29.5714 6.24134 27.8984 8.26654 27.8984H8.53069C10.6439 27.9865 12.2289 29.5714 12.2289 31.5966Z" fill="#F5CA31"/>
<path d="M4.6565 55.9903C4.6565 57.223 3.68793 58.1916 2.4552 58.1916C1.22248 58.1916 0.253906 57.223 0.253906 55.9903V42.1661C0.253906 40.9334 1.22248 39.9648 2.4552 39.9648C3.68793 39.9648 4.6565 40.9334 4.6565 42.1661V55.9903Z" fill="#CD3B27"/>
<path d="M28.9592 20.9414C28.9592 20.9414 18.6571 22.4383 26.934 26.4887L28.9592 20.9414Z" fill="#221F20"/>
<path d="M186.924 77.1216C186.924 77.826 186.308 78.4423 185.603 78.4423H7.73875C7.03433 78.4423 6.41797 77.826 6.41797 77.1216C6.41797 76.4171 7.03433 75.8008 7.73875 75.8008H185.603C186.308 75.8008 186.924 76.4171 186.924 77.1216Z" fill="#221F20"/>
<path d="M156.105 78.2679C156.105 87.1612 148.885 94.4695 139.904 94.4695C131.01 94.4695 123.702 87.2492 123.702 78.2679C123.702 69.3747 130.922 62.0664 139.904 62.0664C148.797 62.0664 156.105 69.2867 156.105 78.2679Z" fill="#545454"/>
<path d="M151.548 80.0165C152.592 73.5841 148.224 67.5234 141.791 66.4795C135.359 65.4356 129.298 69.8038 128.254 76.2361C127.211 82.6684 131.579 88.7291 138.011 89.773C144.443 90.8169 150.504 86.4488 151.548 80.0165Z" fill="#E0E1E2"/>
<path d="M141.841 67.8828C143.778 67.8828 144.57 69.2916 143.602 70.9646L141.665 74.3106C140.696 75.9836 139.111 75.9836 138.143 74.3106L136.205 70.9646C135.237 69.2916 136.029 67.8828 137.966 67.8828H141.841Z" fill="#272626"/>
<path d="M138.143 75.8067L134.797 70.6997C134.797 70.6997 134.092 69.6431 133.3 70.1714C133.3 70.1714 132.067 71.0519 131.803 71.8443C131.627 72.6368 132.243 72.8129 132.243 72.8129L136.118 76.335L136.558 76.6872C136.558 76.6872 137.791 77.3036 138.143 75.8067Z" fill="#272626"/>
<path d="M141.665 75.8926L145.011 70.7856C145.011 70.7856 145.715 69.729 146.508 70.2573C146.508 70.2573 147.741 71.1378 148.005 71.9303C148.181 72.7228 147.565 72.8989 147.565 72.8989L143.69 76.4209L143.25 76.7731C143.162 76.7731 142.017 77.3895 141.665 75.8926Z" fill="#272626"/>
<path d="M150.382 80.7323C150.382 82.6694 148.973 83.4619 147.3 82.4933L143.954 80.5562C142.281 79.5876 142.281 78.0027 143.954 77.0341L147.3 75.097C148.973 74.1284 150.382 74.9209 150.382 76.858V80.7323Z" fill="#272626"/>
<path d="M138.056 89.1005C136.119 89.1005 135.327 87.6917 136.295 86.0187L138.232 82.6727C139.201 80.9997 140.786 80.9997 141.754 82.6727L143.692 86.0187C144.66 87.6917 143.868 89.1005 141.931 89.1005H138.056Z" fill="#272626"/>
<path d="M141.402 81.084L144.748 86.191C144.748 86.191 145.453 87.2476 146.245 86.7193C146.245 86.7193 147.478 85.8388 147.742 85.0463C147.918 84.2539 147.302 84.0778 147.302 84.0778L143.428 80.5557L142.987 80.2035C142.987 80.2916 141.755 79.5871 141.402 81.084Z" fill="#272626"/>
<path d="M129.162 76.5064C129.162 74.5693 130.571 73.7768 132.244 74.7454L135.59 76.6826C137.263 77.6511 137.263 79.2361 135.59 80.2046L132.244 82.1418C130.571 83.1104 129.162 82.3179 129.162 80.3807V76.5064Z" fill="#272626"/>
<path d="M137.44 80.2031L132.332 83.5491C132.332 83.5491 131.276 84.2535 131.804 85.046C131.804 85.046 132.685 86.2787 133.477 86.5429C134.27 86.719 134.446 86.1026 134.446 86.1026L137.968 82.2283L138.32 81.788C138.232 81.7 138.936 80.5553 137.44 80.2031Z" fill="#272626"/>
<path d="M141.665 78.4428C141.665 79.4114 140.873 80.2919 139.816 80.2919C138.847 80.2919 137.967 79.4995 137.967 78.4428C137.967 77.4743 138.759 76.5938 139.816 76.5938C140.784 76.6818 141.665 77.4743 141.665 78.4428Z" fill="#E0E1E2" stroke="#545454" stroke-width="0.59268" stroke-miterlimit="10"/>
<path d="M139.112 75.714C139.112 76.0662 138.847 76.3304 138.495 76.3304C138.143 76.3304 137.879 76.0662 137.879 75.714C137.879 75.3618 138.143 75.0977 138.495 75.0977C138.847 75.0977 139.112 75.3618 139.112 75.714Z" fill="#97999B"/>
<path d="M141.753 75.714C141.753 76.0662 141.489 76.3304 141.137 76.3304C140.785 76.3304 140.521 76.0662 140.521 75.714C140.521 75.3618 140.785 75.0977 141.137 75.0977C141.489 75.0977 141.753 75.3618 141.753 75.714Z" fill="#97999B"/>
<path d="M143.162 77.4757C143.162 77.8279 142.898 78.0921 142.546 78.0921C142.194 78.0921 141.93 77.8279 141.93 77.4757C141.93 77.1235 142.194 76.8594 142.546 76.8594C142.898 76.8594 143.162 77.1235 143.162 77.4757Z" fill="#97999B"/>
<path d="M143.074 79.589C143.074 79.9412 142.809 80.2054 142.457 80.2054C142.105 80.2054 141.841 79.9412 141.841 79.589C141.841 79.2368 142.105 78.9727 142.457 78.9727C142.809 78.9727 143.074 79.3248 143.074 79.589Z" fill="#97999B"/>
<path d="M141.576 81.175C141.576 81.5272 141.312 81.7913 140.96 81.7913C140.608 81.7913 140.344 81.5272 140.344 81.175C140.344 80.8228 140.608 80.5586 140.96 80.5586C141.312 80.5586 141.576 80.9108 141.576 81.175Z" fill="#97999B"/>
<path d="M139.463 81.175C139.463 81.5272 139.199 81.7913 138.847 81.7913C138.495 81.7913 138.23 81.5272 138.23 81.175C138.23 80.8228 138.495 80.5586 138.847 80.5586C139.199 80.5586 139.463 80.9108 139.463 81.175Z" fill="#97999B"/>
<path d="M137.79 79.6788C137.79 80.0311 137.526 80.2952 137.174 80.2952C136.822 80.2952 136.558 80.0311 136.558 79.6788C136.558 79.3266 136.822 79.0625 137.174 79.0625C137.526 79.1506 137.79 79.4147 137.79 79.6788Z" fill="#97999B"/>
<path d="M137.615 77.3C137.615 77.6522 137.35 77.9163 136.998 77.9163C136.646 77.9163 136.382 77.6522 136.382 77.3C136.382 76.9478 136.646 76.6836 136.998 76.6836C137.262 76.6836 137.615 76.9478 137.615 77.3Z" fill="#97999B"/>
<path d="M36.7963 94.4695C45.7441 94.4695 52.9978 87.2158 52.9978 78.2679C52.9978 69.3201 45.7441 62.0664 36.7963 62.0664C27.8484 62.0664 20.5947 69.3201 20.5947 78.2679C20.5947 87.2158 27.8484 94.4695 36.7963 94.4695Z" fill="#545454"/>
<path d="M48.5959 78.088C48.5959 84.6039 43.3128 89.887 36.797 89.887C30.2812 89.887 24.998 84.6039 24.998 78.088C24.998 71.5722 30.2812 66.2891 36.797 66.2891C43.3128 66.3771 48.5959 71.5722 48.5959 78.088Z" fill="#E0E1E2"/>
<path d="M38.7333 67.875C40.6704 67.875 41.4629 69.2838 40.4943 70.9568L38.5572 74.3028C37.5886 75.9758 36.0037 75.9758 35.0351 74.3028L33.0979 70.9568C32.1294 69.2838 32.9218 67.875 34.859 67.875H38.7333Z" fill="#272626"/>
<path d="M35.0354 75.7989L31.6895 70.6919C31.6895 70.6919 30.9851 69.6352 30.1926 70.1636C30.1926 70.1636 28.9599 71.0441 28.6957 71.8365C28.5196 72.629 29.136 72.8051 29.136 72.8051L33.0102 76.3272L33.4505 76.6794C33.5386 76.6794 34.6832 77.2957 35.0354 75.7989Z" fill="#272626"/>
<path d="M38.5576 75.8848L41.9036 70.7778C41.9036 70.7778 42.608 69.7212 43.4005 70.2495C43.4005 70.2495 44.6332 71.13 44.8973 71.9225C45.0735 72.7149 44.4571 72.8911 44.4571 72.8911L40.5828 76.4131L40.1425 76.7653C40.1425 76.7653 38.9098 77.3817 38.5576 75.8848Z" fill="#272626"/>
<path d="M47.2753 80.7245C47.2753 82.6616 45.8665 83.4541 44.1935 82.4855L40.8475 80.5484C39.1745 79.5798 39.1745 77.9949 40.8475 77.0263L44.1935 75.0892C45.8665 74.1206 47.2753 74.9131 47.2753 76.8502V80.7245Z" fill="#272626"/>
<path d="M34.9479 89.0966C33.0107 89.0966 32.2182 87.6878 33.1868 86.0148L35.124 82.6688C36.0925 80.9958 37.6775 80.9958 38.646 82.6688L40.5832 86.0148C41.5517 87.6878 40.7593 89.0966 38.8221 89.0966H34.9479Z" fill="#272626"/>
<path d="M38.3818 81.0801L41.7278 86.1871C41.7278 86.1871 42.4322 87.2437 43.2247 86.7154C43.2247 86.7154 44.4574 85.8349 44.7216 85.0424C44.8977 84.25 44.2813 84.0739 44.2813 84.0739L40.407 80.5518L39.9668 80.1996C39.8787 80.2876 38.646 79.5832 38.3818 81.0801Z" fill="#272626"/>
<path d="M26.0547 76.5025C26.0547 74.5654 27.4635 73.7729 29.1365 74.7415L32.4825 76.6787C34.1555 77.6472 34.1555 79.2322 32.4825 80.2007L29.1365 82.1379C27.4635 83.1065 26.0547 82.314 26.0547 80.3768V76.5025Z" fill="#272626"/>
<path d="M34.3321 80.1992L29.2251 83.5452C29.2251 83.5452 28.1684 84.2496 28.6968 85.0421C28.6968 85.0421 29.5773 86.2748 30.3697 86.539C31.1622 86.7151 31.3383 86.0987 31.3383 86.0987L34.8604 82.2244L35.2126 81.7841C35.2126 81.6961 35.917 80.5514 34.3321 80.1992Z" fill="#272626"/>
<path d="M38.5576 78.4389C38.5576 79.4075 37.7651 80.288 36.7085 80.288C35.7399 80.288 34.8594 79.4956 34.8594 78.4389C34.8594 77.4704 35.6518 76.5898 36.7085 76.5898C37.7651 76.6779 38.5576 77.4704 38.5576 78.4389Z" fill="#E0E1E2" stroke="#545454" stroke-width="0.59268" stroke-miterlimit="10"/>
<path d="M36.0042 75.7101C36.0042 76.0623 35.7401 76.3265 35.3878 76.3265C35.0356 76.3265 34.7715 76.0623 34.7715 75.7101C34.7715 75.3579 35.0356 75.0938 35.3878 75.0938C35.7401 75.0938 36.0042 75.3579 36.0042 75.7101Z" fill="#97999B"/>
<path d="M38.6468 75.7101C38.6468 76.0623 38.3826 76.3265 38.0304 76.3265C37.6782 76.3265 37.4141 76.0623 37.4141 75.7101C37.4141 75.3579 37.6782 75.0938 38.0304 75.0938C38.3826 75.0938 38.6468 75.3579 38.6468 75.7101Z" fill="#97999B"/>
<path d="M40.055 77.4718C40.055 77.824 39.7908 78.0882 39.4386 78.0882C39.0864 78.0882 38.8223 77.824 38.8223 77.4718C38.8223 77.1196 39.0864 76.8555 39.4386 76.8555C39.7908 76.8555 40.055 77.1196 40.055 77.4718Z" fill="#97999B"/>
<path d="M39.9661 79.5851C39.9661 79.9373 39.702 80.2015 39.3498 80.2015C38.9976 80.2015 38.7334 79.9373 38.7334 79.5851C38.7334 79.2329 38.9976 78.9688 39.3498 78.9688C39.702 79.0568 39.9661 79.3209 39.9661 79.5851Z" fill="#97999B"/>
<path d="M38.47 81.1672C38.47 81.5194 38.2059 81.7835 37.8537 81.7835C37.5015 81.7835 37.2373 81.5194 37.2373 81.1672C37.2373 80.8149 37.5015 80.5508 37.8537 80.5508C38.2059 80.5508 38.47 80.903 38.47 81.1672Z" fill="#97999B"/>
<path d="M36.3567 81.1672C36.3567 81.5194 36.0926 81.7835 35.7404 81.7835C35.3882 81.7835 35.124 81.5194 35.124 81.1672C35.124 80.8149 35.3882 80.5508 35.7404 80.5508C36.0926 80.5508 36.3567 80.903 36.3567 81.1672Z" fill="#97999B"/>
<path d="M34.6839 79.671C34.6839 80.0232 34.4197 80.2874 34.0675 80.2874C33.7153 80.2874 33.4512 80.0232 33.4512 79.671C33.4512 79.3188 33.7153 79.0547 34.0675 79.0547C34.4197 79.1427 34.6839 79.4069 34.6839 79.671Z" fill="#97999B"/>
<path d="M34.5081 77.2922C34.5081 77.6444 34.244 77.9085 33.8918 77.9085C33.5395 77.9085 33.2754 77.6444 33.2754 77.2922C33.2754 76.9399 33.5395 76.6758 33.8918 76.6758C34.244 76.6758 34.5081 76.9399 34.5081 77.2922Z" fill="#97999B"/>
<path d="M181.288 36.793C181.288 36.793 176.27 40.315 176.27 43.2208C176.27 46.1265 176.27 46.1265 176.27 46.1265L179.527 49.0322H188.068V43.7491C188.068 43.8371 183.666 37.9376 181.288 36.793Z" fill="white"/>
<path d="M188.069 43.8398H176.358V46.1292L179.528 49.123H188.069V43.8398Z" fill="#F39331"/>
<path d="M186.923 52.6452H176.621C176.621 52.6452 163.413 52.3811 161.652 62.0668L162.533 64.4442C162.533 64.4442 166.671 60.0416 172.483 60.0416H185.426L186.923 52.6452Z" fill="#F5CA31"/>
<path d="M120.005 2.54099C120.005 3.06931 119.564 3.59761 118.948 3.59761H41.1982C40.6699 3.59761 40.1416 3.15736 40.1416 2.54099C40.1416 2.01268 40.5819 1.48438 41.1982 1.48438H118.948C119.476 1.57243 120.005 2.01268 120.005 2.54099Z" fill="#F8E692"/>
<path d="M6.94531 23.2321L11.9643 23.4963L32.8326 5.26953L26.4048 5.53369C26.3167 5.62174 10.7315 19.1817 6.94531 23.2321Z" fill="#221F20"/>
<path d="M7.826 37.5872C7.826 37.5872 7.56184 29.4864 9.67508 28.2537C11.7003 27.109 34.5938 4.74382 34.5938 4.74382C34.5938 4.74382 39.2605 4.12745 37.2353 6.2407C35.2101 8.26589 19.3608 22.9705 19.6249 27.109C19.8891 31.2474 31.0717 38.5557 31.0717 38.5557C31.0717 38.5557 8.88262 41.9017 7.826 37.5872Z" fill="#F8E692"/>
<path d="M175.302 64.9684C175.302 64.9684 175.742 74.2139 179.704 72.4528C183.667 70.6918 186.396 69.9874 187.189 64.9684C187.189 64.9684 179.704 60.5658 175.302 64.9684Z" fill="#545454"/>
<path d="M179.88 72.4562C180.998 72.4562 181.905 70.1697 181.905 67.3492C181.905 64.5287 180.998 62.2422 179.88 62.2422C178.761 62.2422 177.854 64.5287 177.854 67.3492C177.854 70.1697 178.761 72.4562 179.88 72.4562Z" fill="white"/>
</svg>
