<svg width="207" height="112" viewBox="0 0 207 112" fill="none" xmlns="http://www.w3.org/2000/svg">
<path d="M95.8966 111.734C137.953 111.734 172.046 106.165 172.046 99.2965C172.046 92.4277 137.953 86.8594 95.8966 86.8594C53.8404 86.8594 19.7471 92.4277 19.7471 99.2965C19.7471 106.165 53.8404 111.734 95.8966 111.734Z" fill="#1D0A06"/>
<path d="M21.399 43.1437C21.399 48.9551 16.6442 53.7099 10.8328 53.7099C5.0214 53.7099 0.266602 48.9551 0.266602 43.1437V26.4139C0.266602 20.6025 5.0214 15.8477 10.8328 15.8477C16.6442 15.8477 21.399 20.6025 21.399 26.4139V43.1437Z" fill="#181817"/>
<path d="M151.452 28.4375L192.484 33.7206L195.214 39.444L186.057 50.7146L158.496 46.6642L151.452 28.4375Z" fill="#F0AD7D"/>
<path d="M124.419 6.16119C124.419 9.41911 121.777 12.0607 118.52 12.0607H31.6124C28.3545 12.0607 25.7129 9.41911 25.7129 6.16119C25.7129 2.90327 28.3545 0.261719 31.6124 0.261719H118.52C121.777 0.261719 124.419 2.90327 124.419 6.16119Z" fill="#181817"/>
<path d="M82.7708 14.1758H14.3545V54.5035H82.7708V14.1758Z" fill="#E05A2C"/>
<path d="M148.017 69.8246C148.017 76.6926 142.47 82.2399 135.602 82.2399H26.3294C19.4613 82.2399 13.9141 76.6926 13.9141 69.8246V45.7864C13.9141 38.9184 19.4613 33.3711 26.3294 33.3711H135.602C142.47 33.3711 148.017 38.9184 148.017 45.7864V69.8246V69.8246Z" fill="#E05A2C"/>
<path d="M139.74 54.0659C139.74 60.9339 134.193 66.4812 127.325 66.4812H93.3372C86.4691 66.4812 80.9219 60.9339 80.9219 54.0659V17.7005C80.9219 10.8324 86.4691 5.28516 93.3372 5.28516H127.325C134.193 5.28516 139.74 10.8324 139.74 17.7005V54.0659Z" fill="#E05A2C"/>
<path d="M137.275 9.68678L155.502 31.1714L161.577 35.574L195.213 39.4483L198.559 45.5239C198.559 45.5239 202.433 48.8698 202.433 52.1278C202.433 55.3857 202.433 60.4046 202.433 60.4046L204.106 64.8072V76.4301L199.175 81.361H24.3924H16.6438L12.2412 78.015V70.7947L16.6438 68.0651H132.256V5.8125L137.275 9.68678Z" fill="#E05A2C"/>
<path d="M51.248 58.8203C39.1849 58.8203 29.4111 68.5941 29.4111 80.6572C29.4111 81.0974 29.4111 81.6257 29.4992 82.066H33.2854C33.2854 81.7138 33.2854 81.2735 33.2854 80.9213C33.2854 72.7325 41.3862 62.8707 51.336 62.8707C61.2859 62.8707 69.3867 70.9715 69.3867 80.9213C69.3867 81.2735 69.3867 81.7138 69.3867 82.066H73.1729C73.1729 81.6257 73.2609 81.0974 73.2609 80.6572C73.0848 68.5941 63.3111 58.8203 51.248 58.8203Z" fill="#181817"/>
<path d="M154.356 58.8203C142.293 58.8203 132.52 68.5941 132.52 80.6572C132.52 81.0974 132.52 81.6257 132.608 82.066H136.394C136.394 81.7138 136.394 81.2735 136.394 80.9213C136.394 72.7325 144.495 62.8707 154.444 62.8707C164.394 62.8707 172.495 70.9715 172.495 80.9213C172.495 81.2735 172.495 81.7138 172.495 82.066H176.281C176.281 81.6257 176.369 81.0974 176.369 80.6572C176.193 68.5941 166.419 58.8203 154.356 58.8203Z" fill="#181817"/>
<path d="M70.2672 80.0415C69.6509 70.3558 61.5501 62.6953 51.6883 62.6953C41.8265 62.6953 33.7257 70.3558 33.1094 80.0415H70.2672Z" fill="#181817"/>
<path d="M173.288 80.0415C172.671 70.3558 164.571 62.6953 154.709 62.6953C144.847 62.6953 136.746 70.3558 136.13 80.0415H173.288Z" fill="#181817"/>
<path d="M12.2412 68.5922H30.4679L35.3988 76.0766H109.098H139.74H171.175H179.892V69.4727C179.892 69.4727 181.565 64.1016 184.823 64.1016H203.05L206.395 67.0073V74.4917L202.257 81.9761H156.734H24.6565H16.8199C16.8199 81.9761 14.0903 80.127 12.2412 78.2779V73.0828V68.5922V68.5922Z" fill="#181817"/>
<path d="M14.3545 14.176H91.9282V5.54688H28.795C28.795 5.54688 14.3545 5.54688 14.3545 14.176Z" fill="#E05A2C"/>
<path d="M126.18 7.30859H28.795C28.795 7.30859 16.9961 7.30859 16.9961 11.9753V37.2462L19.3735 34.8688V19.6359C19.3735 19.6359 19.9899 11.9753 26.6818 11.0948H129.438C129.438 11.0948 134.369 9.06963 126.18 7.30859Z" fill="#F0AD7D"/>
<path d="M101.262 40.0659C101.262 41.2106 100.293 42.1792 99.1484 42.1792H90.0791C88.9344 42.1792 87.9658 41.2106 87.9658 40.0659C87.9658 38.9212 88.9344 38.0407 90.0791 38.0407H99.1484C100.293 37.9527 101.262 38.9212 101.262 40.0659Z" fill="#1B3C5E"/>
<path d="M88.0547 34.6086V15.6775L89.1113 9.42578H129.087L149.075 31.0865L147.137 34.6086H88.0547Z" fill="#80C2DC"/>
<path d="M128.646 10.216L148.018 31.1723L146.609 33.8138H88.8468V15.7632L89.8154 10.216H128.646ZM129.439 8.54297H88.4065L87.1738 15.5871V35.4868H147.577L150.043 30.9081L129.439 8.54297Z" fill="#221F20"/>
<path d="M88.0547 34.6086V15.6775L89.1113 9.42578H129.087L149.075 31.0865L147.137 34.6086H88.0547Z" fill="#80C2DC"/>
<path d="M128.646 10.216L148.018 31.1723L146.609 33.8138H88.8468V15.7632L89.8154 10.216H128.646ZM129.439 8.54297H88.4065L87.1738 15.5871V35.4868H147.577L150.043 30.9081L129.439 8.54297Z" fill="#221F20"/>
<path d="M128.646 10.216L148.018 31.1723L146.609 33.8138H88.8468V15.7632L89.8154 10.216H128.646ZM129.439 8.54297H88.4065L87.1738 15.5871V35.4868H147.577L150.043 30.9081L129.439 8.54297Z" fill="#221F20"/>
<path d="M147.665 31.7874C147.665 33.8126 145.992 35.4856 143.967 35.4856H140.268C138.243 35.4856 136.57 33.8126 136.57 31.7874C136.57 29.7622 138.243 28.0893 140.268 28.0893H143.967C145.992 28.0012 147.665 29.6742 147.665 31.7874Z" fill="#1B3C5E"/>
<path d="M19.2857 61.3755C19.2857 63.0485 17.8769 64.4573 16.2039 64.4573C14.5309 64.4573 13.1221 63.0485 13.1221 61.3755V46.0545C13.1221 44.3815 14.5309 42.9727 16.2039 42.9727C17.8769 42.9727 19.2857 44.3815 19.2857 46.0545V61.3755Z" fill="#51151A"/>
<path d="M17.26 59.5252C17.26 60.4057 16.5556 61.1981 15.5871 61.1981C14.7065 61.1981 13.9141 60.4937 13.9141 59.5252V47.462C13.9141 46.5815 14.6185 45.7891 15.5871 45.7891C16.4676 45.7891 17.26 46.4935 17.26 47.462V59.5252Z" fill="#CD3B27"/>
<path d="M22.8955 37.2461H153.917C153.917 37.2461 161.489 39.0071 160.256 41.3845C159.112 43.7619 61.0219 40.7682 61.0219 43.1456C61.0219 45.523 68.0661 51.3344 77.4876 53.0954C86.9092 54.8565 132.696 57.7622 132.696 57.7622C132.696 57.7622 106.809 67.8001 69.2988 56.6175C31.7887 45.4349 36.4555 53.0954 31.7007 58.9949C27.0339 64.8944 23.5119 53.7118 23.5119 53.7118L22.8955 37.2461Z" fill="#F0AD7D"/>
<path d="M39.9773 50.3684C39.9773 53.098 37.776 55.2993 35.0464 55.2993H31.7004C28.9708 55.2993 26.7695 53.098 26.7695 50.3684C26.7695 47.6388 28.9708 45.4375 31.7004 45.4375H35.0464C37.776 45.4375 39.9773 47.6388 39.9773 50.3684Z" stroke="#1B3C5E" stroke-width="0.880824" stroke-miterlimit="10"/>
<path d="M87.1736 33.812C87.1736 33.812 85.1484 36.7177 85.1484 39.1831C85.1484 41.6486 85.1484 65.6867 85.1484 65.6867C85.1484 65.6867 85.9409 73.9636 87.6139 73.9636C89.2869 73.9636 128.03 73.9636 128.03 73.9636C128.03 73.9636 132.52 54.5041 152.068 54.5041L153.917 52.6551V37.5101L149.25 30.9062" stroke="#1B3C5E" stroke-width="0.874267" stroke-miterlimit="10"/>
<path d="M80.6575 10.5625L78.2801 31.6949H21.3105V15.8456C21.3105 15.8456 22.4552 11.1789 26.5937 11.1789L80.6575 10.5625Z" fill="#80C2DC" stroke="#221F20" stroke-width="1.76165" stroke-miterlimit="10" stroke-linecap="round" stroke-linejoin="round"/>
<path d="M80.6575 10.5625L78.2801 31.6949H21.3105V15.8456C21.3105 15.8456 22.4552 11.1789 26.5937 11.1789L80.6575 10.5625Z" stroke="#221F20" stroke-width="1.76165" stroke-miterlimit="10" stroke-linecap="round" stroke-linejoin="round"/>
<path d="M193.716 45.4297H181.389L187.816 54.8512H198.383C198.383 54.8512 200.76 47.8071 193.716 45.4297Z" fill="white"/>
<path d="M181.389 45.4297L187.816 54.8512H193.1L187.816 46.0461L181.389 45.4297Z" fill="#F39331"/>
<path d="M196.094 70.969C196.094 73.4344 194.949 75.3716 193.452 75.3716C192.043 75.3716 190.811 73.4344 190.811 70.969C190.811 68.5035 191.955 66.5664 193.452 66.5664C194.861 66.5664 196.094 68.5916 196.094 70.969Z" fill="white"/>
<path d="M105.664 39.8836C105.664 40.6761 105.048 41.3805 104.168 41.3805H93.6014C92.8089 41.3805 92.1045 40.7641 92.1045 39.8836C92.1045 39.0911 92.7208 38.3867 93.6014 38.3867H104.168C104.96 38.3867 105.664 39.0911 105.664 39.8836Z" fill="#862529"/>
<path d="M204.986 63.4832C204.986 64.7159 204.017 65.7725 202.697 65.7725C201.464 65.7725 200.407 64.8039 200.407 63.4832V51.5081C200.407 50.2754 201.376 49.2188 202.697 49.2188C203.929 49.2188 204.986 50.1873 204.986 51.5081V63.4832Z" fill="#181817"/>
<path d="M201.025 78.8008H20.5186V82.3229H201.025V78.8008Z" fill="#221F20"/>
<path d="M171.176 82.4125C171.176 91.3057 163.955 98.614 154.974 98.614C146.081 98.614 138.772 91.3938 138.772 82.4125C138.772 73.4312 145.993 66.2109 154.974 66.2109C163.955 66.2109 171.176 73.4312 171.176 82.4125Z" fill="#545454"/>
<path d="M166.774 82.2364C166.774 88.7523 161.491 94.0354 154.975 94.0354C148.459 94.0354 143.176 88.7523 143.176 82.2364C143.176 75.7206 148.459 70.4375 154.975 70.4375C161.579 70.4375 166.774 75.7206 166.774 82.2364Z" fill="#E0E1E2"/>
<path d="M156.912 72.0195C158.849 72.0195 159.642 73.4284 158.673 75.1013L156.736 78.4473C155.767 80.1203 154.182 80.1203 153.214 78.4473L151.277 75.1013C150.308 73.4284 151.101 72.0195 153.038 72.0195H156.912Z" fill="#272626"/>
<path d="M153.214 79.9434L149.868 74.8364C149.868 74.8364 149.164 73.7798 148.371 74.3081C148.371 74.3081 147.139 75.1886 146.874 75.9811C146.698 76.7735 147.315 76.9496 147.315 76.9496L151.189 80.4717L151.629 80.8239C151.717 80.7359 152.95 81.4403 153.214 79.9434Z" fill="#272626"/>
<path d="M156.824 80.0332L160.17 74.9262C160.17 74.9262 160.875 73.8696 161.667 74.3979C161.667 74.3979 162.9 75.2784 163.164 76.0709C163.34 76.8634 162.724 77.0395 162.724 77.0395L158.849 80.5616L158.409 80.9138C158.321 80.8257 157.088 81.5301 156.824 80.0332Z" fill="#272626"/>
<path d="M165.453 84.8768C165.453 86.814 164.044 87.6064 162.371 86.6379L159.025 84.7007C157.352 83.7322 157.352 82.1472 159.025 81.1786L162.371 79.2415C164.044 78.2729 165.453 79.0654 165.453 81.0025V84.8768Z" fill="#272626"/>
<path d="M153.127 93.2411C151.189 93.2411 150.397 91.8323 151.366 90.1593L153.303 86.8133C154.271 85.1403 155.856 85.1403 156.825 86.8133L158.762 90.1593C159.73 91.8323 158.938 93.2411 157.001 93.2411H153.127Z" fill="#272626"/>
<path d="M156.561 85.2285L159.907 90.3356C159.907 90.3356 160.611 91.3922 161.403 90.8639C161.403 90.8639 162.636 89.9833 162.9 89.1909C163.076 88.3984 162.46 88.2223 162.46 88.2223L158.586 84.7002L158.145 84.348C158.057 84.4361 156.913 83.7317 156.561 85.2285Z" fill="#272626"/>
<path d="M144.232 80.651C144.232 78.7138 145.641 77.9214 147.314 78.8899L150.66 80.8271C152.333 81.7956 152.333 83.3806 150.66 84.3492L147.314 86.2863C145.641 87.2549 144.232 86.4624 144.232 84.5253V80.651Z" fill="#272626"/>
<path d="M152.597 84.3516L147.49 87.6975C147.49 87.6975 146.433 88.4019 146.961 89.1944C146.961 89.1944 147.842 90.4271 148.634 90.6913C149.427 90.8674 149.603 90.251 149.603 90.251L153.125 86.3768L153.477 85.9365C153.389 85.8484 154.094 84.6157 152.597 84.3516Z" fill="#272626"/>
<path d="M156.735 82.5874C156.735 83.5559 155.943 84.4365 154.886 84.4365C153.918 84.4365 153.037 83.644 153.037 82.5874C153.037 81.6188 153.83 80.7383 154.886 80.7383C155.943 80.7383 156.735 81.6188 156.735 82.5874Z" fill="#E0E1E2" stroke="#545454" stroke-width="0.59268" stroke-miterlimit="10"/>
<path d="M154.27 79.7687C154.27 80.1209 154.006 80.3851 153.653 80.3851C153.301 80.3851 153.037 80.1209 153.037 79.7687C153.037 79.4165 153.301 79.1523 153.653 79.1523C154.006 79.1523 154.27 79.4165 154.27 79.7687Z" fill="#97999B"/>
<path d="M156.911 79.7687C156.911 80.1209 156.647 80.3851 156.295 80.3851C155.943 80.3851 155.679 80.1209 155.679 79.7687C155.679 79.4165 155.943 79.1523 156.295 79.1523C156.647 79.1523 156.911 79.4165 156.911 79.7687Z" fill="#97999B"/>
<path d="M158.233 81.6203C158.233 81.9725 157.969 82.2366 157.616 82.2366C157.264 82.2366 157 81.9725 157 81.6203C157 81.2681 157.264 81.0039 157.616 81.0039C157.969 81.0039 158.233 81.2681 158.233 81.6203Z" fill="#97999B"/>
<path d="M158.144 83.7336C158.144 84.0858 157.88 84.3499 157.528 84.3499C157.175 84.3499 156.911 84.0858 156.911 83.7336C156.911 83.3813 157.175 83.1172 157.528 83.1172C157.88 83.1172 158.144 83.3813 158.144 83.7336Z" fill="#97999B"/>
<path d="M156.736 85.3156C156.736 85.6678 156.471 85.9319 156.119 85.9319C155.767 85.9319 155.503 85.6678 155.503 85.3156C155.503 84.9634 155.767 84.6992 156.119 84.6992C156.471 84.6992 156.736 84.9634 156.736 85.3156Z" fill="#97999B"/>
<path d="M154.534 85.3156C154.534 85.6678 154.27 85.9319 153.918 85.9319C153.566 85.9319 153.302 85.6678 153.302 85.3156C153.302 84.9634 153.566 84.6992 153.918 84.6992C154.27 84.6992 154.534 84.9634 154.534 85.3156Z" fill="#97999B"/>
<path d="M152.861 83.8195C152.861 84.1717 152.597 84.4359 152.244 84.4359C151.892 84.4359 151.628 84.1717 151.628 83.8195C151.628 83.4673 151.892 83.2031 152.244 83.2031C152.597 83.2031 152.861 83.4673 152.861 83.8195Z" fill="#97999B"/>
<path d="M152.686 81.4406C152.686 81.7928 152.422 82.0569 152.069 82.0569C151.717 82.0569 151.453 81.7928 151.453 81.4406C151.453 81.0884 151.717 80.8242 152.069 80.8242C152.422 80.8242 152.686 81.0884 152.686 81.4406Z" fill="#97999B"/>
<path d="M51.9525 98.614C60.9004 98.614 68.154 91.3603 68.154 82.4125C68.154 73.4646 60.9004 66.2109 51.9525 66.2109C43.0046 66.2109 35.751 73.4646 35.751 82.4125C35.751 91.3603 43.0046 98.614 51.9525 98.614Z" fill="#545454"/>
<path d="M63.7512 82.2364C63.7512 88.7523 58.4681 94.0354 51.9523 94.0354C45.4364 94.0354 40.1533 88.7523 40.1533 82.2364C40.1533 75.7206 45.4364 70.4375 51.9523 70.4375C58.4681 70.4375 63.7512 75.7206 63.7512 82.2364Z" fill="#E0E1E2"/>
<path d="M53.8885 72.0195C55.8257 72.0195 56.6181 73.4284 55.6496 75.1013L53.7124 78.4473C52.7439 80.1203 51.1589 80.1203 50.1904 78.4473L48.2532 75.1013C47.2847 73.4284 48.0771 72.0195 50.0143 72.0195H53.8885Z" fill="#272626"/>
<path d="M50.1907 79.9434L46.8447 74.8364C46.8447 74.8364 46.1403 73.7798 45.3479 74.3081C45.3479 74.3081 44.1151 75.1886 43.851 75.9811C43.6749 76.7735 44.2912 76.9496 44.2912 76.9496L48.1655 80.4717L48.6058 80.8239C48.6058 80.7359 49.8385 81.4403 50.1907 79.9434Z" fill="#272626"/>
<path d="M53.7129 80.0332L57.0588 74.9262C57.0588 74.9262 57.7633 73.8696 58.5557 74.3979C58.5557 74.3979 59.7885 75.2784 60.0526 76.0709C60.2287 76.8634 59.6123 77.0395 59.6123 77.0395L55.7381 80.5616L55.2978 80.9138C55.2098 80.8257 54.0651 81.5301 53.7129 80.0332Z" fill="#272626"/>
<path d="M62.4306 84.8768C62.4306 86.814 61.0217 87.6064 59.3487 86.6379L56.0028 84.7007C54.3298 83.7322 54.3298 82.1472 56.0028 81.1786L59.3487 79.2415C61.0217 78.2729 62.4306 79.0654 62.4306 81.0025V84.8768Z" fill="#272626"/>
<path d="M50.1031 93.2411C48.166 93.2411 47.3735 91.8323 48.3421 90.1593L50.2792 86.8133C51.2478 85.1403 52.8327 85.1403 53.8013 86.8133L55.7384 90.1593C56.707 91.8323 55.9145 93.2411 53.9774 93.2411H50.1031Z" fill="#272626"/>
<path d="M53.4502 85.2285L56.7962 90.3356C56.7962 90.3356 57.5006 91.3922 58.293 90.8639C58.293 90.8639 59.5258 89.9833 59.7899 89.1909C59.966 88.3984 59.3497 88.2223 59.3497 88.2223L55.4754 84.7002L55.0351 84.348C55.0351 84.4361 53.8024 83.7317 53.4502 85.2285Z" fill="#272626"/>
<path d="M41.21 80.651C41.21 78.7138 42.6188 77.9214 44.2918 78.8899L47.6378 80.8271C49.3107 81.7956 49.3107 83.3806 47.6378 84.3492L44.2918 86.2863C42.6188 87.2549 41.21 86.4624 41.21 84.5253V80.651Z" fill="#272626"/>
<path d="M49.4873 84.3516L44.3803 87.6975C44.3803 87.6975 43.3237 88.4019 43.852 89.1944C43.852 89.1944 44.7325 90.4271 45.525 90.6913C46.3175 90.8674 46.4936 90.251 46.4936 90.251L50.0157 86.3768L50.3679 85.9365C50.2798 85.8484 50.9842 84.6157 49.4873 84.3516Z" fill="#272626"/>
<path d="M53.7128 82.5874C53.7128 83.5559 52.9204 84.4365 51.8637 84.4365C50.8952 84.4365 50.0146 83.644 50.0146 82.5874C50.0146 81.6188 50.8071 80.7383 51.8637 80.7383C52.8323 80.7383 53.7128 81.6188 53.7128 82.5874Z" fill="#E0E1E2" stroke="#545454" stroke-width="0.59268" stroke-miterlimit="10"/>
<path d="M51.1595 79.7687C51.1595 80.1209 50.8953 80.3851 50.5431 80.3851C50.1909 80.3851 49.9268 80.1209 49.9268 79.7687C49.9268 79.4165 50.1909 79.1523 50.5431 79.1523C50.8953 79.1523 51.1595 79.4165 51.1595 79.7687Z" fill="#97999B"/>
<path d="M53.8021 79.7687C53.8021 80.1209 53.5379 80.3851 53.1857 80.3851C52.8335 80.3851 52.5693 80.1209 52.5693 79.7687C52.5693 79.4165 52.8335 79.1523 53.1857 79.1523C53.5379 79.1523 53.8021 79.4165 53.8021 79.7687Z" fill="#97999B"/>
<path d="M55.2103 81.6203C55.2103 81.9725 54.9461 82.2366 54.5939 82.2366C54.2417 82.2366 53.9775 81.9725 53.9775 81.6203C53.9775 81.2681 54.2417 81.0039 54.5939 81.0039C54.9461 81.0039 55.2103 81.2681 55.2103 81.6203Z" fill="#97999B"/>
<path d="M55.1224 83.7336C55.1224 84.0858 54.8582 84.3499 54.506 84.3499C54.1538 84.3499 53.8896 84.0858 53.8896 83.7336C53.8896 83.3813 54.1538 83.1172 54.506 83.1172C54.8582 83.1172 55.1224 83.3813 55.1224 83.7336Z" fill="#97999B"/>
<path d="M53.6253 85.3156C53.6253 85.6678 53.3611 85.9319 53.0089 85.9319C52.6567 85.9319 52.3926 85.6678 52.3926 85.3156C52.3926 84.9634 52.6567 84.6992 53.0089 84.6992C53.3611 84.6992 53.6253 84.9634 53.6253 85.3156Z" fill="#97999B"/>
<path d="M51.512 85.3156C51.512 85.6678 51.2479 85.9319 50.8956 85.9319C50.5434 85.9319 50.2793 85.6678 50.2793 85.3156C50.2793 84.9634 50.5434 84.6992 50.8956 84.6992C51.2479 84.6992 51.512 84.9634 51.512 85.3156Z" fill="#97999B"/>
<path d="M49.8392 83.8195C49.8392 84.1717 49.575 84.4359 49.2228 84.4359C48.8706 84.4359 48.6064 84.1717 48.6064 83.8195C48.6064 83.4673 48.8706 83.2031 49.2228 83.2031C49.575 83.2031 49.8392 83.4673 49.8392 83.8195Z" fill="#97999B"/>
<path d="M49.6634 81.4406C49.6634 81.7928 49.3992 82.0569 49.047 82.0569C48.6948 82.0569 48.4307 81.7928 48.4307 81.4406C48.4307 81.0884 48.6948 80.8242 49.047 80.8242C49.3992 80.8242 49.6634 81.0884 49.6634 81.4406Z" fill="#97999B"/>
<path d="M161.667 34.6044L163.692 40.5039L193.013 42.8813H196.799C196.799 42.8813 197.416 34.6924 192.397 33.8119L153.39 28.793L161.667 34.6044Z" fill="#F0AD7D"/>
</svg>
