<svg width="208" height="103" viewBox="0 0 208 103" fill="none" xmlns="http://www.w3.org/2000/svg">
<path d="M104.159 102.901C161.463 102.901 207.916 97.232 207.916 90.2394C207.916 83.2468 161.463 77.5781 104.159 77.5781C46.8559 77.5781 0.402344 83.2468 0.402344 90.2394C0.402344 97.232 46.8559 102.901 104.159 102.901Z" fill="#43190E"/>
<path d="M26.3289 39.4402C26.3289 44.7234 22.0063 49.046 16.7231 49.046C11.4398 49.046 7.11719 44.7234 7.11719 39.4402V24.2309C7.11719 18.9476 11.4398 14.625 16.7231 14.625C22.0063 14.625 26.3289 18.9476 26.3289 24.2309V39.4402Z" fill="#181817"/>
<path d="M144.562 26.0703L181.865 30.8732L184.347 36.0764L176.022 46.3227L150.966 42.6404L144.562 26.0703Z" fill="#F0AD7D"/>
<path d="M119.989 5.82031C119.989 8.78212 117.587 11.1836 114.625 11.1836H35.6172C32.6554 11.1836 30.2539 8.78212 30.2539 5.82031C30.2539 2.8585 32.6554 0.457031 35.6172 0.457031H114.625C117.587 0.457031 119.989 2.8585 119.989 5.82031Z" fill="#181817"/>
<path d="M82.1277 13.1055H19.9297V49.7679H82.1277V13.1055Z" fill="#E05A2C"/>
<path d="M141.442 63.6988C141.442 69.9427 136.399 74.9857 130.155 74.9857H30.8142C24.5704 74.9857 19.5273 69.9427 19.5273 63.6988V41.8455C19.5273 35.6017 24.5704 30.5586 30.8142 30.5586H130.155C136.399 30.5586 141.442 35.6017 141.442 41.8455V63.6988Z" fill="#E05A2C"/>
<path d="M133.918 49.3666C133.918 55.6104 128.875 60.6535 122.631 60.6535H91.7322C85.4884 60.6535 80.4453 55.6104 80.4453 49.3666V16.3064C80.4453 10.0626 85.4884 5.01953 91.7322 5.01953H122.631C128.875 5.01953 133.918 10.0626 133.918 16.3064V49.3666Z" fill="#E05A2C"/>
<path d="M131.677 9.02215L148.247 28.5541L153.771 32.5565L184.349 36.0787L187.391 41.6021C187.391 41.6021 190.913 44.6439 190.913 47.6057C190.913 50.5675 190.913 55.1303 190.913 55.1303L192.434 59.1328V69.6992L187.952 74.182H29.0546H22.0103L18.0078 71.1401V64.5761L22.0103 62.0946H127.114V5.5L131.677 9.02215Z" fill="#E05A2C"/>
<path d="M53.4693 53.6875C42.5026 53.6875 33.6172 62.5729 33.6172 73.5396C33.6172 73.9399 33.6172 74.4202 33.6972 74.8204H37.1393C37.1393 74.5002 37.1393 74.1 37.1393 73.7798C37.1393 66.3352 44.5038 57.3697 53.5494 57.3697C62.5949 57.3697 69.9594 64.7342 69.9594 73.7798C69.9594 74.1 69.9594 74.5002 69.9594 74.8204H73.4015C73.4015 74.4202 73.4815 73.9399 73.4815 73.5396C73.3214 62.5729 64.436 53.6875 53.4693 53.6875Z" fill="#181817"/>
<path d="M147.208 53.6875C136.241 53.6875 127.355 62.5729 127.355 73.5396C127.355 73.9399 127.355 74.4202 127.436 74.8204H130.878C130.878 74.5002 130.878 74.1 130.878 73.7798C130.878 66.3352 138.242 57.3697 147.288 57.3697C156.333 57.3697 163.698 64.7342 163.698 73.7798C163.698 74.1 163.698 74.5002 163.698 74.8204H167.14C167.14 74.4202 167.22 73.9399 167.22 73.5396C167.06 62.5729 158.174 53.6875 147.208 53.6875Z" fill="#181817"/>
<path d="M70.7611 72.9806C70.2007 64.1752 62.8362 57.2109 53.8708 57.2109C44.9053 57.2109 37.5408 64.1752 36.9805 72.9806H70.7611Z" fill="#181817"/>
<path d="M164.417 72.9806C163.857 64.1752 156.492 57.2109 147.527 57.2109C138.562 57.2109 131.197 64.1752 130.637 72.9806H164.417Z" fill="#181817"/>
<path d="M18.0078 62.5747H34.5779L39.0607 69.3788H106.062H133.919H162.496H170.421V63.3752C170.421 63.3752 171.942 58.4922 174.904 58.4922H191.474L194.516 61.1338V67.938L190.753 74.7421H149.368H29.2947H22.1704C22.1704 74.7421 19.6888 73.0611 18.0078 71.3801V66.6572V62.5747Z" fill="#181817"/>
<path d="M19.9297 13.1065H90.4528V5.26172H33.0577C33.0577 5.26172 19.9297 5.26172 19.9297 13.1065Z" fill="#E05A2C"/>
<path d="M121.589 6.86328H33.0547C33.0547 6.86328 22.3281 6.86328 22.3281 11.1059V34.0799L24.4895 31.9186V18.0701C24.4895 18.0701 25.0498 11.1059 31.1335 10.3054H124.551C124.551 10.3054 129.033 8.46426 121.589 6.86328Z" fill="#F0AD7D"/>
<path d="M98.9429 36.6392C98.9429 37.6798 98.0623 38.5603 97.0217 38.5603H88.7766C87.736 38.5603 86.8555 37.6798 86.8555 36.6392C86.8555 35.5985 87.736 34.798 88.7766 34.798H97.0217C98.0623 34.718 98.9429 35.5985 98.9429 36.6392Z" fill="#1B3C5E"/>
<path d="M86.9297 31.6752V14.4647L87.8903 8.78125H124.232L142.404 28.4733L140.643 31.6752H86.9297Z" fill="#80C2DC"/>
<path d="M123.832 9.5014L141.443 28.553L140.162 30.9545H87.6498V14.5445L88.5304 9.5014H123.832ZM124.552 7.98047H87.2496L86.1289 14.3844V32.4754H141.042L143.284 28.3129L124.552 7.98047Z" fill="#221F20"/>
<path d="M86.9297 31.6752V14.4647L87.8903 8.78125H124.232L142.404 28.4733L140.643 31.6752H86.9297Z" fill="#80C2DC"/>
<path d="M123.832 9.5014L141.443 28.553L140.162 30.9545H87.6498V14.5445L88.5304 9.5014H123.832ZM124.552 7.98047H87.2496L86.1289 14.3844V32.4754H141.042L143.284 28.3129L124.552 7.98047Z" fill="#221F20"/>
<path d="M123.832 9.5014L141.443 28.553L140.162 30.9545H87.6498V14.5445L88.5304 9.5014H123.832ZM124.552 7.98047H87.2496L86.1289 14.3844V32.4754H141.042L143.284 28.3129L124.552 7.98047Z" fill="#221F20"/>
<path d="M141.125 29.1112C141.125 30.9523 139.604 32.4732 137.763 32.4732H134.401C132.56 32.4732 131.039 30.9523 131.039 29.1112C131.039 27.27 132.56 25.7491 134.401 25.7491H137.763C139.604 25.6691 141.125 27.19 141.125 29.1112Z" fill="#1B3C5E"/>
<path d="M24.412 56.0154C24.412 57.5363 23.1312 58.8171 21.6103 58.8171C20.0894 58.8171 18.8086 57.5363 18.8086 56.0154V42.0869C18.8086 40.5659 20.0894 39.2852 21.6103 39.2852C23.1312 39.2852 24.412 40.5659 24.412 42.0869V56.0154Z" fill="#51151A"/>
<path d="M22.5692 54.3275C22.5692 55.128 21.9288 55.8484 21.0483 55.8484C20.2478 55.8484 19.5273 55.208 19.5273 54.3275V43.3608C19.5273 42.5603 20.1677 41.8398 21.0483 41.8398C21.8488 41.8398 22.5692 42.4802 22.5692 43.3608V54.3275Z" fill="#CD3B27"/>
<path d="M27.6953 34.0742H146.808C146.808 34.0742 153.692 35.6752 152.572 37.8365C151.531 39.9978 62.3565 37.2762 62.3565 39.4375C62.3565 41.5988 68.7604 46.882 77.3256 48.483C85.8909 50.084 127.516 52.7256 127.516 52.7256C127.516 52.7256 103.982 61.8512 69.8811 51.685C35.7802 41.5188 40.0228 48.483 35.7002 53.8463C31.4576 59.2096 28.2556 49.0434 28.2556 49.0434L27.6953 34.0742Z" fill="#F0AD7D"/>
<path d="M43.2261 46.0101C43.2261 48.4916 41.2249 50.4928 38.7433 50.4928H35.7015C33.22 50.4928 31.2188 48.4916 31.2188 46.0101C31.2188 43.5286 33.22 41.5273 35.7015 41.5273H38.7433C41.2249 41.5273 43.2261 43.5286 43.2261 46.0101Z" stroke="#1B3C5E" stroke-width="0.0641674" stroke-miterlimit="10"/>
<path d="M86.1263 30.958C86.1263 30.958 84.2852 33.5996 84.2852 35.841C84.2852 38.0824 84.2852 59.9357 84.2852 59.9357C84.2852 59.9357 85.0056 67.4603 86.5265 67.4603C88.0475 67.4603 123.269 67.4603 123.269 67.4603C123.269 67.4603 127.351 49.7695 145.122 49.7695L146.803 48.0885V34.3201L142.561 28.3164" stroke="#1B3C5E" stroke-width="0.0636897" stroke-miterlimit="10"/>
<path d="M80.2108 9.82422L78.0495 29.036H26.2578V14.6272C26.2578 14.6272 27.2984 10.3846 31.0607 10.3846L80.2108 9.82422Z" fill="#80C2DC" stroke="#221F20" stroke-width="0.128335" stroke-miterlimit="10" stroke-linecap="round" stroke-linejoin="round"/>
<path d="M80.2108 9.82422L78.0495 29.036H26.2578V14.6272C26.2578 14.6272 27.2984 10.3846 31.0607 10.3846L80.2108 9.82422Z" stroke="#221F20" stroke-width="0.128335" stroke-miterlimit="10" stroke-linecap="round" stroke-linejoin="round"/>
<path d="M182.984 41.5273H171.777L177.621 50.0926H187.227C187.227 50.0926 189.388 43.6887 182.984 41.5273Z" fill="white"/>
<path d="M171.777 41.5273L177.621 50.0926H182.424L177.621 42.0877L171.777 41.5273Z" fill="#F39331"/>
<path d="M185.147 64.7368C185.147 66.9782 184.106 68.7393 182.745 68.7393C181.464 68.7393 180.344 66.9782 180.344 64.7368C180.344 62.4955 181.384 60.7344 182.745 60.7344C184.026 60.7344 185.147 62.5755 185.147 64.7368Z" fill="white"/>
<path d="M102.937 36.478C102.937 37.1985 102.377 37.8389 101.576 37.8389H91.9702C91.2498 37.8389 90.6094 37.2785 90.6094 36.478C90.6094 35.7576 91.1697 35.1172 91.9702 35.1172H101.576C102.296 35.1172 102.937 35.7576 102.937 36.478Z" fill="#862529"/>
<path d="M193.241 57.9367C193.241 59.0574 192.36 60.0179 191.159 60.0179C190.039 60.0179 189.078 59.1374 189.078 57.9367V47.05C189.078 45.9293 189.959 44.9688 191.159 44.9688C192.28 44.9688 193.241 45.8493 193.241 47.05V57.9367Z" fill="#181817"/>
<path d="M189.628 71.8633H25.5273V75.0652H189.628V71.8633Z" fill="#221F20"/>
<path d="M162.485 75.147C162.485 83.2319 155.921 89.876 147.756 89.876C139.671 89.876 133.027 83.312 133.027 75.147C133.027 66.982 139.591 60.418 147.756 60.418C155.921 60.418 162.485 66.982 162.485 75.147Z" fill="#545454"/>
<path d="M158.488 74.9844C158.488 80.908 153.685 85.7109 147.762 85.7109C141.838 85.7109 137.035 80.908 137.035 74.9844C137.035 69.0607 141.838 64.2578 147.762 64.2578C153.765 64.2578 158.488 69.0607 158.488 74.9844Z" fill="#E0E1E2"/>
<path d="M149.526 65.6953C151.287 65.6953 152.008 66.9761 151.127 68.497L149.366 71.5389C148.486 73.0598 147.045 73.0598 146.164 71.5389L144.403 68.497C143.523 66.9761 144.243 65.6953 146.004 65.6953H149.526Z" fill="#272626"/>
<path d="M146.163 72.9021L143.122 68.2593C143.122 68.2593 142.481 67.2987 141.761 67.779C141.761 67.779 140.64 68.5795 140.4 69.2999C140.24 70.0204 140.8 70.1805 140.8 70.1805L144.322 73.3824L144.722 73.7026C144.803 73.6226 145.923 74.263 146.163 72.9021Z" fill="#272626"/>
<path d="M149.445 72.9803L152.487 68.3374C152.487 68.3374 153.128 67.3768 153.848 67.8571C153.848 67.8571 154.969 68.6576 155.209 69.3781C155.369 70.0985 154.809 70.2586 154.809 70.2586L151.286 73.4606L150.886 73.7808C150.806 73.7007 149.685 74.3411 149.445 72.9803Z" fill="#272626"/>
<path d="M157.281 77.3778C157.281 79.1389 156 79.8594 154.479 78.9788L151.438 77.2177C149.917 76.3372 149.917 74.8963 151.438 74.0158L154.479 72.2547C156 71.3742 157.281 72.0946 157.281 73.8557V77.3778Z" fill="#272626"/>
<path d="M146.082 84.996C144.321 84.996 143.601 83.7152 144.481 82.1943L146.242 79.1524C147.123 77.6315 148.564 77.6315 149.444 79.1524L151.205 82.1943C152.086 83.7152 151.365 84.996 149.604 84.996H146.082Z" fill="#272626"/>
<path d="M149.199 77.7106L152.241 82.3535C152.241 82.3535 152.881 83.3141 153.602 82.8338C153.602 82.8338 154.723 82.0333 154.963 81.3128C155.123 80.5924 154.563 80.4323 154.563 80.4323L151.04 77.2303L150.64 76.9101C150.56 76.9902 149.519 76.3498 149.199 77.7106Z" fill="#272626"/>
<path d="M138 73.5471C138 71.786 139.281 71.0656 140.802 71.9461L143.844 73.7072C145.365 74.5877 145.365 76.0286 143.844 76.9091L140.802 78.6702C139.281 79.5508 138 78.8303 138 77.0692V73.5471Z" fill="#272626"/>
<path d="M145.601 76.9102L140.959 79.952C140.959 79.952 139.998 80.5924 140.478 81.3128C140.478 81.3128 141.279 82.4335 141.999 82.6737C142.72 82.8338 142.88 82.2734 142.88 82.2734L146.082 78.7513L146.402 78.351C146.322 78.271 146.962 77.1503 145.601 76.9102Z" fill="#272626"/>
<path d="M149.363 75.3065C149.363 76.1872 148.642 76.9879 147.681 76.9879C146.801 76.9879 146 76.2673 146 75.3065C146 74.4257 146.721 73.625 147.681 73.625C148.642 73.625 149.363 74.4257 149.363 75.3065Z" fill="#E0E1E2" stroke="#545454" stroke-width="0.0431764" stroke-miterlimit="10"/>
<path d="M147.121 72.7402C147.121 73.0604 146.881 73.3006 146.56 73.3006C146.24 73.3006 146 73.0604 146 72.7402C146 72.4199 146.24 72.1797 146.56 72.1797C146.881 72.1797 147.121 72.4199 147.121 72.7402Z" fill="#97999B"/>
<path d="M149.523 72.7402C149.523 73.0605 149.283 73.3007 148.963 73.3007C148.643 73.3007 148.402 73.0605 148.402 72.7402C148.402 72.4199 148.643 72.1797 148.963 72.1797C149.283 72.1797 149.523 72.4199 149.523 72.7402Z" fill="#97999B"/>
<path d="M150.719 74.4277C150.719 74.748 150.478 74.9882 150.158 74.9882C149.838 74.9882 149.598 74.748 149.598 74.4277C149.598 74.1074 149.838 73.8672 150.158 73.8672C150.478 73.8672 150.719 74.1074 150.719 74.4277Z" fill="#97999B"/>
<path d="M150.641 76.3456C150.641 76.6659 150.4 76.9061 150.08 76.9061C149.76 76.9061 149.52 76.6659 149.52 76.3456C149.52 76.0254 149.76 75.7852 150.08 75.7852C150.4 75.7852 150.641 76.0254 150.641 76.3456Z" fill="#97999B"/>
<path d="M149.363 77.787C149.363 78.1073 149.123 78.3475 148.803 78.3475C148.482 78.3475 148.242 78.1073 148.242 77.787C148.242 77.4668 148.482 77.2266 148.803 77.2266C149.123 77.2266 149.363 77.4668 149.363 77.787Z" fill="#97999B"/>
<path d="M147.359 77.787C147.359 78.1073 147.119 78.3475 146.799 78.3475C146.478 78.3475 146.238 78.1073 146.238 77.787C146.238 77.4668 146.478 77.2266 146.799 77.2266C147.119 77.2266 147.359 77.4668 147.359 77.787Z" fill="#97999B"/>
<path d="M145.84 76.4277C145.84 76.748 145.6 76.9882 145.279 76.9882C144.959 76.9882 144.719 76.748 144.719 76.4277C144.719 76.1074 144.959 75.8672 145.279 75.8672C145.6 75.8672 145.84 76.1074 145.84 76.4277Z" fill="#97999B"/>
<path d="M145.683 74.2675C145.683 74.5878 145.443 74.828 145.123 74.828C144.803 74.828 144.562 74.5878 144.562 74.2675C144.562 73.9472 144.803 73.707 145.123 73.707C145.443 73.707 145.683 73.9472 145.683 74.2675Z" fill="#97999B"/>
<path d="M54.104 89.876C62.2386 89.876 68.833 83.2816 68.833 75.147C68.833 67.0124 62.2386 60.418 54.104 60.418C45.9694 60.418 39.375 67.0124 39.375 75.147C39.375 83.2816 45.9694 89.876 54.104 89.876Z" fill="#545454"/>
<path d="M64.8281 74.9844C64.8281 80.908 60.0252 85.7109 54.1015 85.7109C48.1779 85.7109 43.375 80.908 43.375 74.9844C43.375 69.0607 48.1779 64.2578 54.1015 64.2578C60.0252 64.2578 64.8281 69.0607 64.8281 74.9844Z" fill="#E0E1E2"/>
<path d="M55.8622 65.6953C57.6233 65.6953 58.3437 66.9761 57.4632 68.497L55.7021 71.5389C54.8216 73.0598 53.3807 73.0598 52.5002 71.5389L50.7391 68.497C49.8586 66.9761 50.579 65.6953 52.3401 65.6953H55.8622Z" fill="#272626"/>
<path d="M52.4993 72.9021L49.4575 68.2593C49.4575 68.2593 48.8171 67.2987 48.0966 67.779C48.0966 67.779 46.9759 68.5795 46.7358 69.2999C46.5757 70.0204 47.136 70.1805 47.136 70.1805L50.6582 73.3824L51.0584 73.7026C51.0584 73.6226 52.1791 74.263 52.4993 72.9021Z" fill="#272626"/>
<path d="M55.6992 72.9803L58.7411 68.3374C58.7411 68.3374 59.3815 67.3768 60.1019 67.8571C60.1019 67.8571 61.2226 68.6576 61.4627 69.3781C61.6228 70.0985 61.0625 70.2586 61.0625 70.2586L57.5403 73.4606L57.1401 73.7808C57.06 73.7007 56.0194 74.3411 55.6992 72.9803Z" fill="#272626"/>
<path d="M63.621 77.3818C63.621 79.1428 62.3402 79.8633 60.8193 78.9827L57.7774 77.2217C56.2565 76.3411 56.2565 74.9002 57.7774 74.0197L60.8193 72.2586C62.3402 71.3781 63.621 72.0985 63.621 73.8596V77.3818Z" fill="#272626"/>
<path d="M52.4143 84.996C50.6532 84.996 49.9328 83.7152 50.8133 82.1943L52.5744 79.1524C53.4549 77.6315 54.8958 77.6315 55.7763 79.1524L57.5374 82.1943C58.4179 83.7152 57.6975 84.996 55.9364 84.996H52.4143Z" fill="#272626"/>
<path d="M55.4531 77.7106L58.495 82.3535C58.495 82.3535 59.1354 83.3141 59.8558 82.8338C59.8558 82.8338 60.9765 82.0333 61.2167 81.3128C61.3768 80.5924 60.8164 80.4323 60.8164 80.4323L57.2943 77.2303L56.894 76.9101C56.894 76.9902 55.7733 76.3498 55.4531 77.7106Z" fill="#272626"/>
<path d="M44.3359 73.5432C44.3359 71.7821 45.6167 71.0617 47.1376 71.9422L50.1795 73.7033C51.7004 74.5838 51.7004 76.0247 50.1795 76.9052L47.1376 78.6663C45.6167 79.5469 44.3359 78.8264 44.3359 77.0653V73.5432Z" fill="#272626"/>
<path d="M51.8592 76.9062L47.2163 79.9481C47.2163 79.9481 46.2558 80.5885 46.736 81.3089C46.736 81.3089 47.5365 82.4296 48.257 82.6698C48.9774 82.8299 49.1375 82.2695 49.1375 82.2695L52.3395 78.7474L52.6597 78.3471C52.5796 78.2671 53.22 77.1464 51.8592 76.9062Z" fill="#272626"/>
<path d="M55.6989 75.3104C55.6989 76.1911 54.9782 76.9918 54.0174 76.9918C53.1366 76.9918 52.3359 76.2712 52.3359 75.3104C52.3359 74.4296 53.0566 73.6289 54.0174 73.6289C54.8982 73.6289 55.6989 74.4296 55.6989 75.3104Z" fill="#E0E1E2" stroke="#545454" stroke-width="0.0431764" stroke-miterlimit="10"/>
<path d="M53.3749 72.7441C53.3749 73.0644 53.1347 73.3046 52.8144 73.3046C52.4941 73.3046 52.2539 73.0644 52.2539 72.7441C52.2539 72.4238 52.4941 72.1836 52.8144 72.1836C53.1347 72.1836 53.3749 72.4238 53.3749 72.7441Z" fill="#97999B"/>
<path d="M55.7811 72.7441C55.7811 73.0644 55.5409 73.3046 55.2207 73.3046C54.9004 73.3046 54.6602 73.0644 54.6602 72.7441C54.6602 72.4238 54.9004 72.1836 55.2207 72.1836C55.5409 72.1836 55.7811 72.4238 55.7811 72.7441Z" fill="#97999B"/>
<path d="M57.0585 74.4277C57.0585 74.748 56.8183 74.9882 56.498 74.9882C56.1777 74.9882 55.9375 74.748 55.9375 74.4277C55.9375 74.1074 56.1777 73.8672 56.498 73.8672C56.8183 73.8672 57.0585 74.1074 57.0585 74.4277Z" fill="#97999B"/>
<path d="M56.9804 76.3456C56.9804 76.6659 56.7401 76.9061 56.4199 76.9061C56.0996 76.9061 55.8594 76.6659 55.8594 76.3456C55.8594 76.0254 56.0996 75.7852 56.4199 75.7852C56.7401 75.7852 56.9804 76.0254 56.9804 76.3456Z" fill="#97999B"/>
<path d="M55.6171 77.787C55.6171 78.1073 55.3768 78.3475 55.0566 78.3475C54.7363 78.3475 54.4961 78.1073 54.4961 77.787C54.4961 77.4668 54.7363 77.2266 55.0566 77.2266C55.3768 77.2266 55.6171 77.4668 55.6171 77.787Z" fill="#97999B"/>
<path d="M53.6991 77.787C53.6991 78.1073 53.4589 78.3475 53.1386 78.3475C52.8183 78.3475 52.5781 78.1073 52.5781 77.787C52.5781 77.4668 52.8183 77.2266 53.1386 77.2266C53.4589 77.2266 53.6991 77.4668 53.6991 77.787Z" fill="#97999B"/>
<path d="M52.1757 76.4277C52.1757 76.748 51.9355 76.9882 51.6152 76.9882C51.2949 76.9882 51.0547 76.748 51.0547 76.4277C51.0547 76.1074 51.2949 75.8672 51.6152 75.8672C51.9355 75.8672 52.1757 76.1074 52.1757 76.4277Z" fill="#97999B"/>
<path d="M52.0233 74.2675C52.0233 74.5878 51.7831 74.828 51.4628 74.828C51.1425 74.828 50.9023 74.5878 50.9023 74.2675C50.9023 73.9472 51.1425 73.707 51.4628 73.707C51.7831 73.707 52.0233 73.9472 52.0233 74.2675Z" fill="#97999B"/>
<path d="M153.845 31.6817L155.686 37.0449L182.342 39.2063H185.784C185.784 39.2063 186.345 31.7617 181.782 30.9612L146.32 26.3984L153.845 31.6817Z" fill="#F0AD7D"/>
</svg>
