<svg width="650" height="219" viewBox="0 0 650 219" fill="none" xmlns="http://www.w3.org/2000/svg">
<path d="M102.26 108.052C96.3576 109.603 66.5793 116.061 66.5793 116.061C60.6773 117.353 54.7753 118.645 48.605 119.42C42.703 120.195 36.5327 121.228 30.3624 121.487C29.0211 121.487 27.6797 120.453 27.6797 119.162C27.6797 117.87 28.4845 117.095 29.5576 116.578C35.4596 115.028 41.3616 113.994 47.5319 112.961C53.4339 111.928 59.6042 111.411 65.7745 110.636C65.7745 110.636 96.0893 107.536 102.26 107.277C102.528 107.277 102.528 107.277 102.528 107.536C102.528 107.794 102.26 107.794 102.26 108.052Z" fill="#C7742D"/>
<path d="M123.99 189.435C120.771 192.019 117.284 194.602 114.064 197.186C110.845 199.769 107.357 202.353 103.87 204.678C100.382 207.261 97.163 209.845 93.4072 211.912C89.9197 214.237 86.1638 216.304 82.1397 218.112C80.7984 218.629 79.457 218.112 78.6522 216.821C78.1156 215.787 78.3839 214.754 79.1887 213.979C82.408 211.137 85.8956 208.812 89.3831 206.486C92.8707 204.161 96.6265 202.353 100.382 200.286C104.138 198.219 107.894 196.152 111.65 194.344C115.406 192.535 119.161 190.469 123.186 188.66C123.454 188.66 123.454 188.66 123.722 188.919C124.259 189.177 124.259 189.177 123.99 189.435Z" fill="#C7742D"/>
<path d="M136.598 51.735C131.769 47.8597 108.43 28.7416 108.43 28.7416C103.869 24.8664 99.04 20.9911 94.7477 16.8575C90.4553 12.7238 85.8947 8.5902 81.8706 3.93987C81.0657 2.90646 81.0657 1.35635 82.1388 0.581292C82.9437 -0.193764 84.285 -0.193764 85.3581 0.581292C90.187 4.19822 94.7477 8.33185 99.3083 12.4655C103.869 16.5991 107.893 20.9911 112.185 25.3831C112.185 25.3831 133.111 47.343 137.135 51.735C137.135 51.9933 137.135 51.9933 137.135 52.2517C136.867 51.735 136.598 51.735 136.598 51.735Z" fill="#C7742D"/>
<path d="M95.5559 78.8612C91.5318 78.0861 87.776 77.0527 83.7519 76.0193L72.2161 72.9191C68.4603 71.8857 64.4362 70.8522 60.6804 69.5605C56.9246 68.2687 53.1688 66.977 49.4129 65.1685C48.3398 64.6518 48.0716 63.6184 48.6081 62.585C49.1447 61.8099 49.9495 61.2932 50.7543 61.5516C54.7784 62.3266 58.5342 63.6184 62.29 64.6518C66.0459 65.9436 69.8017 67.4937 73.5575 69.0438L84.5567 73.6941C88.3125 75.2442 91.8001 76.7943 95.5559 78.3444C95.8242 78.3444 95.8242 78.6028 95.5559 78.6028C95.8242 78.8612 95.8242 78.8612 95.5559 78.8612Z" fill="#C7742D"/>
<path d="M55.5828 169.282C52.9001 170.316 49.9491 171.349 47.2663 172.383C44.5836 173.416 41.6326 174.449 38.6816 175.224C35.7306 176.258 33.0479 177.291 30.0969 177.808C27.1458 178.583 24.4631 179.1 21.2438 179.358C20.1707 179.358 19.0977 178.583 19.0977 177.55C19.0977 176.775 19.6342 175.999 20.1707 175.483C22.8535 174.191 25.8045 173.416 28.7555 172.641C31.7065 171.866 34.6575 171.607 37.6085 171.091C40.5595 170.574 43.5105 170.057 46.4615 169.799C49.4125 169.282 52.3635 169.024 55.3145 168.766C55.5828 168.766 55.5828 168.766 55.5828 169.024C55.8511 169.024 55.8511 169.282 55.5828 169.282Z" fill="#C7742D"/>
<path d="M109.776 176.774L94.4846 170.574L80.8026 179.099L82.144 163.598L69.5352 153.523L85.3633 149.906L91.2653 135.18L99.85 148.614L116.215 149.647L105.484 161.532L109.776 176.774Z" fill="#C7742D"/>
<path d="M180.599 15.0446L178.185 24.6036L185.16 31.8375L174.965 32.8709L169.868 41.3965L165.844 32.3542L155.918 30.5457L163.698 23.8285L162.357 14.2695L171.21 19.1782L180.599 15.0446Z" fill="#C7742D"/>
<path d="M106.556 41.9219L108.702 48.3807L115.409 50.1891L109.775 54.3228L110.043 61.0399L104.41 57.1646L97.7028 59.4898L99.849 53.031L95.5566 47.6056H102.532L106.556 41.9219Z" fill="#C7742D"/>
<path d="M163.696 193.57L157.794 187.628L148.941 188.919L153.234 181.427L149.21 174.193L157.794 175.485L163.965 169.543L165.038 178.069L172.818 181.686L165.038 185.302L163.696 193.57Z" fill="#C7742D"/>
<path d="M222.717 54.0625L226.741 59.7462H233.716L229.424 65.1716L231.302 71.6304L224.863 69.3053L218.961 73.1805L219.229 66.205L213.596 62.3298L220.571 60.5213L222.717 54.0625Z" fill="#C7742D"/>
<path d="M546.257 124.073C552.695 123.04 585.424 119.423 585.424 119.423C591.863 118.648 598.57 117.873 605.008 117.614C611.715 117.356 618.154 116.839 624.861 117.098C626.202 117.098 627.275 118.39 627.275 119.681C627.275 120.973 626.202 121.748 625.129 122.006C618.69 123.04 611.984 123.557 605.545 124.073C599.106 124.59 592.4 124.59 585.693 124.59C585.693 124.59 552.695 124.848 546.257 124.848C545.988 124.848 545.988 124.59 545.988 124.59C545.988 124.332 545.988 124.073 546.257 124.073Z" fill="#C7742D"/>
<path d="M531.233 180.657C536.33 182.982 541.159 185.566 546.256 187.891C551.085 190.216 556.183 192.8 561.011 195.383C565.84 197.967 570.938 200.292 575.498 203.134C580.327 205.976 584.888 208.818 589.18 212.176C590.253 212.951 590.521 214.501 589.717 215.535C588.912 216.568 587.571 216.827 586.766 216.31C581.669 213.985 576.84 211.401 572.011 208.559C567.182 205.717 562.621 202.617 558.06 199.517C553.5 196.417 548.939 193.575 544.379 190.216C539.818 187.116 535.257 184.016 530.965 180.657C530.697 180.657 530.697 180.399 530.965 180.141C530.965 180.657 530.965 180.657 531.233 180.657Z" fill="#C7742D"/>
<path d="M579.523 88.1639C583.279 86.6138 587.035 85.0637 590.791 83.7719L602.058 79.6383C605.814 78.3466 609.57 76.7964 613.326 75.763C617.082 74.7296 621.106 73.6962 625.13 72.9212C626.203 72.6628 627.276 73.4379 627.544 74.4713C627.813 75.2463 627.276 76.2797 626.471 76.5381C622.715 78.0882 618.96 79.38 615.204 80.6717C611.448 81.9635 607.424 82.7385 603.668 83.7719L591.864 86.6138C587.84 87.3889 584.084 88.4223 580.06 89.1973C579.792 89.1973 579.792 89.1973 579.792 88.939C579.523 88.1639 579.523 88.1639 579.523 88.1639Z" fill="#C7742D"/>
<path d="M548.934 156.887C551.885 157.662 554.836 158.437 557.787 158.954C560.738 159.729 563.689 160.504 566.371 161.279C569.322 162.054 572.273 162.829 574.956 163.863C577.639 164.896 580.59 166.188 583.004 167.48C584.077 167.996 584.346 169.288 583.809 170.063C583.273 170.838 582.468 171.097 581.663 171.097C578.712 170.58 575.761 169.547 573.078 168.513C570.395 167.48 567.713 166.188 565.03 164.896C562.347 163.604 559.665 162.313 556.982 161.021C554.299 159.729 551.616 158.437 548.934 156.887C548.934 156.887 548.665 156.629 548.934 156.629C548.665 156.887 548.665 156.887 548.934 156.887Z" fill="#C7742D"/>
<path d="M552.423 66.4623C556.447 62.8454 560.739 59.2284 565.031 55.6115C569.324 51.9946 573.348 48.636 577.64 45.0191C581.933 41.6605 585.957 38.0436 590.517 34.685C595.078 31.5848 599.639 28.4846 604.468 25.6427C605.541 24.8677 607.15 25.3844 607.955 26.4178C608.492 27.4512 608.492 28.7429 607.419 29.518C603.395 33.1349 599.102 36.4935 594.541 39.8521C590.249 43.2106 585.42 46.0525 580.86 49.1527C576.299 52.2529 571.738 55.0948 566.909 58.195C562.349 61.0369 557.52 64.1371 552.691 66.979C552.423 66.979 552.423 66.979 552.154 66.979C552.423 66.7206 552.423 66.7206 552.423 66.4623Z" fill="#C7742D"/>
<path d="M534.452 47.6021L527.208 35.2012L512.453 33.9094L522.379 23.317L518.892 9.62433L532.574 15.3081L545.182 8.07422L543.573 22.2836L554.84 31.5842L540.085 34.4261L534.452 47.6021Z" fill="#C7742D"/>
<path d="M442.969 180.91L446.993 186.594L453.968 186.852L449.676 192.019L451.554 198.478L445.115 196.153L439.213 200.028L439.481 193.311L433.848 189.177L440.823 187.369L442.969 180.91Z" fill="#C7742D"/>
<path d="M601.787 136.734L609.835 144.227L620.834 142.16L616.005 151.719L621.371 161.278L610.372 159.728L602.592 167.737L600.714 156.886L590.52 152.494L600.446 147.327L601.787 136.734Z" fill="#C7742D"/>
<path d="M477.846 37.5273L481.602 43.2111H488.577L484.284 48.6365L486.431 55.0953L479.724 52.7701L474.09 56.6454L474.358 49.6699L468.725 45.7946L475.431 43.9861L477.846 37.5273Z" fill="#C7742D"/>
<path d="M509.502 191.766L513.526 197.449L520.501 197.708L516.209 202.875L518.087 209.334L511.648 207.008L505.746 210.884L506.015 204.167L500.381 200.033L507.356 198.224L509.502 191.766Z" fill="#C7742D"/>
<path d="M557.252 83.5117L561.276 88.9371L568.251 89.1955L563.691 94.3625L565.837 100.821L559.398 98.4961L553.496 102.371L553.765 95.6543L548.131 91.5206L555.106 89.7122L557.252 83.5117Z" fill="#C7742D"/>
<path d="M90.3568 108.052C83.9825 109.603 51.8211 116.061 51.8211 116.061C45.4468 117.353 39.0725 118.645 32.4084 119.42C26.0341 120.195 19.3701 121.228 12.706 121.487C11.2573 121.487 9.80859 120.453 9.80859 119.162C9.80859 117.87 10.6778 117.095 11.8368 116.578C18.2111 115.028 24.5854 113.994 31.2495 112.961C37.6238 111.928 44.2879 111.411 50.9519 110.636C50.9519 110.636 83.6927 107.536 90.3568 107.277C90.6465 107.277 90.6465 107.277 90.6465 107.536C90.6465 107.794 90.3568 107.794 90.3568 108.052Z" fill="url(#paint0_linear_550_10018)"/>
<path d="M113.824 189.435C110.348 192.019 106.581 194.602 103.104 197.186C99.6271 199.769 95.8605 202.353 92.0938 204.678C88.3272 207.261 84.8503 209.845 80.7939 211.912C77.0273 214.237 72.9709 216.304 68.6248 218.112C67.1761 218.629 65.7273 218.112 64.8581 216.821C64.2786 215.787 64.5684 214.754 65.4376 213.979C68.9145 211.137 72.6811 208.812 76.4478 206.486C80.2144 204.161 84.2708 202.353 88.3272 200.286C92.3836 198.219 96.44 196.152 100.496 194.344C104.553 192.535 108.609 190.469 112.955 188.66C113.245 188.66 113.245 188.66 113.535 188.919C114.114 189.177 114.114 189.177 113.824 189.435Z" fill="url(#paint1_linear_550_10018)"/>
<path d="M127.442 51.735C122.226 47.8597 97.0189 28.7416 97.0189 28.7416C92.0933 24.8664 86.8779 20.9911 82.242 16.8575C77.6062 12.7238 72.6806 8.5902 68.3344 3.93987C67.4652 2.90646 67.4652 1.35635 68.6242 0.581292C69.4934 -0.193764 70.9421 -0.193764 72.1011 0.581292C77.3164 4.19822 82.242 8.33185 87.1676 12.4655C92.0933 16.5991 96.4394 20.9911 101.075 25.3831C101.075 25.3831 123.675 47.343 128.021 51.735C128.021 51.9933 128.021 51.9933 128.021 52.2517C127.731 51.735 127.442 51.735 127.442 51.735Z" fill="url(#paint2_linear_550_10018)"/>
<path d="M83.1156 78.8612C78.7695 78.0861 74.7131 77.0527 70.367 76.0193L57.9081 72.9191C53.8517 71.8857 49.5056 70.8522 45.4492 69.5605C41.3928 68.2687 37.3364 66.977 33.2801 65.1685C32.1211 64.6518 31.8314 63.6184 32.4108 62.585C32.9903 61.8099 33.8595 61.2932 34.7288 61.5516C39.0749 62.3266 43.1313 63.6184 47.1877 64.6518C51.244 65.9436 55.3004 67.4937 59.3568 69.0438L71.2362 73.6941C75.2926 75.2442 79.0592 76.7943 83.1156 78.3445C83.4054 78.3445 83.4054 78.6028 83.1156 78.6028C83.4054 78.8612 83.4054 78.8612 83.1156 78.8612Z" fill="url(#paint3_linear_550_10018)"/>
<path d="M39.942 169.282C37.0446 170.316 33.8574 171.349 30.96 172.383C28.0626 173.416 24.8754 174.449 21.6883 175.224C18.5011 176.258 15.6037 177.291 12.4165 177.808C9.22936 178.583 6.33194 179.1 2.85504 179.358C1.69608 179.358 0.537109 178.583 0.537109 177.55C0.537109 176.775 1.11659 175.999 1.69608 175.483C4.59349 174.191 7.78065 173.416 10.9678 172.641C14.155 171.866 17.3421 171.607 20.5293 171.091C23.7164 170.574 26.9036 170.057 30.0908 169.799C33.2779 169.282 36.4651 169.024 39.6522 168.766C39.942 168.766 39.942 168.766 39.942 169.024C40.2317 169.024 40.2317 169.282 39.942 169.282Z" fill="url(#paint4_linear_550_10018)"/>
<path d="M119.524 176.774L103.008 170.574L88.2317 179.099L89.6804 163.598L76.0625 153.523L93.1573 149.906L99.5316 135.18L108.803 148.614L126.478 149.647L114.888 161.532L119.524 176.774Z" fill="url(#paint5_linear_550_10018)"/>
<path d="M187.535 15.0446L184.927 24.6036L192.461 31.8375L181.451 32.8709L175.945 41.3965L171.599 32.3542L160.879 30.5457L169.281 23.8285L167.833 14.2695L177.394 19.1782L187.535 15.0446Z" fill="url(#paint6_linear_550_10018)"/>
<path d="M110.376 41.9219L112.693 48.3807L119.937 50.1891L113.852 54.3228L114.142 61.0399L108.058 57.1646L100.814 59.4898L103.132 53.031L98.4961 47.6056H106.029L110.376 41.9219Z" fill="url(#paint7_linear_550_10018)"/>
<path d="M171.014 193.57L164.64 187.628L155.078 188.919L159.714 181.427L155.368 174.193L164.64 175.485L171.304 169.543L172.463 178.069L180.865 181.686L172.463 185.302L171.014 193.57Z" fill="url(#paint8_linear_550_10018)"/>
<path d="M225.703 54.0625L230.049 59.7462H237.582L232.946 65.1716L234.975 71.6304L228.021 69.3053L221.646 73.1805L221.936 66.205L215.852 62.3298L223.385 60.5213L225.703 54.0625Z" fill="url(#paint9_linear_550_10018)"/>
<path d="M561.446 124.077C568.4 123.044 603.748 119.427 603.748 119.427C610.702 118.652 617.946 117.877 624.899 117.618C632.143 117.36 639.097 116.843 646.34 117.102C647.789 117.102 648.948 118.393 648.948 119.685C648.948 120.977 647.789 121.752 646.63 122.01C639.676 123.044 632.433 123.56 625.479 124.077C618.525 124.594 611.282 124.594 604.038 124.594C604.038 124.594 568.4 124.852 561.446 124.852C561.156 124.852 561.156 124.594 561.156 124.594C561.156 124.335 561.156 124.077 561.446 124.077Z" fill="url(#paint10_linear_550_10018)"/>
<path d="M545.22 180.661C550.725 182.986 555.94 185.57 561.445 187.895C566.661 190.22 572.166 192.804 577.381 195.387C582.597 197.971 588.102 200.296 593.027 203.138C598.243 205.98 603.168 208.822 607.804 212.18C608.963 212.955 609.253 214.505 608.384 215.539C607.514 216.572 606.066 216.83 605.196 216.314C599.691 213.989 594.476 211.405 589.261 208.563C584.045 205.721 579.12 202.621 574.194 199.521C569.268 196.421 564.343 193.579 559.417 190.22C554.492 187.12 549.566 184.02 544.93 180.661C544.64 180.661 544.64 180.403 544.93 180.145C544.93 180.661 544.93 180.661 545.22 180.661Z" fill="url(#paint11_linear_550_10018)"/>
<path d="M597.373 88.1678C601.429 86.6177 605.486 85.0676 609.542 83.7758L621.711 79.6422C625.768 78.3505 629.824 76.8003 633.881 75.7669C637.937 74.7335 642.283 73.7001 646.629 72.9251C647.788 72.6667 648.947 73.4418 649.237 74.4752C649.527 75.2502 648.947 76.2836 648.078 76.542C644.021 78.0921 639.965 79.3839 635.909 80.6756C631.852 81.9674 627.506 82.7424 623.45 83.7758L610.701 86.6177C606.355 87.3928 602.299 88.4262 597.953 89.2012C597.663 89.2012 597.663 89.2012 597.663 88.9429C597.373 88.1678 597.373 88.1678 597.373 88.1678Z" fill="url(#paint12_linear_550_10018)"/>
<path d="M564.336 156.891C567.524 157.666 570.711 158.441 573.898 158.958C577.085 159.733 580.272 160.508 583.17 161.283C586.357 162.058 589.544 162.833 592.441 163.867C595.339 164.9 598.526 166.192 601.134 167.484C602.293 168 602.582 169.292 602.003 170.067C601.423 170.842 600.554 171.101 599.685 171.101C596.498 170.584 593.311 169.55 590.413 168.517C587.516 167.484 584.618 166.192 581.721 164.9C578.824 163.608 575.926 162.317 573.029 161.025C570.131 159.733 567.234 158.441 564.336 156.891C564.336 156.891 564.047 156.633 564.336 156.633C564.047 156.891 564.047 156.891 564.336 156.891Z" fill="url(#paint13_linear_550_10018)"/>
<path d="M568.102 66.4662C572.448 62.8493 577.084 59.2324 581.72 55.6154C586.356 51.9985 590.702 48.6399 595.338 45.023C599.974 41.6644 604.32 38.0475 609.246 34.6889C614.171 31.5887 619.097 28.4885 624.312 25.6466C625.471 24.8716 627.21 25.3883 628.079 26.4217C628.658 27.4551 628.658 28.7468 627.499 29.5219C623.153 33.1388 618.517 36.4974 613.592 39.856C608.956 43.2145 603.74 46.0564 598.815 49.1566C593.889 52.2569 588.964 55.0987 583.748 58.1989C578.823 61.0408 573.607 64.141 568.392 66.9829C568.102 66.9829 568.102 66.9829 567.812 66.9829C568.102 66.7246 568.102 66.7246 568.102 66.4662Z" fill="url(#paint14_linear_550_10018)"/>
<path d="M528.706 47.606L520.883 35.2051L504.947 33.9133L515.668 23.3209L511.901 9.62824L526.678 15.312L540.296 8.07812L538.557 22.2875L550.726 31.5881L534.791 34.43L528.706 47.606Z" fill="url(#paint15_linear_550_10018)"/>
<path d="M438.834 180.914L443.18 186.598L450.713 186.856L446.077 192.023L448.105 198.482L441.152 196.157L434.777 200.032L435.067 193.315L428.982 189.181L436.516 187.373L438.834 180.914Z" fill="url(#paint16_linear_550_10018)"/>
<path d="M596.247 136.738L604.939 144.23L616.819 142.164L611.604 151.723L617.398 161.282L605.519 159.732L597.116 167.741L595.088 156.89L584.078 152.498L594.799 147.331L596.247 136.738Z" fill="url(#paint17_linear_550_10018)"/>
<path d="M473.271 37.5312L477.327 43.215H484.861L480.225 48.6404L482.543 55.0992L475.299 52.774L469.215 56.6493L469.504 49.6738L463.42 45.7985L470.663 43.99L473.271 37.5312Z" fill="url(#paint18_linear_550_10018)"/>
<path d="M503.783 191.77L508.129 197.453L515.662 197.712L511.026 202.879L513.055 209.337L506.101 207.012L499.726 210.888L500.016 204.17L493.932 200.037L501.465 198.228L503.783 191.77Z" fill="url(#paint19_linear_550_10018)"/>
<path d="M554.564 83.5156L558.91 88.941L566.444 89.1994L561.518 94.3664L563.836 100.825L556.882 98.5L550.508 102.375L550.797 95.6582L544.713 91.5245L552.246 89.7161L554.564 83.5156Z" fill="url(#paint20_linear_550_10018)"/>
<defs>
<linearGradient id="paint0_linear_550_10018" x1="50.2276" y1="107.277" x2="50.2276" y2="121.487" gradientUnits="userSpaceOnUse">
<stop stop-color="#DEB330"/>
<stop offset="1" stop-color="#DEB330" stop-opacity="0"/>
</linearGradient>
<linearGradient id="paint1_linear_550_10018" x1="89.2857" y1="188.66" x2="89.2857" y2="218.31" gradientUnits="userSpaceOnUse">
<stop stop-color="#DEB330"/>
<stop offset="1" stop-color="#DEB330" stop-opacity="0"/>
</linearGradient>
<linearGradient id="paint2_linear_550_10018" x1="97.868" y1="0" x2="97.868" y2="52.2517" gradientUnits="userSpaceOnUse">
<stop stop-color="#DEB330"/>
<stop offset="1" stop-color="#DEB330" stop-opacity="0"/>
</linearGradient>
<linearGradient id="paint3_linear_550_10018" x1="57.727" y1="61.4844" x2="57.727" y2="78.8612" gradientUnits="userSpaceOnUse">
<stop stop-color="#DEB330"/>
<stop offset="1" stop-color="#DEB330" stop-opacity="0"/>
</linearGradient>
<linearGradient id="paint4_linear_550_10018" x1="20.3482" y1="168.766" x2="20.3482" y2="179.358" gradientUnits="userSpaceOnUse">
<stop stop-color="#DEB330"/>
<stop offset="1" stop-color="#DEB330" stop-opacity="0"/>
</linearGradient>
<linearGradient id="paint5_linear_550_10018" x1="101.27" y1="135.18" x2="101.27" y2="179.099" gradientUnits="userSpaceOnUse">
<stop stop-color="#DEB330"/>
<stop offset="1" stop-color="#DEB330" stop-opacity="0"/>
</linearGradient>
<linearGradient id="paint6_linear_550_10018" x1="176.67" y1="14.2695" x2="176.67" y2="41.3965" gradientUnits="userSpaceOnUse">
<stop stop-color="#DEB330"/>
<stop offset="1" stop-color="#DEB330" stop-opacity="0"/>
</linearGradient>
<linearGradient id="paint7_linear_550_10018" x1="109.217" y1="41.9219" x2="109.217" y2="61.0399" gradientUnits="userSpaceOnUse">
<stop stop-color="#DEB330"/>
<stop offset="1" stop-color="#DEB330" stop-opacity="0"/>
</linearGradient>
<linearGradient id="paint8_linear_550_10018" x1="167.972" y1="169.543" x2="167.972" y2="193.57" gradientUnits="userSpaceOnUse">
<stop stop-color="#DEB330"/>
<stop offset="1" stop-color="#DEB330" stop-opacity="0"/>
</linearGradient>
<linearGradient id="paint9_linear_550_10018" x1="226.717" y1="54.0625" x2="226.717" y2="73.1805" gradientUnits="userSpaceOnUse">
<stop stop-color="#DEB330"/>
<stop offset="1" stop-color="#DEB330" stop-opacity="0"/>
</linearGradient>
<linearGradient id="paint10_linear_550_10018" x1="605.052" y1="117.031" x2="605.052" y2="124.852" gradientUnits="userSpaceOnUse">
<stop stop-color="#DEB330"/>
<stop offset="1" stop-color="#DEB330" stop-opacity="0"/>
</linearGradient>
<linearGradient id="paint11_linear_550_10018" x1="576.801" y1="180.145" x2="576.801" y2="216.572" gradientUnits="userSpaceOnUse">
<stop stop-color="#DEB330"/>
<stop offset="1" stop-color="#DEB330" stop-opacity="0"/>
</linearGradient>
<linearGradient id="paint12_linear_550_10018" x1="623.343" y1="72.875" x2="623.343" y2="89.2012" gradientUnits="userSpaceOnUse">
<stop stop-color="#DEB330"/>
<stop offset="1" stop-color="#DEB330" stop-opacity="0"/>
</linearGradient>
<linearGradient id="paint13_linear_550_10018" x1="583.206" y1="156.633" x2="583.206" y2="171.101" gradientUnits="userSpaceOnUse">
<stop stop-color="#DEB330"/>
<stop offset="1" stop-color="#DEB330" stop-opacity="0"/>
</linearGradient>
<linearGradient id="paint14_linear_550_10018" x1="598.136" y1="25.2734" x2="598.136" y2="66.9829" gradientUnits="userSpaceOnUse">
<stop stop-color="#DEB330"/>
<stop offset="1" stop-color="#DEB330" stop-opacity="0"/>
</linearGradient>
<linearGradient id="paint15_linear_550_10018" x1="527.837" y1="8.07812" x2="527.837" y2="47.606" gradientUnits="userSpaceOnUse">
<stop stop-color="#DEB330"/>
<stop offset="1" stop-color="#DEB330" stop-opacity="0"/>
</linearGradient>
<linearGradient id="paint16_linear_550_10018" x1="439.848" y1="180.914" x2="439.848" y2="200.032" gradientUnits="userSpaceOnUse">
<stop stop-color="#DEB330"/>
<stop offset="1" stop-color="#DEB330" stop-opacity="0"/>
</linearGradient>
<linearGradient id="paint17_linear_550_10018" x1="600.738" y1="136.738" x2="600.738" y2="167.741" gradientUnits="userSpaceOnUse">
<stop stop-color="#DEB330"/>
<stop offset="1" stop-color="#DEB330" stop-opacity="0"/>
</linearGradient>
<linearGradient id="paint18_linear_550_10018" x1="474.14" y1="37.5312" x2="474.14" y2="56.6493" gradientUnits="userSpaceOnUse">
<stop stop-color="#DEB330"/>
<stop offset="1" stop-color="#DEB330" stop-opacity="0"/>
</linearGradient>
<linearGradient id="paint19_linear_550_10018" x1="504.797" y1="191.77" x2="504.797" y2="210.888" gradientUnits="userSpaceOnUse">
<stop stop-color="#DEB330"/>
<stop offset="1" stop-color="#DEB330" stop-opacity="0"/>
</linearGradient>
<linearGradient id="paint20_linear_550_10018" x1="555.578" y1="83.5156" x2="555.578" y2="102.375" gradientUnits="userSpaceOnUse">
<stop stop-color="#DEB330"/>
<stop offset="1" stop-color="#DEB330" stop-opacity="0"/>
</linearGradient>
</defs>
</svg>
