<svg width="101" height="116" viewBox="0 0 101 116" fill="none" xmlns="http://www.w3.org/2000/svg">
<path d="M94.1504 57.1C97.7504 56.5 100.35 55.7 100.35 55.7L94.3504 55.6C95.0504 48.1 93.0504 41 89.2504 35.1C91.1504 34.2 93.0504 33.6 94.6504 33.4C92.6504 33.5 90.6504 33.8 88.6504 34.2C88.4504 33.9 88.2504 33.7 88.1504 33.5C88.3504 33.7 88.4504 34 88.5504 34.3C86.4504 34.7 84.3504 35.3 82.4504 35.9C79.0504 31.8 74.5504 28.6 69.6504 26.6C69.8504 25.7 69.9504 24.9 70.0504 24C70.1504 24 70.2504 24.1 70.3504 24.1C70.4504 24 70.4504 24 70.5504 24C70.4504 23.9 70.2504 23.9 70.1504 23.8C70.5504 20.5 73.9504 5 73.9504 5L68.6504 23C63.5504 20.5 57.9504 19.6 52.1504 20.4C50.3504 20.7 48.5504 21 46.8504 21.5C45.6504 22 44.4504 22.5 43.3504 23.1C42.3504 21.2 36.3504 4.1 34.9504 0C35.1504 3.5 40.6504 21.3 41.4504 24C37.1504 26.3 33.1504 29.3 29.6504 32.8C33.3504 29.7 37.4504 27 41.8504 25.1C42.9504 28.6 44.2504 31.2 44.9504 32.7C40.2504 35.1 36.1504 38.8 33.4504 43.4C32.2504 45.3 31.5504 47.3 31.0504 49.4C30.1504 48.7 29.0504 48 27.8504 47.5C27.3504 47.3 26.7504 47 26.2504 46.8C26.0504 44.9 25.2504 42.9 23.2504 40.7C23.3504 40.5 23.4504 40.4 23.5504 40.2C24.0504 39.3 24.5504 38.4 24.8504 37.6C25.1504 35.6 24.7504 33.7 23.7504 31.6C24.3504 34.5 23.2504 36.5 21.3504 39.6C20.4504 41.2 18.7504 43.3 18.1504 44.9C14.6504 44.5 11.8504 44.6 11.8504 44.6L17.5504 46.4C14.9504 53.7 16.1504 61.6 18.8504 68.4C13.8504 70.8 5.45039 74.2 0.650391 73.9C8.05039 74.8 16.3504 73.8 21.1504 71.6C22.2504 71.1 22.9504 70.5 23.4504 69.9C25.1504 73.9 27.7504 77.6 30.9504 80.6C29.1504 82.6 16.9504 94.5 15.2504 96C17.0504 94.7 29.6504 83.1 31.8504 81.4C35.5504 84.7 39.9504 87.2 44.5504 88.5C44.7504 88.6 44.9504 88.6 45.1504 88.7C44.8504 89.4 44.5504 90.1 44.0504 91C44.6504 90.3 45.2504 89.6 45.7504 88.9C49.5504 89.7 53.4504 89.5 57.2504 88.2C59.6504 87.4 61.2504 87.7 62.7504 89.1C64.7504 98.4 66.5504 108.8 66.5504 116C66.7504 103.7 65.9504 90.4 64.5504 80.2C66.4504 80.3 68.7504 80.9 71.2504 82.3C70.5504 81 70.2504 79.8 70.2504 78.7C73.8504 83 75.7504 82.8 81.8504 92C78.6504 82.2 72.4504 75.7 71.6504 74.9C71.8504 74.6 72.1504 74.4 72.3504 74.1C73.2504 73.2 74.1504 72.3 75.0504 71.3C78.1504 73.7 79.1504 73 84.4504 77.9C81.7504 73.5 78.1504 70.7 76.5504 69.6C77.1504 68.8 77.7504 68 78.2504 67.2C80.7504 63.2 82.2504 59.9 82.6504 56.7C83.6504 57 84.7504 57.3 85.7504 57.5C85.8504 57.5 85.9504 57.5 86.0504 57.5C86.2504 60.4 87.2504 63 91.1504 65.5C91.1504 65.7 91.0504 65.9 91.0504 66.1C91.2504 68.1 92.0504 69.9 93.6504 71.6C92.3504 68.9 92.4504 66 93.5504 62.6C93.5504 60.6 93.9504 58.8 94.1504 57.1ZM79.7504 36.7C78.2504 37.3 76.9504 38 75.7504 38.7C75.1504 37.2 74.9504 35.4 76.1504 32.8C77.5504 34 78.6504 35.3 79.7504 36.7ZM22.1504 42.5C23.0504 43.6 23.4504 44.8 23.4504 46C22.5504 45.8 21.7504 45.6 20.8504 45.5C21.1504 44.4 21.6504 43.4 22.1504 42.5ZM18.8504 68.3C17.2504 62.5 17.3504 56.1 19.3504 50C19.5504 49.1 19.8504 48.1 20.1504 47.2L23.1504 48.1C22.8504 49.3 22.4504 50.7 22.0504 52.1C20.6504 57.1 20.7504 62.1 22.1504 66.7C21.3504 67.1 20.2504 67.6 18.8504 68.3ZM25.4504 51.8C25.7504 50.8 25.9504 49.9 26.0504 49L30.7504 50.5C30.5504 51.6 30.5504 52.7 30.5504 53.8C30.6504 56.4 29.5504 57.8 27.1504 58.8C29.2504 59.4 31.5504 60.9 32.1504 62.5C33.4504 66 35.3504 69.3 37.8504 72.2C36.4504 73.8 34.2504 76.5 31.8504 79.2C25.5504 72.1 22.4504 62.1 25.4504 51.8ZM45.2504 87.7C40.5504 86.3 36.3504 83.7 32.9504 80.3C35.9504 78 38.6504 75.8 40.1504 74.6C41.6504 76 43.2504 77.3 44.9504 78.3C45.8504 78.8 46.7504 79.3 47.6504 79.6C46.3504 82.9 46.7504 84 45.2504 87.7ZM58.5504 87.5C54.4504 88.9 50.1504 89.1 46.0504 88C48.2504 84.7 49.2504 81.6 49.6504 80.4C53.1504 81.4 56.8504 81.3 60.3504 80.4H60.4504C60.9504 82.5 61.4504 84.8 62.0504 87.2C61.1504 86.9 59.9504 87 58.5504 87.5ZM65.8504 31.3C60.1504 28.9 53.8504 29.1 48.1504 31.2C46.6504 27.9 45.9504 26.3 44.4504 23.9C47.7504 22.6 50.5504 21.9 53.9504 21.4C59.0504 20.7 63.9504 21.3 68.5504 23.1L67.7504 25.6C64.7504 24.5 61.5504 23.9 58.3504 23.8C54.8504 23.7 51.4504 24.5 48.2504 26.1C48.3504 26.2 48.4504 26.2 48.5504 26.3C51.2504 25.2 54.0504 24.7 56.9504 24.8C60.5504 24.9 63.9504 25.7 67.2504 27L65.8504 31.3ZM67.7504 32.2C68.3504 30.8 68.8504 29.4 69.2504 28C71.5504 29.2 73.7504 30.6 75.7504 32.3C72.8504 33.8 70.4504 33.5 67.7504 32.2ZM85.5504 54.9C85.5504 55 85.5504 55.1 85.5504 55.2L82.2504 55.1C82.3504 51.3 80.9504 47.3 77.6504 41.9C78.7504 41.1 80.0504 40.2 81.5504 39.3C84.2504 43.8 85.7504 49.1 85.5504 54.9ZM91.2504 63.1C91.2504 63.2 91.2504 63.3 91.1504 63.4C89.0504 61.9 88.6504 59.9 88.6504 57.6C89.9504 57.6 91.2504 57.5 92.4504 57.4C92.2504 59.2 91.8504 61.1 91.2504 63.1ZM92.7504 52.6C92.7504 53.5 92.7504 54.5 92.6504 55.4L88.7504 55.3C88.7504 54.8 88.8504 54.3 88.8504 53.8C89.0504 47.8 87.2504 42.4 84.0504 37.8C85.7504 36.8 87.4504 35.8 89.0504 35.1C91.8504 40.3 93.2504 46.3 92.7504 52.6Z" fill="#0D0D0D"/>
</svg>
