<svg width="97" height="108" viewBox="0 0 97 108" fill="none" xmlns="http://www.w3.org/2000/svg">
<path d="M73.6 74.2498C72.5 73.3498 71.6 72.4498 70.8 71.6498C74.1 65.5498 75.2 58.1498 74.1 51.2498C75 50.9498 75.8 50.6498 76.5 50.2498C76.5 50.3498 76.5 50.4498 76.5 50.5498C76.6 50.5498 76.7 50.6498 76.7 50.6498C76.7 50.5498 76.7 50.3498 76.6 50.1498C79.6 48.8498 96.8 43.4498 96.8 43.4498L76.4 48.7498C75.9 43.1498 73.7 37.8498 70 33.2498C68.8 31.8498 67.6 30.5498 66.3 29.2498C65.3 28.4498 64.2 27.7498 63.1 27.0498C63.6 26.1498 64.2 25.1498 65 24.0498C68.6 26.8498 71.4 29.5498 72.4 30.8498C71.4 28.3498 70.3 24.8498 66.5 21.9498C67 21.2498 67.7 20.4498 68.3 19.6498C67.4 20.2498 66.6 20.9498 65.8 21.5498C63.4 19.9498 60 18.5498 55.2 17.7498C58.2 19.2498 61.2 21.2498 63.9 23.2498C62.9 24.1498 62 25.0498 61.2 25.9498C57 23.4498 52.3 21.6498 47.5 20.4498C52.1 21.9498 56.5 24.0498 60.4 26.7498C58 29.5498 56.4 31.9498 55.6 33.3498C52.3 31.3498 48.5 29.9498 44.6 29.3498C44 26.5498 43.1 22.6498 42.1 18.0498C43.4 17.2498 44.4 16.1498 45.3 14.6498C44.3 15.6498 43.1 16.2498 41.8 16.7498C40.8 11.5498 39.7 5.7498 38.8 0.0498047C39.1 6.7498 39.3 12.5498 39.5 17.3498C38.6 17.4498 37.7 17.5498 36.7 17.5498C34.9 17.5498 33.1 17.7498 31.4 17.9498C29.9 14.6498 28.4 12.3498 28.4 12.3498L29.8 18.1498C21.6 19.8498 14.9 24.5498 10.4 30.8498C14.7 25.8498 20.5 22.1498 27.4 20.6498C28.3 20.3498 29.3 20.0498 30.2 19.8498L30.9 22.8498C29.7 23.2498 28.3 23.5498 26.8 23.9498C16.6 26.9498 9.8 36.1498 7.5 46.2498C4.8 45.7498 2.1 45.1498 0 44.4498C2.1 45.3498 4.7 46.3498 7.3 47.3498C6.4 52.2498 6.6 57.2498 7.9 61.9498C8 62.1498 8 62.3498 8.1 62.5498C7.4 62.6498 6.5 62.7498 5.6 62.8498C6.5 63.0498 7.4 63.1498 8.3 63.1498C9.6 66.7498 11.8 70.0498 14.9 72.5498C16.2 73.5498 16.8 74.6498 17.1 75.7498C15.9 77.4498 14.6 79.3498 13.1 81.2498C0.700001 66.6498 0.9 49.2498 0.9 49.2498C0 58.8498 2.2 72.7498 11.5 83.4498C8.9 87.0498 5.9 90.7498 3 94.4498C6.6 90.8498 9.9 87.6498 12.8 84.8498C16.1 88.3498 20.2 91.4498 25.3 93.8498C23.8 98.4498 22 103.35 20 107.65C22.6 104.65 25.2 99.7498 27.4 94.8498C32.2 96.8498 37.8 98.3498 44.3 99.0498C38 97.6498 32.6 95.6498 28 93.1498C31.3 85.7498 33.6 78.5498 33.8 77.8498C34.2 77.8498 34.5 77.9498 34.8 78.0498C36 78.4498 37.3 78.6498 38.5 78.8498C38.1 82.7498 39.2 83.2498 37.8 90.2498C40.1 85.6498 40.7 81.1498 40.8 79.1498C41.8 79.2498 42.8 79.3498 43.7 79.3498C48.4 79.3498 52 78.9498 54.9 77.6498C55.1 78.6498 55.4 79.7498 55.9 80.6498C55.9 80.7498 56 80.8498 56 80.9498C53.6 82.6498 52 84.8498 51.8 89.4498C51.6 89.5498 51.4 89.5498 51.2 89.6498C49.6 90.8498 48.5 92.4498 47.8 94.6498C49.4 92.1498 51.9 90.7498 55.4 89.8498C57.2 89.3498 58.9 88.7498 60.6 88.0498C62.9 90.7498 73.2 105.05 73.2 105.05L62.2 87.5498C65.6 85.8498 70.3 82.9498 74.7 77.7498C77.9 78.7498 81.6 80.1498 86 81.9498C81.9 79.8498 78.6 77.9498 76.1 76.0498C80.7 69.9498 84.7 61.1498 86.6 48.2498C84.1 59.2498 78.8 68.0498 73.6 74.2498ZM25.2 28.7498C25.8 30.8498 27.9 35.7498 26.8 37.0498C24.5 39.9498 22.7 43.3498 21.5 46.9498C19.4 46.5498 16 46.1498 12.4 45.5498C14.4 38.7498 18.8 32.6498 25.2 28.7498ZM12 47.0498C15.5 48.3498 18.9 49.5498 20.6 50.2498C20.2 52.2498 19.9 54.2498 19.9 56.2498C19.9 57.2498 20 58.2498 20.2 59.2498C16.8 59.8498 16.1 60.7498 12.1 61.4498C10.8 56.6498 10.9 51.7498 12 47.0498ZM19.2 72.6498C15.8 69.8498 13.5 66.2498 12.3 62.2498C16.3 62.3498 20.3 64.5498 21.5 64.2498C22.2 66.6498 22.6 68.1498 23.6 69.7498C22.8 70.9498 21.7 72.4498 20.6 74.0498C20.2 73.6498 19.8 73.1498 19.2 72.6498ZM28.8 90.9498C24.3 88.2498 20.6 85.2498 17.6 81.9498C21.8 77.8498 24.9 74.8498 26.7 73.1498C28 74.9498 28.9 78.3498 26.2 87.2498C27 85.9498 32 78.2498 32.9 77.7498C31.9 80.5498 30.5 85.4498 28.8 90.9498ZM33.4 31.1498C31.2 32.6498 27.4 30.2498 25.3 28.7498C27.5 27.4498 29.8 26.4498 32.4 25.7498C33.4 25.4498 34.3 25.2498 35.1 24.8498L36.3 29.6498C35.3 30.0498 34.3 30.5498 33.4 31.1498ZM36.3 20.9498C36 20.0498 35.7 19.2498 35.4 18.4498C36.5 18.2498 37.5 18.1498 38.6 18.0498C38.1 19.4498 37.3 20.3498 36.3 20.9498ZM37.4 29.1498C37.5 28.0498 37.5 26.6498 37.4 25.4498C37.3 24.8498 37.2 24.2498 37.1 23.7498C38.6 22.6498 39.9 20.8498 40.7 17.9498C40.9 17.9498 41.1 17.9498 41.3 17.9498C41.9 17.9498 42.4 17.9498 42.9 17.8498C43.1 22.5498 43.2 26.0498 43.2 28.0498C41.2 28.1498 39.2 28.5498 37.4 29.1498ZM71.8 68.1498C69.9 65.4498 69.7 63.3498 69.9 61.9498C70.8 60.6498 72.3 59.4498 75.2 59.1498C74.5 62.3498 73.4 65.3498 71.8 68.1498ZM75.2 58.4498C72.5 56.8498 71.4 54.6498 71.1 51.6498C72.6 51.4498 74.1 51.1498 75.5 50.6498C75.8 53.2498 75.7 55.9498 75.2 58.4498ZM65.6 27.1498C68.4 29.2498 71 31.6498 73.2 34.3498C76.5 38.2498 78.5 42.8498 79.3 47.6498L76.7 48.2498C76 45.0498 74.9 42.0498 73.3 39.3498C71.6 36.3498 69.1 33.8498 66.1 31.9498C66.1 32.0498 66.1 32.1498 66.1 32.3498C68.4 34.0498 70.3 36.2498 71.8 38.7498C73.6 41.8498 74.7 45.2498 75.2 48.6498L70.8 49.6498C69.9 43.5498 66.5 38.2498 61.7 34.4498C63.8 31.4498 64.4 29.6498 65.6 27.1498ZM60.6 75.0498C60.8 74.9498 60.9 74.7498 61.1 74.6498C61.8 74.2498 63.5 73.7498 67.1 74.1498C65.4 75.8498 63.3 77.4498 61.1 78.6498C61 78.7498 60.9 78.7498 60.8 78.8498L59.1 76.0498C59.6 75.7498 60.1 75.4498 60.6 75.0498ZM57.1 87.7498C57 87.7498 56.9 87.7498 56.8 87.8498C57 85.2498 58.5 83.9498 60.5 82.6498C61.2 83.7498 61.9 84.8498 62.7 85.7498C60.9 86.6498 59 87.2498 57.1 87.7498ZM66 82.4498C65.2 82.9498 64.4 83.4498 63.5 83.8498L62.4 81.6498C62.8 81.4498 63.3 81.1498 63.7 80.9498C66.6 79.3498 69 77.2498 70.9 74.8498C71.9 75.0498 73.1 75.3498 74.3 75.7498C71.2 79.0498 68.2 81.3498 66 82.4498Z" fill="#0D0D0D"/>
</svg>
