<svg width="83" height="84" viewBox="0 0 83 84" fill="none" xmlns="http://www.w3.org/2000/svg">
<path d="M64.3504 72.8998C63.5504 73.3998 62.7504 73.8998 61.8504 74.2998L59.8504 70.8998C60.2504 70.6998 60.7504 70.3998 61.1504 70.1998C72.1504 63.9998 76.3504 51.1998 74.5504 39.4998C75.4504 39.1998 76.2504 38.8998 76.9504 38.4998C76.9504 38.5998 76.9504 38.6998 76.9504 38.7998C77.0504 38.7998 77.1504 38.8998 77.1504 38.8998C77.1504 38.7998 77.1504 38.5998 77.0504 38.3998C80.0504 37.0998 82.1504 35.6998 82.1504 35.6998L76.8504 36.8998C76.3504 31.2998 74.1504 25.9998 70.4504 21.3998C69.2504 19.9998 68.0504 18.6998 66.7504 17.3998C65.7504 16.5998 64.6504 15.8998 63.5504 15.1998C64.5504 13.3998 66.1504 11.0998 68.8504 7.6998C66.0504 9.6998 63.6504 11.8998 61.7504 13.9998C57.5504 11.4998 52.8504 9.6998 48.0504 8.4998C52.6504 9.9998 57.0504 12.0998 60.9504 14.7998C58.5504 17.5998 56.9504 19.9998 56.1504 21.3998C51.6504 18.6998 46.3504 17.0998 41.0504 17.0998C38.8504 17.0998 36.6504 17.4998 34.6504 18.1998C34.7504 17.0998 34.7504 15.6998 34.6504 14.4998C34.5504 13.8998 34.4504 13.2998 34.3504 12.7998C35.8504 11.6998 37.1504 9.8998 37.9504 6.9998C38.1504 6.9998 38.3504 6.9998 38.5504 6.9998C39.5504 6.9998 40.5504 6.8998 41.4504 6.7998C43.2504 5.9998 44.7504 4.6998 45.9504 2.6998C43.7504 4.7998 41.0504 5.4998 37.3504 5.4998C35.5504 5.4998 33.7504 5.6998 32.0504 5.8998C30.5504 2.5998 29.0504 0.299805 29.0504 0.299805L30.4504 6.09981C22.2504 7.79981 15.5504 12.4998 11.0504 18.7998C15.3504 13.7998 21.1504 10.0998 28.0504 8.59981C28.9504 8.29981 29.9504 7.9998 30.8504 7.7998L31.5504 10.7998C30.3504 11.1998 28.9504 11.4998 27.4504 11.8998C16.7504 14.7998 9.85039 23.9998 7.65039 34.1998C4.95039 33.6998 2.25039 33.0998 0.150391 32.3998C2.25039 33.2998 4.85039 34.2998 7.45039 35.2998C6.55039 40.1998 6.75039 45.1998 8.05039 49.8998C8.15039 50.0998 8.1504 50.2998 8.2504 50.4998C7.5504 50.5998 6.6504 50.6998 5.7504 50.7998C6.6504 50.9998 7.55039 51.0998 8.45039 51.0998C9.75039 54.6998 11.9504 57.9998 15.0504 60.4998C17.5504 62.5998 17.8504 64.4998 16.5504 67.1998C17.1504 66.8998 17.7504 66.6998 18.4504 66.3998C18.8504 64.5998 18.2504 62.9998 16.3504 61.4998C12.9504 58.6998 10.6504 55.0998 9.45039 51.0998C13.4504 51.1998 16.6504 50.4998 17.7504 50.1998C18.7504 53.6998 20.7504 56.7998 23.3504 59.3998C24.9504 60.9998 27.1504 63.9998 27.3504 69.2998C28.1504 67.9998 29.0504 67.0998 29.9504 66.5998C28.2504 71.8998 29.3504 73.4998 24.6504 83.3998C31.3504 75.5998 33.6504 66.8998 33.9504 65.6998C34.3504 65.6998 34.6504 65.7998 34.9504 65.8998C36.1504 66.2998 37.4504 66.4998 38.6504 66.6998C38.2504 70.5998 39.3504 71.0998 37.9504 78.0998C40.2504 73.4998 40.8504 68.9998 40.9504 66.9998C41.9504 67.0998 42.9504 67.1998 43.8504 67.1998C48.5504 67.1998 52.1504 66.7998 55.0504 65.4998C55.2504 66.4998 55.5504 67.5998 56.0504 68.4998C56.0504 68.5998 56.1504 68.6998 56.1504 68.7998C53.7504 70.4998 52.1504 72.6998 51.9504 77.2998C51.7504 77.3998 51.5504 77.3998 51.3504 77.4998C49.7504 78.6998 48.6504 80.2998 47.9504 82.4998C49.5504 79.9998 52.0504 78.5998 55.5504 77.6998C57.3504 77.1998 59.0504 76.5998 60.7504 75.8998C63.0504 78.5998 65.2504 80.3998 65.2504 80.3998L62.2504 75.1998C69.6504 71.5998 75.0504 65.3998 77.8504 58.2998C75.3504 64.6998 70.6504 69.6998 64.3504 72.8998ZM32.9504 7.6998C34.0504 7.4998 35.0504 7.3998 36.1504 7.2998C35.6504 8.6998 34.8504 9.5998 33.8504 10.1998C33.5504 9.2998 33.2504 8.4998 32.9504 7.6998ZM9.65039 50.6998C8.45039 45.8998 8.45039 40.9998 9.55039 36.2998C13.0504 37.5998 16.4504 38.7998 18.1504 39.4998C17.7504 41.4998 17.4504 43.4998 17.4504 45.4998C17.4504 46.4998 17.5504 47.4998 17.7504 48.4998C14.2504 49.0998 13.6504 49.9998 9.65039 50.6998ZM24.8504 20.1998C25.4504 22.2998 25.3504 24.9998 24.2504 26.3998C21.9504 29.2998 20.1504 32.6998 18.9504 36.2998C16.8504 35.8998 13.4504 35.4998 9.8504 34.8998C12.5504 25.6998 19.5504 17.8998 29.8504 15.0998C30.8504 14.7998 31.7504 14.5998 32.5504 14.1998L33.7504 18.9998C32.7504 19.3998 31.7504 19.8998 30.8504 20.5998C28.7504 21.8998 26.9504 21.6998 24.8504 20.1998ZM72.7504 47.6998C70.0504 46.0998 68.9504 43.8998 68.6504 40.8998C70.1504 40.6998 71.6504 40.3998 73.0504 39.8998C73.3504 42.4998 73.2504 45.0998 72.7504 47.6998ZM63.1504 16.3998C65.9504 18.4998 68.5504 20.8998 70.7504 23.5998C74.0504 27.4998 76.0504 32.0998 76.8504 36.8998L74.2504 37.4998C73.5504 34.2998 72.4504 31.2998 70.8504 28.5998C69.1504 25.5998 66.6504 23.0998 63.6504 21.1998C63.6504 21.2998 63.6504 21.3998 63.6504 21.5998C65.9504 23.2998 67.8504 25.4998 69.3504 27.9998C71.1504 31.0998 72.2504 34.4998 72.7504 37.8998L68.3504 38.8998C67.4504 32.7998 64.0504 27.4998 59.2504 23.6998C61.3504 20.6998 61.8504 18.8998 63.1504 16.3998ZM56.6504 65.2998C60.3504 63.1998 63.2504 59.3998 66.5504 52.5998C67.4504 50.8998 68.7504 48.8998 72.6504 48.4998C71.1504 56.3998 66.4504 63.5998 58.6504 67.9998C58.5504 68.0998 58.4504 68.0998 58.3504 68.1998L56.6504 65.2998ZM54.6504 76.9998C54.5504 76.9998 54.4504 76.9998 54.3504 77.0998C54.5504 74.4998 56.0504 73.1998 58.0504 71.8998C58.7504 72.9998 59.4504 74.0998 60.2504 74.9998C58.4504 75.8998 56.5504 76.4998 54.6504 76.9998Z" fill="#0D0D0D"/>
</svg>
