<svg width="32" height="32" viewBox="0 0 32 32" fill="none" xmlns="http://www.w3.org/2000/svg">
<path d="M26.5639 16.4702V26.716H4.63856V4.737H14.8594V0.316406H2.45427C1.21788 0.316406 0.22876 1.30794 0.22876 2.54736V28.947C0.22876 30.1864 1.21788 31.1779 2.45427 31.1779H28.7895C30.0259 31.1779 31.015 30.1864 31.015 28.947V16.4702H26.5639Z" fill="#7AE72C"/>
<path d="M13.128 13.4949L11.397 18.0807C11.191 18.8657 11.6443 19.692 12.4274 19.8986C12.6747 19.9399 12.9632 19.9399 13.2104 19.8986L17.8263 18.2047C18.0736 18.1634 18.3209 17.9981 18.4445 17.7915L30.2315 5.97575C30.8085 5.39736 31.1794 4.77765 30.5612 4.24057L27.3878 0.976765C26.8108 0.39837 25.8629 0.39837 25.3271 0.976765L13.5401 12.8339C13.3341 12.9991 13.2104 13.247 13.128 13.4949Z" fill="#7AE72C"/>
</svg>
