<svg width="115" height="161" viewBox="0 0 115 161" fill="none" xmlns="http://www.w3.org/2000/svg">
<path fill-rule="evenodd" clip-rule="evenodd" d="M57.7884 39.3423C53.0209 39.4243 48.3839 40.9149 44.4595 43.6271C40.5352 46.3393 37.4984 50.1521 35.7306 54.5869C33.9628 59.0216 33.5426 63.8805 34.523 68.5535C35.5034 73.2265 37.8405 77.5054 41.2409 80.8527C44.6414 84.2 48.9536 86.4667 53.636 87.368C58.3185 88.2694 63.1625 87.7653 67.5598 85.919C71.9571 84.0726 75.7117 80.9665 78.3521 76.9904C80.9926 73.0144 82.4013 68.3457 82.4011 63.5707C82.3385 57.0915 79.712 50.9017 75.0977 46.3595C70.4835 41.8173 64.2584 39.2937 57.7884 39.3423V39.3423ZM107.014 63.5707C107.007 60.3818 106.682 57.2015 106.042 54.0775L113.969 45.5984L102.37 43.2985C99.6534 37.553 95.8356 32.3982 91.1338 28.127L92.5041 16.5234L81.6352 21.4264C76.0693 18.3687 69.9629 16.4238 63.6559 15.7L57.7884 5.42188L51.9141 15.7C45.607 16.4238 39.5006 18.3687 33.9348 21.4264L23.0658 16.5234L24.4361 28.127C19.731 32.3952 15.9128 37.5507 13.1999 43.2985L1.60742 45.5984L9.53304 54.0775C8.23953 60.34 8.23953 66.8014 9.53304 73.0639L1.60742 81.5429L13.2067 83.8428C15.9219 89.5921 19.7398 94.7504 24.4429 99.024L26.0434 100.406L18.4083 160.485L57.7884 121.719L97.1685 160.485L89.5402 100.406L91.1407 99.024C95.8406 94.7474 99.658 89.5898 102.377 83.8428L113.969 81.5429L106.042 73.0639C106.682 69.9399 107.007 66.7596 107.014 63.5707V63.5707ZM57.7884 97.4911C51.1138 97.3765 44.6218 95.2896 39.1276 91.4925C33.6334 87.6954 29.3818 82.3575 26.9068 76.1488C24.4317 69.9401 23.8435 63.1374 25.216 56.5951C26.5885 50.0527 29.8605 44.0622 34.6211 39.3758C39.3818 34.6895 45.4189 31.5161 51.9744 30.2542C58.5299 28.9922 65.3117 29.698 71.468 32.2828C77.6244 34.8676 82.881 39.2163 86.5777 44.7828C90.2745 50.3493 92.2466 56.8855 92.2465 63.5707C92.1571 72.6412 88.4794 81.3059 82.0198 87.6648C75.5602 94.0236 66.846 97.5574 57.7884 97.4911Z" fill="#1B0A05"/>
<path fill-rule="evenodd" clip-rule="evenodd" d="M57.7884 35.3463C53.0209 35.4282 48.3839 36.9188 44.4595 39.631C40.5352 42.3432 37.4984 46.156 35.7306 50.5908C33.9628 55.0255 33.5426 59.8844 34.523 64.5574C35.5034 69.2304 37.8405 73.5093 41.2409 76.8566C44.6414 80.2039 48.9536 82.4706 53.636 83.3719C58.3185 84.2733 63.1625 83.7692 67.5598 81.9229C71.9571 80.0766 75.7117 76.9704 78.3521 72.9943C80.9926 69.0183 82.4013 64.3496 82.4011 59.5746C82.3385 53.0954 79.712 46.9056 75.0977 42.3634C70.4835 37.8212 64.2584 35.2976 57.7884 35.3463V35.3463ZM107.014 59.5746C107.007 56.3857 106.682 53.2054 106.042 50.0814L113.969 41.6023L102.37 39.3024C99.6534 33.5569 95.8356 28.4021 91.1338 24.1309L92.5041 12.5273L81.6352 17.4303C76.0693 14.3726 69.9629 12.4277 63.6559 11.7039L57.7884 1.42578L51.9141 11.7039C45.607 12.4277 39.5006 14.3726 33.9348 17.4303L23.0658 12.5273L24.4361 24.1309C19.731 28.3991 15.9128 33.5546 13.1999 39.3024L1.60742 41.6023L9.53304 50.0814C8.23953 56.3439 8.23953 62.8053 9.53304 69.0678L1.60742 77.5468L13.2067 79.8467C15.9219 85.596 19.7398 90.7543 24.4429 95.0279L26.0434 96.4097L18.4083 156.489L57.7884 117.723L97.1685 156.489L89.5402 96.4097L91.1407 95.0279C95.8406 90.7513 99.658 85.5937 102.377 79.8467L113.969 77.5468L106.042 69.0678C106.682 65.9438 107.007 62.7635 107.014 59.5746V59.5746ZM57.7884 93.4951C51.1138 93.3804 44.6218 91.2935 39.1276 87.4964C33.6334 83.6993 29.3818 78.3614 26.9068 72.1527C24.4317 65.944 23.8435 59.1413 25.216 52.599C26.5885 46.0566 29.8605 40.0661 34.6211 35.3798C39.3818 30.6934 45.4189 27.52 51.9744 26.2581C58.5299 24.9961 65.3117 25.7019 71.468 28.2867C77.6244 30.8715 82.881 35.2202 86.5777 40.7867C90.2745 46.3532 92.2466 52.8894 92.2465 59.5746C92.1571 68.6451 88.4794 77.3098 82.0198 83.6687C75.5602 90.0275 66.846 93.5613 57.7884 93.4951Z" fill="#BE7830" stroke="#2E170F" stroke-width="1.59859" stroke-linejoin="round"/>
<path d="M60.7271 56.7842C62.9497 57.0592 64.6452 57.8153 65.8138 59.0526C66.9824 60.2899 67.5667 61.8366 67.5667 63.6925C67.5667 65.8464 66.7418 67.645 65.0921 69.0886C63.4652 70.5321 61.1166 71.2539 58.0463 71.2539C56.3278 71.2539 54.6666 71.0133 53.0627 70.5321C51.4816 70.028 50.1298 69.3406 49.007 68.4699L50.9317 64.9986C52.8106 66.5796 55.1592 67.3701 57.9775 67.3701C59.5585 67.3701 60.7958 67.0493 61.6895 66.4077C62.606 65.7432 63.0642 64.8496 63.0642 63.7269C63.0642 61.3439 61.3228 60.1524 57.84 60.1524H55.6404V57.0935L61.1052 50.5977H50.1756V46.8514H66.57V49.8415L60.7271 56.7842Z" fill="#E9AF74"/>
</svg>
