<svg width="115" height="162" viewBox="0 0 115 162" fill="none" xmlns="http://www.w3.org/2000/svg">
<path fill-rule="evenodd" clip-rule="evenodd" d="M57.1497 39.3423C52.3823 39.4243 47.7452 40.9149 43.8208 43.6271C39.8965 46.3393 36.8597 50.1521 35.0919 54.5869C33.3241 59.0216 32.904 63.8805 33.8843 68.5535C34.8647 73.2265 37.2018 77.5054 40.6023 80.8527C44.0027 84.2 48.3149 86.4667 52.9973 87.368C57.6798 88.2694 62.5238 87.7653 66.9211 85.919C71.3184 84.0726 75.073 80.9665 77.7135 76.9904C80.3539 73.0144 81.7626 68.3457 81.7625 63.5707C81.6999 57.0915 79.0733 50.9017 74.459 46.3595C69.8448 41.8173 63.6197 39.2937 57.1497 39.3423V39.3423ZM106.375 63.5707C106.368 60.3818 106.043 57.2015 105.404 54.0775L113.331 45.5984L101.731 43.2985C99.0147 37.553 95.1969 32.3982 90.4952 28.127L91.8654 16.5234L80.9965 21.4264C75.4307 18.3687 69.3243 16.4238 63.0172 15.7L57.1497 5.42188L51.2754 15.7C44.9683 16.4238 38.862 18.3687 33.2961 21.4264L22.4271 16.5234L23.7974 28.127C19.0924 32.3952 15.2741 37.5507 12.5612 43.2985L0.96875 45.5984L8.89437 54.0775C7.60086 60.34 7.60086 66.8014 8.89437 73.0639L0.96875 81.5429L12.5681 83.8428C15.2832 89.5921 19.1011 94.7504 23.8043 99.024L25.4047 100.406L17.7696 160.485L57.1497 121.719L96.5299 160.485L88.9016 100.406L90.502 99.024C95.2019 94.7474 99.0193 89.5898 101.738 83.8428L113.331 81.5429L105.404 73.0639C106.043 69.9399 106.368 66.7596 106.375 63.5707V63.5707ZM57.1497 97.4911C50.4752 97.3765 43.9832 95.2896 38.4889 91.4925C32.9947 87.6954 28.7432 82.3575 26.2681 76.1488C23.793 69.9401 23.2048 63.1374 24.5773 56.5951C25.9498 50.0527 29.2218 44.0622 33.9825 39.3758C38.7431 34.6895 44.7802 31.5161 51.3357 30.2542C57.8913 28.9922 64.673 29.698 70.8294 32.2828C76.9857 34.8676 82.2423 39.2163 85.9391 44.7828C89.6358 50.3493 91.6079 56.8855 91.6078 63.5707C91.5185 72.6412 87.8407 81.3059 81.3811 87.6648C74.9215 94.0236 66.2073 97.5574 57.1497 97.4911Z" fill="#1B0A05" stroke="#2E170F" stroke-width="1.59859" stroke-linejoin="round"/>
<path fill-rule="evenodd" clip-rule="evenodd" d="M57.1497 35.3463C52.3823 35.4282 47.7452 36.9188 43.8208 39.631C39.8965 42.3432 36.8597 46.156 35.0919 50.5908C33.3241 55.0255 32.904 59.8844 33.8843 64.5574C34.8647 69.2304 37.2018 73.5093 40.6023 76.8566C44.0027 80.2039 48.3149 82.4706 52.9973 83.3719C57.6798 84.2733 62.5238 83.7692 66.9211 81.9229C71.3184 80.0766 75.073 76.9704 77.7135 72.9943C80.3539 69.0183 81.7626 64.3496 81.7625 59.5746C81.6999 53.0954 79.0733 46.9056 74.459 42.3634C69.8448 37.8212 63.6197 35.2976 57.1497 35.3463V35.3463ZM106.375 59.5746C106.368 56.3857 106.043 53.2054 105.404 50.0814L113.331 41.6023L101.731 39.3024C99.0147 33.5569 95.1969 28.4021 90.4952 24.1309L91.8654 12.5273L80.9965 17.4303C75.4307 14.3726 69.3243 12.4277 63.0172 11.7039L57.1497 1.42578L51.2754 11.7039C44.9683 12.4277 38.862 14.3726 33.2961 17.4303L22.4271 12.5273L23.7974 24.1309C19.0924 28.3991 15.2741 33.5546 12.5612 39.3024L0.96875 41.6023L8.89437 50.0814C7.60086 56.3439 7.60086 62.8053 8.89437 69.0678L0.96875 77.5468L12.5681 79.8467C15.2832 85.596 19.1011 90.7543 23.8043 95.0279L25.4047 96.4097L17.7696 156.489L57.1497 117.723L96.5299 156.489L88.9016 96.4097L90.502 95.0279C95.2019 90.7513 99.0193 85.5937 101.738 79.8467L113.331 77.5468L105.404 69.0678C106.043 65.9438 106.368 62.7635 106.375 59.5746V59.5746ZM57.1497 93.4951C50.4752 93.3804 43.9832 91.2935 38.4889 87.4964C32.9947 83.6993 28.7432 78.3614 26.2681 72.1527C23.793 65.944 23.2048 59.1413 24.5773 52.599C25.9498 46.0566 29.2218 40.0661 33.9825 35.3798C38.7431 30.6934 44.7802 27.52 51.3357 26.2581C57.8913 24.9961 64.673 25.7019 70.8294 28.2867C76.9857 30.8715 82.2423 35.2202 85.9391 40.7867C89.6358 46.3532 91.6079 52.8894 91.6078 59.5746C91.5185 68.6451 87.8407 77.3098 81.3811 83.6687C74.9215 90.0275 66.2073 93.5613 57.1497 93.4951Z" fill="#8C4700" stroke="#2E170F" stroke-width="1.59859" stroke-linejoin="round"/>
<path d="M68.1582 60.4928V64.2735H63.8963V69.7383H59.5658V64.2735H46.3678V61.1802L58.2253 45.6795H63.0027L51.8326 60.4928H59.7032V55.6467H63.8963V60.4928H68.1582Z" fill="#2D130B"/>
</svg>
