<svg width="115" height="161" viewBox="0 0 115 161" fill="none" xmlns="http://www.w3.org/2000/svg">
<path fill-rule="evenodd" clip-rule="evenodd" d="M57.1497 39.5728C52.3822 39.6547 47.7452 41.1454 43.8208 43.8576C39.8964 46.5697 36.8597 50.3826 35.0919 54.8173C33.324 59.2521 32.9039 64.111 33.8843 68.784C34.8646 73.457 37.2018 77.7358 40.6022 81.0832C44.0027 84.4305 48.3148 86.6971 52.9973 87.5985C57.6797 88.4998 62.5237 87.9957 66.921 86.1494C71.3184 84.3031 75.0729 81.1969 77.7134 77.2209C80.3539 73.2449 81.7625 68.5762 81.7624 63.8011C81.6998 57.3219 79.0732 51.1322 74.459 46.59C69.8447 42.0478 63.6197 39.5242 57.1497 39.5728V39.5728ZM106.375 63.8011C106.368 60.6122 106.043 57.4319 105.404 54.3079L113.331 45.8289L101.731 43.529C99.0146 37.7834 95.1968 32.6286 90.4951 28.3575L91.8653 16.7538L80.9964 21.6568C75.4306 18.5991 69.3242 16.6542 63.0172 15.9304L57.1497 5.65234L51.2753 15.9304C44.9683 16.6542 38.8619 18.5991 33.2961 21.6568L22.4271 16.7538L23.7974 28.3575C19.0923 32.6257 15.2741 37.7812 12.5612 43.529L0.96875 45.8289L8.89436 54.3079C7.60085 60.5704 7.60085 67.0319 8.89436 73.2944L0.96875 81.7734L12.568 84.0733C15.2832 89.8226 19.1011 94.9808 23.8042 99.2544L25.4047 100.636L17.7696 160.716L57.1497 121.95L96.5298 160.716L88.9015 100.636L90.5019 99.2544C95.2018 94.9779 99.0192 89.8203 101.738 84.0733L113.331 81.7734L105.404 73.2944C106.043 70.1703 106.368 66.9901 106.375 63.8011V63.8011ZM57.1497 97.7216C50.4751 97.607 43.9831 95.5201 38.4889 91.723C32.9947 87.9259 28.7431 82.5879 26.2681 76.3792C23.793 70.1705 23.2048 63.3679 24.5773 56.8255C25.9498 50.2832 29.2218 44.2927 33.9824 39.6063C38.7431 34.9199 44.7802 31.7466 51.3357 30.4846C57.8912 29.2227 64.6729 29.9284 70.8293 32.5133C76.9856 35.0981 82.2422 39.4468 85.939 45.0133C89.6357 50.5798 91.6078 57.116 91.6077 63.8011C91.5184 72.8716 87.8406 81.5364 81.381 87.8952C74.9214 94.254 66.2073 97.7878 57.1497 97.7216Z" fill="#1B0A05"/>
<path fill-rule="evenodd" clip-rule="evenodd" d="M57.1497 35.5767C52.3822 35.6587 47.7452 37.1493 43.8208 39.8615C39.8964 42.5737 36.8597 46.3865 35.0919 50.8212C33.324 55.256 32.9039 60.1149 33.8843 64.7879C34.8646 69.4609 37.2018 73.7397 40.6022 77.0871C44.0027 80.4344 48.3148 82.701 52.9973 83.6024C57.6797 84.5037 62.5237 83.9996 66.921 82.1533C71.3184 80.307 75.0729 77.2008 77.7134 73.2248C80.3539 69.2488 81.7625 64.5801 81.7624 59.8051C81.6998 53.3258 79.0732 47.1361 74.459 42.5939C69.8447 38.0517 63.6197 35.5281 57.1497 35.5767V35.5767ZM106.375 59.8051C106.368 56.6161 106.043 53.4359 105.404 50.3118L113.331 41.8328L101.731 39.5329C99.0146 33.7873 95.1968 28.6325 90.4951 24.3614L91.8653 12.7577L80.9964 17.6608C75.4306 14.603 69.3242 12.6581 63.0172 11.9343L57.1497 1.65625L51.2753 11.9343C44.9683 12.6581 38.8619 14.603 33.2961 17.6608L22.4271 12.7577L23.7974 24.3614C19.0923 28.6296 15.2741 33.7851 12.5612 39.5329L0.96875 41.8328L8.89436 50.3118C7.60085 56.5743 7.60085 63.0358 8.89436 69.2983L0.96875 77.7773L12.568 80.0772C15.2832 85.8265 19.1011 90.9847 23.8042 95.2583L25.4047 96.6402L17.7696 156.72L57.1497 117.954L96.5298 156.72L88.9015 96.6402L90.5019 95.2583C95.2018 90.9818 99.0192 85.8242 101.738 80.0772L113.331 77.7773L105.404 69.2983C106.043 66.1743 106.368 62.994 106.375 59.8051V59.8051ZM57.1497 93.7255C50.4751 93.6109 43.9831 91.524 38.4889 87.7269C32.9947 83.9298 28.7431 78.5918 26.2681 72.3831C23.793 66.1744 23.2048 59.3718 24.5773 52.8294C25.9498 46.2871 29.2218 40.2966 33.9824 35.6102C38.7431 30.9238 44.7802 27.7505 51.3357 26.4885C57.8912 25.2266 64.6729 25.9323 70.8293 28.5172C76.9856 31.102 82.2422 35.4507 85.939 41.0172C89.6357 46.5837 91.6078 53.1199 91.6077 59.8051C91.5184 68.8755 87.8406 77.5403 81.381 83.8991C74.9214 90.258 66.2073 93.7917 57.1497 93.7255Z" fill="#9CB9B8" stroke="#2E170F" stroke-width="1.59859" stroke-linejoin="round"/>
<path d="M55.9629 67.5045H67.3049V71.2852H49.5701V68.295L59.1249 59.2214C60.958 57.48 61.8745 55.8188 61.8745 54.2378C61.8745 53.115 61.4964 52.2558 60.7403 51.66C59.9842 51.0643 58.8729 50.7664 57.4064 50.7664C54.9547 50.7664 53.0758 51.6028 51.7698 53.2754L48.6421 50.8695C49.5816 49.6093 50.8418 48.6355 52.4228 47.9481C54.0267 47.2378 55.814 46.8827 57.7845 46.8827C60.3966 46.8827 62.4817 47.5013 64.0398 48.7386C65.5979 49.9759 66.3769 51.66 66.3769 53.791C66.3769 55.097 66.102 56.3229 65.552 57.4685C65.0021 58.6142 63.9481 59.9202 62.39 61.3867L55.9629 67.5045Z" fill="#3C4A4A"/>
</svg>
