<svg width="39" height="44" viewBox="0 0 39 44" fill="none" xmlns="http://www.w3.org/2000/svg">
<path d="M38.2457 36.3869C38.2482 36.2992 38.25 36.2141 38.25 36.127L38.2457 36.3869ZM38.2457 36.3869C33.0674 40.8065 26.4053 43.25 19.5 43.25C12.5947 43.25 5.93261 40.8065 0.754349 36.3869C0.751757 36.2992 0.750001 36.2141 0.75 36.127L38.2457 36.3869ZM0.75 36.127C0.750208 33.6613 1.27567 31.2218 2.29398 28.9619C3.20342 26.9436 4.48863 25.1071 6.08364 23.5441C7.60381 25.3909 9.51062 26.9045 11.6793 27.9829C14.1013 29.1871 16.7816 29.8146 19.5 29.8146C22.2184 29.8146 24.8987 29.1871 27.3207 27.9829C29.4894 26.9045 31.3962 25.3909 32.9164 23.5441C34.5114 25.1071 35.7966 26.9436 36.706 28.9619C37.7243 31.2218 38.2498 33.6613 38.25 36.127H0.75ZM19.2961 25.4889C16.7766 25.4644 14.3225 24.7159 12.2429 23.3398C10.1631 21.9635 8.55192 20.0219 7.60904 17.762C6.66627 15.5024 6.43272 13.0233 6.93691 10.6361C7.44113 8.24871 8.66138 6.05676 10.4474 4.33752C12.2337 2.61807 14.5059 1.44863 16.979 0.97962C19.4522 0.510597 22.0126 0.763659 24.3369 1.70608C26.6611 2.64843 28.6431 4.23688 30.0356 6.26818C31.4275 8.29859 32.1691 10.6816 32.1696 13.1173C32.1525 16.4075 30.792 19.561 28.3799 21.8828C25.9673 24.2052 22.7002 25.5046 19.2961 25.4889Z" fill="#A5BFBE" stroke="black" stroke-width="1.5"/>
</svg>
