<svg width="784" height="200" viewBox="0 0 784 200" fill="none" xmlns="http://www.w3.org/2000/svg">
<path d="M33.7874 199.129C33.7874 199.129 125.009 174.514 172.016 171.349L135.714 71.8322L0.277344 98.2058L63.5741 138.997L33.7874 199.129Z" fill="url(#paint0_linear_550_10015)"/>
<path d="M171.552 171.352L119.89 141.461L102.67 78.5164L135.715 72.1867L171.552 171.352Z" fill="url(#paint1_linear_550_10015)"/>
<path d="M750.065 199.129C750.065 199.129 658.843 174.514 611.836 171.349L648.138 71.8322L783.575 98.2058L720.278 138.997L750.065 199.129Z" fill="url(#paint2_linear_550_10015)"/>
<path d="M612.301 171.352L663.962 141.461L681.648 78.5164L648.603 71.8351L612.301 171.352Z" fill="url(#paint3_linear_550_10015)"/>
<path d="M392.155 115.783C217.624 115.783 119.886 141.453 119.886 141.453L91.9609 39.1234C192.956 7.82666 392.155 9.23326 392.155 9.23326C392.155 9.23326 591.819 7.82666 692.814 39.475L664.889 141.805C664.424 141.453 566.686 115.783 392.155 115.783Z" fill="url(#paint4_linear_550_10015)"/>
<path d="M6.06129 90.092L64.7646 127.923L66.415 128.987L65.5435 130.746L37.9066 186.538C40.4582 185.87 43.969 184.959 48.2345 183.876C57.5334 181.516 70.4228 178.336 84.7849 175.056C112.308 168.772 145.389 162.086 168.956 160.148L134.292 65.1216L6.06129 90.092Z" fill="#DF9A48" stroke="black" stroke-width="4.3956"/>
<path d="M105.417 71.0014L121.772 130.784L167.437 157.205L134.285 65.4717L105.417 71.0014Z" fill="#DF9A48" stroke="black" stroke-width="4.3956"/>
<path d="M745.946 186.526L718.309 130.734L717.437 128.975L719.088 127.911L777.791 90.0803L649.56 65.1099L614.896 160.136C638.463 162.074 671.545 168.76 699.067 175.045C713.429 178.324 726.319 181.505 735.618 183.865C739.883 184.947 743.394 185.858 745.946 186.526Z" fill="#DF9A48" stroke="black" stroke-width="4.3956"/>
<path d="M650.02 65.1256L616.44 157.179L662.088 130.768L678.892 70.9631L650.02 65.1256Z" fill="#DF9A48" stroke="black" stroke-width="4.3956"/>
<path d="M392.153 0.0106049C392.168 2.20836 392.169 2.20834 392.17 2.20834L392.177 2.2083L392.203 2.20811L392.311 2.20747C392.406 2.20692 392.549 2.20616 392.739 2.20532C393.117 2.20363 393.682 2.20161 394.424 2.20033C395.907 2.19777 398.096 2.1981 400.92 2.20976C406.568 2.23308 414.752 2.30167 424.889 2.48277C445.165 2.84505 473.249 3.65739 504.483 5.45751C566.187 9.01369 639.946 16.4139 690.132 31.7242L663.347 129.879C662.638 129.698 661.758 129.479 660.707 129.226C657.624 128.484 653.062 127.448 647.062 126.215C635.061 123.75 617.3 120.5 594.099 117.262C547.695 110.788 479.526 104.362 392.153 104.362C304.779 104.362 236.611 110.788 190.267 117.218C167.095 120.434 149.379 123.65 137.447 126.065C131.48 127.273 126.96 128.28 123.926 128.987C122.939 129.217 122.109 129.415 121.438 129.578L94.6406 31.3791C144.827 16.2398 218.469 8.92623 280.054 5.41363C311.231 3.63545 339.257 2.83408 359.489 2.47729C369.604 2.29892 377.77 2.2317 383.405 2.20908C386.223 2.19777 388.408 2.19759 389.887 2.20024C390.627 2.20157 391.19 2.20361 391.569 2.20531C391.758 2.20616 391.9 2.20692 391.995 2.20747L392.102 2.20811L392.129 2.2083L392.135 2.20834C392.137 2.20834 392.137 2.20836 392.153 0.0106049ZM392.153 0.0106049L392.168 2.20836L392.153 2.20847L392.137 2.20836L392.153 0.0106049Z" fill="#DF9A48" stroke="black" stroke-width="4.3956"/>
<path d="M39.5738 184.973C39.5738 184.973 123.35 161.381 166.52 158.348L133.181 62.9717L8.79883 88.2481L66.9293 127.342L39.5738 184.973Z" fill="url(#paint5_linear_550_10015)"/>
<path d="M742.809 184.965C742.809 184.965 660.41 161.373 617.949 158.34L650.741 62.9639L773.078 88.2403L715.903 127.335L742.809 184.965Z" fill="url(#paint6_linear_550_10015)"/>
<path d="M391.933 102.954C219.287 102.954 122.606 127.311 122.606 127.311L94.9824 30.2165C194.887 0.520912 391.933 1.85554 391.933 1.85554C391.933 1.85554 589.44 0.520906 689.344 30.5501L661.721 127.645C661.261 127.311 564.579 102.954 391.933 102.954Z" fill="url(#paint7_linear_550_10015)"/>
<defs>
<linearGradient id="paint0_linear_550_10015" x1="86.1468" y1="199.129" x2="86.1468" y2="71.8322" gradientUnits="userSpaceOnUse">
<stop stop-color="#4D1D0C"/>
<stop offset="0.327603" stop-color="#4D1D0C" stop-opacity="0.849486"/>
<stop offset="1" stop-color="#4D1D0C" stop-opacity="0"/>
</linearGradient>
<linearGradient id="paint1_linear_550_10015" x1="137.111" y1="171.352" x2="137.111" y2="72.1867" gradientUnits="userSpaceOnUse">
<stop stop-color="#4D1D0C"/>
<stop offset="0.327603" stop-color="#4D1D0C" stop-opacity="0.849486"/>
<stop offset="1" stop-color="#4D1D0C" stop-opacity="0"/>
</linearGradient>
<linearGradient id="paint2_linear_550_10015" x1="697.705" y1="199.129" x2="697.705" y2="71.8322" gradientUnits="userSpaceOnUse">
<stop stop-color="#4D1D0C"/>
<stop offset="0.327603" stop-color="#4D1D0C" stop-opacity="0.849486"/>
<stop offset="1" stop-color="#4D1D0C" stop-opacity="0"/>
</linearGradient>
<linearGradient id="paint3_linear_550_10015" x1="646.974" y1="171.352" x2="646.974" y2="71.8351" gradientUnits="userSpaceOnUse">
<stop stop-color="#4D1D0C"/>
<stop offset="0.327603" stop-color="#4D1D0C" stop-opacity="0.849486"/>
<stop offset="1" stop-color="#4D1D0C" stop-opacity="0"/>
</linearGradient>
<linearGradient id="paint4_linear_550_10015" x1="392.388" y1="141.805" x2="392.388" y2="9.22369" gradientUnits="userSpaceOnUse">
<stop stop-color="#4D1D0C"/>
<stop offset="0.327603" stop-color="#4D1D0C" stop-opacity="0.849486"/>
<stop offset="1" stop-color="#4D1D0C" stop-opacity="0"/>
</linearGradient>
<linearGradient id="paint5_linear_550_10015" x1="87.6597" y1="184.973" x2="87.6597" y2="62.9717" gradientUnits="userSpaceOnUse">
<stop stop-color="#C16937"/>
<stop offset="1" stop-color="#DF9A48" stop-opacity="0"/>
</linearGradient>
<linearGradient id="paint6_linear_550_10015" x1="695.514" y1="184.965" x2="695.514" y2="62.9639" gradientUnits="userSpaceOnUse">
<stop stop-color="#C16937"/>
<stop offset="1" stop-color="#DF9A48" stop-opacity="0"/>
</linearGradient>
<linearGradient id="paint7_linear_550_10015" x1="392.163" y1="127.645" x2="392.163" y2="1.84647" gradientUnits="userSpaceOnUse">
<stop stop-color="#C16937"/>
<stop offset="1" stop-color="#DF9A48" stop-opacity="0"/>
</linearGradient>
</defs>
</svg>
