<svg width="61" height="65" viewBox="0 0 61 65" fill="none" xmlns="http://www.w3.org/2000/svg">
<path d="M25.8954 43.2847L27.1418 41.9425L21.9068 36.3055L20.6604 37.6476L20.0372 36.9766C19.0401 35.7686 18.043 35.0976 17.0458 35.2318C16.298 35.2318 15.6748 35.7686 15.1762 36.5739C14.4284 37.9161 14.8023 39.3924 14.9269 40.3319C14.9269 40.6004 15.0516 40.7346 15.0516 41.003C15.0516 41.4057 15.0516 41.9425 14.1791 42.0767C12.9327 42.4794 11.3123 42.882 9.69199 43.8215C7.44845 45.1637 5.95276 46.3716 5.08027 47.5795C0.468544 54.0219 0.717827 59.5247 0.717827 59.7931C0.717827 60.1957 0.842468 60.4642 1.09175 60.5984L4.45706 64.3564C4.70635 64.6248 4.95563 64.759 5.20491 64.759C5.20491 64.759 5.32955 64.759 5.57883 64.759C6.82525 64.759 11.3123 64.4906 16.5473 60.0615C17.669 59.122 18.7908 57.5114 20.0372 55.0956C20.9097 53.485 21.4083 51.7402 21.6576 50.2638C21.9068 49.3243 22.2808 49.3243 22.6547 49.3243C22.7793 49.3243 23.0286 49.4586 23.2779 49.4586C23.7765 49.5928 24.275 49.727 24.8982 49.727C25.5214 49.727 26.1446 49.5928 26.7678 49.1901C27.5157 48.6533 28.0143 47.9822 28.1389 47.1769C28.2635 46.1032 27.765 45.0295 26.6432 44.09L25.8954 43.2847Z" fill="white"/>
<path d="M51.4473 15.7727L54.8126 14.0279C54.9372 13.8936 55.1865 13.7594 55.3111 13.6252L60.4215 6.24341C60.7954 5.70655 60.7954 4.90127 60.2968 4.49862L56.8068 0.740611C56.4329 0.337967 55.6851 0.203752 55.1865 0.606396L48.3312 6.1092C48.2066 6.24341 48.0819 6.37763 47.9573 6.64606L46.3369 10.2699L33.9974 23.1545L39.2324 28.7915L51.4473 15.7727Z" fill="white"/>
<path d="M56.9313 42.3467C53.8152 38.9913 49.3281 37.7834 45.0903 38.9913L24.7738 16.9801C25.023 15.7722 25.1477 14.6984 25.1477 13.4905C25.1477 10.1351 23.9013 6.77977 21.5331 4.22969C18.2924 0.605888 13.4314 -0.602046 8.94427 1.00853C8.69499 1.14275 8.32106 1.54539 8.19642 2.08225C8.19642 2.4849 8.32106 2.88754 8.57035 3.29018L14.6778 9.86671C16.0488 11.3431 16.0488 13.8932 14.6778 15.3695C13.3067 16.8459 10.9385 16.8459 9.56748 15.3695L3.46004 8.79299C3.08612 8.52456 2.71219 8.39035 2.21362 8.52456C1.8397 8.52456 1.46577 8.92721 1.34113 9.32985C-0.154567 14.0274 0.967208 19.2617 4.20789 22.7513C6.45144 25.3014 9.69212 26.6436 12.9328 26.6436C13.9299 26.6436 15.0517 26.5093 16.0488 26.2409L36.4901 48.2522C35.3683 52.8155 36.6147 57.6472 39.6061 61.0026C41.9743 63.5526 44.9657 64.7606 48.2064 64.7606C49.5774 64.7606 50.8238 64.4921 52.1949 64.0895C52.5688 63.9553 52.9428 63.5526 53.0674 63.15C53.192 62.7473 53.0674 62.2105 52.6935 61.9421L46.586 55.3655C45.9628 54.6945 45.4643 53.6207 45.4643 52.547C45.4643 51.4733 45.8382 50.5338 46.586 49.7285C47.3339 48.9232 48.2064 48.5206 49.2035 48.5206C50.2006 48.5206 51.0731 48.9232 51.821 49.7285L57.9284 56.305C58.3023 56.5735 58.6763 56.7077 59.0502 56.7077C59.4241 56.5735 59.798 56.305 59.9227 55.9024C60.2966 54.5602 60.5459 53.0839 60.5459 51.6075C60.5459 48.1179 59.2995 44.7626 56.9313 42.3467Z" fill="white"/>
</svg>
