<svg width="23" height="22" viewBox="0 0 23 22" fill="none" xmlns="http://www.w3.org/2000/svg">
<path d="M9.7998 14.4206L10.2414 13.9791L8.38676 12.1245L7.94519 12.566L7.7244 12.3452C7.37114 11.9478 7.01788 11.727 6.66462 11.7712C6.39967 11.7712 6.17889 11.9478 6.00226 12.2128C5.73731 12.6543 5.86978 13.1401 5.91394 13.4492C5.91394 13.5375 5.9581 13.5817 5.9581 13.67C5.9581 13.8024 5.9581 13.9791 5.649 14.0232C5.20742 14.1557 4.63338 14.2882 4.05933 14.5973C3.26449 15.0389 2.7346 15.4363 2.4255 15.8337C0.791676 17.9532 0.879991 19.7637 0.879991 19.852C0.879991 19.9845 0.924148 20.0728 1.01246 20.117L2.20471 21.3534C2.29303 21.4417 2.38134 21.4858 2.46966 21.4858C2.46966 21.4858 2.51382 21.4858 2.60213 21.4858C3.04371 21.4858 4.63338 21.3975 6.48799 19.9403C6.88541 19.6312 7.28282 19.1013 7.7244 18.3065C8.0335 17.7766 8.21013 17.2026 8.29844 16.7168C8.38676 16.4077 8.51923 16.4077 8.6517 16.4077C8.69586 16.4077 8.78418 16.4519 8.87249 16.4519C9.04912 16.496 9.22575 16.5402 9.44654 16.5402C9.66733 16.5402 9.88811 16.496 10.1089 16.3636C10.3738 16.1869 10.5505 15.9662 10.5946 15.7012C10.6388 15.348 10.4622 14.9947 10.0647 14.6856L9.7998 14.4206Z" fill="#B65534"/>
<path d="M18.8521 5.36666L20.0444 4.79261C20.0885 4.74845 20.1768 4.7043 20.221 4.66014L22.0314 2.23148C22.1639 2.05485 22.1639 1.7899 21.9873 1.65743L20.7509 0.421019C20.6184 0.288546 20.3535 0.244389 20.1768 0.376861L17.7482 2.18732C17.704 2.23148 17.6598 2.27563 17.6157 2.36395L17.0416 3.5562L12.67 7.79532L14.5247 9.64994L18.8521 5.36666Z" fill="#B65534"/>
<path d="M20.7928 14.1081C19.6889 13.0042 18.0992 12.6068 16.5978 13.0042L9.40018 5.76236C9.48849 5.36495 9.53265 5.01169 9.53265 4.61427C9.53265 3.51033 9.09108 2.4064 8.25209 1.56741C7.10399 0.375155 5.38185 -0.0222617 3.79218 0.507628C3.70387 0.551785 3.5714 0.684257 3.52724 0.860887C3.52724 0.993359 3.5714 1.12583 3.65971 1.2583L5.82343 3.42202C6.30916 3.90775 6.30916 4.74674 5.82343 5.23247C5.33769 5.7182 4.4987 5.7182 4.01297 5.23247L1.84926 3.06876C1.71678 2.98044 1.58431 2.93629 1.40768 2.98044C1.27521 2.98044 1.14274 3.11292 1.09858 3.24539C0.568691 4.7909 0.966108 6.51304 2.1142 7.66113C2.90904 8.50012 4.05713 8.9417 5.20522 8.9417C5.55848 8.9417 5.9559 8.89754 6.30916 8.80923L13.551 16.051C13.1536 17.5524 13.5951 19.1421 14.6549 20.246C15.4939 21.085 16.5537 21.4824 17.7018 21.4824C18.1875 21.4824 18.6291 21.3941 19.1148 21.2616C19.2473 21.2175 19.3798 21.085 19.4239 20.9525C19.4681 20.82 19.4239 20.6434 19.2914 20.5551L17.1277 18.3914C16.9069 18.1706 16.7303 17.8173 16.7303 17.4641C16.7303 17.1108 16.8628 16.8017 17.1277 16.5368C17.3927 16.2718 17.7018 16.1394 18.055 16.1394C18.4083 16.1394 18.7174 16.2718 18.9823 16.5368L21.1461 18.7005C21.2785 18.7888 21.411 18.833 21.5435 18.833C21.6759 18.7888 21.8084 18.7005 21.8526 18.568C21.985 18.1264 22.0734 17.6407 22.0734 17.155C22.0734 16.0069 21.6318 14.903 20.7928 14.1081Z" fill="#B65534"/>
</svg>
